<?xml version="1.0" encoding="UTF-8"?> <!-- Generator: Adobe Illustrator 23.0.3, SVG Export Plug-In . SVG Version: 6.00 Build 0) --> <svg xmlns="http://www.w3.org/2000/svg" xmlns:xlink="http://www.w3.org/1999/xlink" id="Layer_1" x="0px" y="0px" viewBox="0 0 120 120" style="enable-background:new 0 0 120 120;" xml:space="preserve"> <style type="text/css"> .st0{fill:url(#Ellipse_198_1_);} .st1{enable-background:new ;} .st2{fill:#FFFFFF;} </style> <g id="_3" transform="translate(-104 57)"> <linearGradient id="Ellipse_198_1_" gradientUnits="userSpaceOnUse" x1="16.2417" y1="153.2583" x2="16.2417" y2="152.2583" gradientTransform="matrix(120 0 0 -120 -1785 18334)"> <stop offset="0" style="stop-color:#FC528B"></stop> <stop offset="1" style="stop-color:#FFCA63"></stop> </linearGradient> <circle id="Ellipse_198" class="st0" cx="164" cy="3" r="60"></circle> <g class="st1"> <path class="st2" d="M179.5,12.4c0,7.1-5.3,13.2-16.6,13.2c-5.9,0-11.9-1.8-15.8-4.9l3.4-6.1c3,2.5,7.6,4.1,12.3,4.1 c5.6,0,8.9-2.5,8.9-6.4c0-3.8-2.8-6.2-9.1-6.2h-3.8V0.9l9.5-11.3h-19.1V-17h28.6v5.2L167.5,0.3C175.4,1.4,179.5,6.1,179.5,12.4z"></path> </g> </g> </svg> 