<?xml version="1.0" encoding="UTF-8"?> <!-- Generator: Adobe Illustrator 23.0.3, SVG Export Plug-In . SVG Version: 6.00 Build 0) --> <svg xmlns="http://www.w3.org/2000/svg" xmlns:xlink="http://www.w3.org/1999/xlink" id="Layer_1" x="0px" y="0px" viewBox="0 0 704 336" style="enable-background:new 0 0 704 336;" xml:space="preserve"> <style type="text/css"> .st0{opacity:0.5;fill:#4C1605;enable-background:new ;} .st1{opacity:0.4;fill:#4C1605;enable-background:new ;} .st2{fill:#FFFFFF;} .st3{fill:#E1E8E5;} .st4{fill:url(#Path_1249_1_);} .st5{opacity:0.7;fill:#9B936C;enable-background:new ;} .st6{opacity:0.8;fill:#FFFFFF;enable-background:new ;} .st7{fill:#E4AA7F;} .st8{fill:url(#Path_1154_1_);} .st9{opacity:0.6;fill:#24126A;enable-background:new ;} .st10{fill:#300E1A;} .st11{fill:#9A5442;} .st12{opacity:0.96;fill:url(#Path_1158_1_);enable-background:new ;} .st13{opacity:0.8;fill:#97523F;enable-background:new ;} .st14{fill:#FF8565;} .st15{opacity:0.3;fill:#515160;enable-background:new ;} .st16{fill:#DD821F;} .st17{fill:#FFD85A;} .st18{fill:#F9BF30;} .st19{fill:#F2B42A;} .st20{opacity:0.24;fill:#0F054C;enable-background:new ;} .st21{opacity:0.3;fill:#0F054C;enable-background:new ;} </style> <path id="Path_1131" class="st0" d="M458.6,299.3l196.3-123.5l-80-50.2l-124.5,86.7l-56.5,70.4L458.6,299.3z"></path> <g id="Group_1307" transform="translate(309.976 212.172)"> <g id="Group_1306"> <g id="Group_1305"> <path id="Path_1246" class="st1" d="M291.5,133.6l121.8-70.3c3.1-1.8,2.8-5-0.9-7.1l-71.1-41c-3.6-2.1-9.1-2.3-12.3-0.5L207.4,85 c-3.1,1.8-2.8,5,0.9,7.1l71.1,41C282.9,135.2,288.4,135.4,291.5,133.6z"></path> <path id="Path_1247" class="st2" d="M186.3,34l1.8-0.3c0.2-0.1,0.4-0.3,0.7-0.4l143.7-82.9c3.7-2.2,10.2-1.9,14.5,0.6l83.8,48.4 c1,0.5,1.8,1.2,2.6,2.2l1-0.3v2.9l0,0c0,1.4-0.9,2.6-2.5,3.6L288.1,90.7c-3.7,2.2-10.2,1.9-14.5-0.6l-83.8-48.4 c-2.4-1.4-3.6-3.1-3.5-4.9l0,0L186.3,34z"></path> <path id="Path_1248" class="st3" d="M288.2,87.8L431.9,4.8c3.7-2.2,3.3-5.9-1-8.3L347-51.9c-4.3-2.5-10.8-2.8-14.5-0.6 L188.8,30.4c-3.7,2.2-3.2,5.9,1,8.3l83.8,48.4C278,89.7,284.5,89.9,288.2,87.8z"></path> <linearGradient id="Path_1249_1_" gradientUnits="userSpaceOnUse" x1="51.0471" y1="-226.7732" x2="50.7046" y2="-225.7686" gradientTransform="matrix(378.0221 0 0 218.2511 -18947.7539 49445.3555)"> <stop offset="0" style="stop-color:#F6EFBF"></stop> <stop offset="1.500000e-02" style="stop-color:#F6EDC1"></stop> <stop offset="0.117" style="stop-color:#F8EDCF"></stop> <stop offset="0.315" style="stop-color:#FDF6E9"></stop> <stop offset="0.514" style="stop-color:#F6E6BF"></stop> <stop offset="0.622" style="stop-color:#F8F5CF"></stop> <stop offset="0.742" style="stop-color:#FDF6E8"></stop> <stop offset="0.755" style="stop-color:#FDFDE9"></stop> <stop offset="1" style="stop-color:#F6E9BF"></stop> </linearGradient> <path id="Path_1249" class="st4" d="M288.2,87.8L431.9,4.8c3.7-2.2,3.3-5.9-1-8.3L347-51.9c-4.3-2.5-10.8-2.8-14.5-0.6 L188.8,30.4c-3.7,2.2-3.2,5.9,1,8.3l83.8,48.4C278,89.7,284.5,89.9,288.2,87.8z"></path> <path id="Path_1250" class="st5" d="M265,82.1L422.1-8.6l-16.7-9.6L248.3,72.5L265,82.1z"></path> <path id="Path_1251" class="st2" d="M431.8,3.1L288.1,86c-3.7,2.2-10.2,1.9-14.5-0.6L189.8,37c-1.9-1.1-3.1-2.5-3.4-3.8 c-0.5,1.9,0.7,4,3.4,5.6l83.8,48.4c4.3,2.5,10.8,2.8,14.5,0.6L431.8,4.8c2-1.2,2.8-2.9,2.4-4.5C433.9,1.5,432.9,2.5,431.8,3.1z"></path> </g> <path id="Path_1252" class="st6" d="M267.5,42.2l47.3-27.3l-11.5-6.7l-47.3,27.3L267.5,42.2z"></path> </g> </g> <g id="Group_1239" transform="translate(0 289.092)"> <path id="Path_1153" class="st7" d="M292.9-66l0.1,13.1l0,0c0,0.2,0.1,0.4,0.3,0.5l142.8,81.9c0.6,0.3,1.2,0.3,1.8-0.1l23.3-13.5 c0.2-0.1,0.4-0.3,0.5-0.5l0,0l0,0c0,0,0,0,0-0.1l-0.1-13.3l-11.3,6.4L318.5-67c-0.6-0.3-1.2-0.3-1.8,0.1l-8,4.7L292.9-66z"></path> <linearGradient id="Path_1154_1_" gradientUnits="userSpaceOnUse" x1="670.1273" y1="-230.1902" x2="669.9317" y2="-230.8549" gradientTransform="matrix(257.1558 0 0 147.8217 -172187.1719 33531.3633)"> <stop offset="0" style="stop-color:#F6E0BF"></stop> <stop offset="0.294" style="stop-color:#F6D6C3"></stop> <stop offset="0.64" style="stop-color:#F9F8D2"></stop> <stop offset="1" style="stop-color:#FCFDE9"></stop> </linearGradient> <path id="Path_1154" class="st8" d="M318.5-80.3L461.3,1.7c0.5,0.3,0.4,0.7-0.1,1l-23.3,13.5c-0.6,0.3-1.2,0.3-1.8,0.1L293.2-65.6 c-0.5-0.3-0.4-0.7,0.1-1l23.3-13.5C317.2-80.5,317.9-80.5,318.5-80.3z"></path> <path id="Path_1155" class="st9" d="M323.6-60.5L435.9,2.7c0.9-4.6,2.2-9.1,3.8-13.4L327.6-75C325.8-70.3,324.5-65.5,323.6-60.5z"></path> <path id="Path_1156" class="st10" d="M313.5-72.7L448.2,4.6c0.3,0.2,0.3,0.5-0.1,0.7l-5.8,3.4c-0.4,0.2-0.9,0.3-1.2,0.1L306.3-68.5 c-0.3-0.2-0.3-0.5,0.1-0.7l5.8-3.4C312.6-72.9,313.1-72.9,313.5-72.7z"></path> <path id="Path_1157" class="st11" d="M306.3-68.5l2.8,1.6l3.1-1.8c0.4-0.2,0.9-0.3,1.2-0.1L445.4,6.8l2.7-1.6 c0.4-0.2,0.4-0.5,0.1-0.7L313.5-72.7c-0.4-0.2-0.9-0.1-1.2,0.1l-5.8,3.4C306-69,306-68.7,306.3-68.5z"></path> </g> <linearGradient id="Path_1158_1_" gradientUnits="userSpaceOnUse" x1="671.4033" y1="-226.258" x2="671.0385" y2="-225.5336" gradientTransform="matrix(510.1125 0 0 415.851 -341913.375 94094.4688)"> <stop offset="0" style="stop-color:#F6E7BF"></stop> <stop offset="7.500000e-02" style="stop-color:#F6EFC1"></stop> <stop offset="0.117" style="stop-color:#F8E9CF"></stop> <stop offset="0.315" style="stop-color:#FDFAE9"></stop> <stop offset="0.473" style="stop-color:#F6F1DF"></stop> <stop offset="0.622" style="stop-color:#F8F3CF"></stop> <stop offset="0.742" style="stop-color:#FDFCE8"></stop> <stop offset="0.755" style="stop-color:#FDFAE9"></stop> <stop offset="1" style="stop-color:#F6CCBF"></stop> </linearGradient> <path id="Path_1158" class="st12" d="M653.1,83.3L541,19l0,0c0.1,20.1-14,44.6-31.4,54.6l-154.4,89.7 c-20.4,11.9-36.9,40.6-36.8,64.2l0,0l112.1,64.3l0,0c-0.1-23.6,16.4-52.4,36.8-64.2l154.4-89.7C639.1,127.8,653.2,103.4,653.1,83.3 L653.1,83.3z"></path> <path id="Path_1159" class="st13" d="M318.4,227.5l112.1,64.3c0-1,0.1-2.1,0.1-3.1l0,0l-112.1-64.3 C318.4,225.4,318.4,226.5,318.4,227.5z"></path> <path id="Path_1160" class="st14" d="M480.7,179.3l25.4,14.6l-2.4,1.4l-25.4-14.6L480.7,179.3z"></path> <path id="Path_1161" class="st14" d="M467.7,171.8l9.1,5.2l-2.4,1.4l-9.1-5.2L467.7,171.8z"></path> <path id="Path_1162" class="st14" d="M457.6,166l6.2,3.5l-2.4,1.4l-6.2-3.5L457.6,166z"></path> <path id="Path_1163" class="st14" d="M497.8,182.7l13.8,7.9l-2.4,1.4l-13.8-7.9L497.8,182.7z"></path> <path id="Path_1164" class="st14" d="M477,170.8l16.9,9.7l-2.4,1.4l-16.9-9.8L477,170.8z"></path> <path id="Path_1165" class="st14" d="M466.9,164.9l6.2,3.5l-2.5,1.4l-6.2-3.5L466.9,164.9z"></path> <path id="Path_1166" class="st14" d="M457.3,159.4l6.2,3.5l-2.4,1.4l-6.2-3.5L457.3,159.4z"></path> <path id="Path_1167" class="st14" d="M507.2,181.7l10,5.8l-2.4,1.4l-10.1-5.8L507.2,181.7z"></path> <path id="Path_1168" class="st14" d="M499.9,177.5l3.4,2l-2.4,1.4l-3.4-2L499.9,177.5z"></path> <path id="Path_1169" class="st14" d="M489.9,171.7l6.2,3.5l-2.4,1.4l-6.2-3.5L489.9,171.7z"></path> <path id="Path_1170" class="st14" d="M485.9,163l36.9,21.2l-2.4,1.4l-36.9-21.2L485.9,163z"></path> <path id="Path_1171" class="st14" d="M472.9,155.5l9.1,5.2l-2.4,1.4l-9.1-5.2L472.9,155.5z"></path> <path id="Path_1172" class="st14" d="M518.4,175.2l10,5.8l-2.4,1.4l-10-5.8L518.4,175.2z"></path> <path id="Path_1173" class="st14" d="M494.9,161.7l19.6,11.2l-2.4,1.4l-19.6-11.2L494.9,161.7z"></path> <path id="Path_1174" class="st14" d="M484.8,155.9l6.2,3.5l-2.4,1.4l-6.2-3.5L484.8,155.9z"></path> <path id="Path_1175" class="st14" d="M513.5,165.9l20.5,11.7l-2.4,1.4l-20.5-11.7L513.5,165.9z"></path> <path id="Path_1176" class="st14" d="M494.8,155.2l14.8,8.5l-2.4,1.4l-14.8-8.5L494.8,155.2z"></path> <path id="Path_1177" class="st14" d="M480.9,147.2l10,5.8l-2.4,1.4l-10-5.8L480.9,147.2z"></path> <path id="Path_1178" class="st14" d="M532.6,170.4l6.9,3.9l-2.4,1.4l-6.9-3.9L532.6,170.4z"></path> <path id="Path_1179" class="st14" d="M519.6,163l9.1,5.2l-2.4,1.4l-9.1-5.2L519.6,163z"></path> <path id="Path_1180" class="st14" d="M501,152.3l14.7,8.5l-2.4,1.4l-14.7-8.5L501,152.3z"></path> <path id="Path_1181" class="st14" d="M523.9,159l21.2,12.1l-2.4,1.4l-21.2-12.1L523.9,159z"></path> <path id="Path_1182" class="st14" d="M500.2,145.4l19.9,11.4l-2.4,1.4l-19.9-11.4L500.2,145.4z"></path> <path id="Path_1183" class="st14" d="M490.1,139.6l6.2,3.5l-2.4,1.4l-6.2-3.5L490.1,139.6z"></path> <path id="Path_1184" class="st14" d="M480.4,134.1l6.2,3.5l-2.4,1.4l-6.2-3.5L480.4,134.1z"></path> <path id="Path_1185" class="st14" d="M538,160.7l12.7,7.3l-2.4,1.4l-12.7-7.3L538,160.7z"></path> <path id="Path_1186" class="st14" d="M429.2,149.8l-17.6-10.1l-2.4,1.4l17.6,10.1L429.2,149.8z"></path> <path id="Path_1187" class="st14" d="M431,144.3l-13.8-7.9l-2.4,1.4l13.8,7.9L431,144.3z"></path> <path id="Path_1188" class="st14" d="M432.8,138.9l-10-5.8l-2.4,1.4l10,5.8L432.8,138.9z"></path> <path id="Path_1189" class="st14" d="M442.9,138.3l-14.6-8.3l-2.4,1.4l14.6,8.3L442.9,138.3z"></path> <path id="Path_1190" class="st14" d="M443.9,132.4l-10-5.8l-2.4,1.4l10,5.8L443.9,132.4z"></path> <path id="Path_1191" class="st14" d="M452.2,130.7l-12.7-7.3l-2.4,1.4l12.7,7.3L452.2,130.7z"></path> <path id="Path_1192" class="st14" d="M452,124.2l-6.9-3.9l-2.4,1.4l6.9,3.9L452,124.2z"></path> <path id="Path_1193" class="st14" d="M464.1,124.6l-13.4-7.7l-2.4,1.4l13.4,7.7L464.1,124.6z"></path> <path id="Path_1194" class="st14" d="M468.9,121l-12.7-7.3l-2.4,1.4l12.7,7.3L468.9,121z"></path> <path id="Path_1195" class="st14" d="M528.7,155.3l5.4,3.1l-2.4,1.4l-5.4-3.1L528.7,155.3z"></path> <path id="Path_1196" class="st14" d="M512.7,146.2l12.1,7l-2.4,1.4l-12.1-7L512.7,146.2z"></path> <path id="Path_1197" class="st14" d="M527.9,121.3l20.5,11.7l-2.4,1.4l-20.5-11.8L527.9,121.3z"></path> <path id="Path_1198" class="st14" d="M513.8,113.2l8.1,4.7l-2.4,1.4l-8.1-4.7L513.8,113.2z"></path> <ellipse id="Ellipse_179" transform="matrix(0.3303 -0.9439 0.9439 0.3303 255.5989 561.0277)" class="st15" cx="523.2" cy="100.4" rx="11.8" ry="38.5"></ellipse> <path id="Path_1132" class="st16" d="M537.6,65.3l-0.3-6.4l-1.4-3.7l-0.9,3.1L537.6,65.3z"></path> <path id="Path_1133" class="st17" d="M471.2,66.5l-0.3-6.2c0,0,5.2,5.2,5.2,5.4S471.2,66.5,471.2,66.5z"></path> <path id="Path_1134" class="st17" d="M504.8,84.9c18.4-0.5,32.9-9.8,32.5-26c-0.4-16.2-15.6-29-33.9-28.5 c-18.4,0.5-32.9,13.9-32.5,30.1C471.3,76.7,486.4,85.3,504.8,84.9z"></path> <ellipse id="Ellipse_180" transform="matrix(0.9997 -2.392651e-02 2.392651e-02 0.9997 -1.4358 12.0864)" class="st17" cx="504.4" cy="66" rx="33.3" ry="29.3"></ellipse> <path id="Path_1135" class="st16" d="M527.6,44.9c6,5.2,9.8,12.3,10,20.3c0.4,16.2-14.2,29.7-32.5,30.1c-8.5,0.3-16.9-2.5-23.5-7.9 L527.6,44.9z"></path> <ellipse id="Ellipse_181" transform="matrix(0.9997 -2.394395e-02 2.394395e-02 0.9997 -1.4367 12.0952)" class="st18" cx="504.4" cy="66" rx="31.8" ry="28"></ellipse> <ellipse id="Ellipse_182" transform="matrix(0.9997 -2.399338e-02 2.399338e-02 0.9997 -1.4394 12.1202)" class="st19" cx="504.4" cy="66" rx="25.5" ry="22.5"></ellipse> <path id="Path_1136" class="st17" d="M478.9,66.7c0-0.5,0-1,0-1.5c1.2,11.7,12.5,20.7,25.9,20.3c13.5-0.3,24.3-9.8,24.9-21.6 c0.1,0.5,0.1,1,0.1,1.5c0.3,12.4-10.9,22.8-24.9,23.1C490.8,88.9,479.2,79.1,478.9,66.7z"></path> <path id="Path_1137" class="st17" d="M499.5,67.9l5.2-4.9c5.1,1.1,14.4,3.3,21.9,5.1c-1.8,5.6-6.4,10.2-12.3,12.7L499.5,67.9z"></path> <path id="Path_1138" class="st17" d="M507.7,82.6c-0.9,0.1-1.7,0.2-2.6,0.2c-5.8,0.2-11.4-1.7-16-5.2l8.5-7.9L507.7,82.6z"></path> <path id="Path_1139" class="st17" d="M510.3,57.9l9.8-9.1c3.3,2.9,6.3,6.1,7.1,10.4L510.3,57.9z"></path> <path id="Path_1140" class="st16" d="M505.1,46.2c-14.1,0.3-25.3,10.7-24.9,23.1c0.1,2.5,0.6,4.9,1.5,7.2c-1.8-3-2.8-6.4-2.8-9.8 c-0.3-12.4,10.9-22.8,24.9-23.1c11.2-0.3,20.9,5.9,24.5,14.7C524,51,515.2,46,505.1,46.2z"></path> <path id="Path_1141" class="st16" d="M537.4,59c0.1,2.4,0.3,4.1-0.3,6.4c-0.7-2.4-2.3-9.5-2.3-9.5l-2.6-5.6l-2.1-1.7l-3.5-2.6 l-0.3-8.1C532.9,42.9,537.2,50.4,537.4,59z"></path> <path id="Path_1142" class="st16" d="M473.1,58.1l-0.1-1.6c0-0.3-0.2-0.4-0.4-0.4h-0.1c-0.3,0-0.4,0.2-0.4,0.5l0.1,1.6 c0,0.3,0.2,0.4,0.4,0.4h0.1C472.9,58.6,473.1,58.4,473.1,58.1z"></path> <path id="Path_1143" class="st16" d="M476,51.7l-0.2-3c0-0.3-0.2-0.5-0.5-0.5H475c-0.3,0-0.5,0.3-0.5,0.5l0,0l0.2,3 c0,0.3,0.2,0.5,0.5,0.5h0.3C475.8,52.2,476,52,476,51.7z"></path> <path id="Path_1144" class="st16" d="M480,46.1l-0.2-2.9c0-0.3-0.3-0.5-0.5-0.5h-0.5c-0.3,0-0.5,0.3-0.5,0.6l0.2,2.9 c0,0.3,0.3,0.5,0.5,0.5h0.5C479.8,46.7,480,46.4,480,46.1z"></path> <path id="Path_1145" class="st16" d="M486.1,41.6l-0.2-3.5c0-0.3-0.3-0.5-0.5-0.5h-0.5c-0.3,0-0.5,0.3-0.5,0.6l0,0l0.2,3.5 c0,0.3,0.3,0.5,0.5,0.5h0.5C485.9,42.2,486.1,41.9,486.1,41.6z"></path> <path id="Path_1146" class="st16" d="M492.2,38.7l-0.2-4.1c0-0.3-0.3-0.5-0.5-0.5l0,0h-0.5c-0.3,0-0.5,0.3-0.5,0.6l0.2,4.1 c0,0.3,0.3,0.5,0.5,0.5l0,0h0.5C492,39.2,492.2,38.9,492.2,38.7L492.2,38.7z"></path> <path id="Path_1147" class="st16" d="M498.3,36.8l-0.2-3.9c0-0.3-0.3-0.5-0.5-0.5H497c-0.3,0-0.5,0.3-0.5,0.6l0.2,3.9 c0,0.3,0.3,0.5,0.5,0.5h0.5C498.1,37.4,498.3,37.2,498.3,36.8L498.3,36.8z"></path> <path id="Path_1148" class="st16" d="M504.4,36.3l-0.2-3.9c0-0.3-0.3-0.5-0.5-0.5l0,0h-0.5c-0.3,0-0.5,0.3-0.5,0.6l0.2,3.9 c0,0.3,0.3,0.5,0.5,0.5h0.5C504.2,36.8,504.4,36.5,504.4,36.3z"></path> <path id="Path_1149" class="st16" d="M510.6,36.4l-0.2-3.7c0-0.3-0.3-0.5-0.5-0.5l0,0h-0.5c-0.3,0-0.5,0.3-0.5,0.6l0.2,3.7 c0,0.3,0.3,0.5,0.5,0.5l0,0h0.5C510.4,36.9,510.6,36.6,510.6,36.4z"></path> <path id="Path_1150" class="st16" d="M516.8,37.7l-0.2-3.6c0-0.3-0.3-0.5-0.5-0.5h-0.5c-0.3,0-0.5,0.3-0.5,0.6l0.2,3.6 c0,0.3,0.3,0.5,0.5,0.5h0.5C516.6,38.3,516.8,38,516.8,37.7L516.8,37.7z"></path> <path id="Path_1151" class="st16" d="M523.1,40.7l-0.2-3.9c0-0.3-0.3-0.5-0.5-0.5h-0.5c-0.3,0-0.5,0.3-0.5,0.6l0.2,3.9 c0,0.3,0.3,0.5,0.5,0.5h0.5C522.9,41.3,523.1,41,523.1,40.7z"></path> <ellipse id="Ellipse_183" transform="matrix(0.3303 -0.9439 0.9439 0.3303 141.9927 546.6093)" class="st20" cx="456.2" cy="173.2" rx="15.2" ry="49.6"></ellipse> <path id="Path_1199" class="st16" d="M474.8,128l-0.3-8.1l-1.9-4.8l-1.2,3.9L474.8,128z"></path> <path id="Path_1200" class="st17" d="M389.2,129.6l-0.3-8c0,0,6.8,6.8,6.8,6.9C395.6,128.6,389.2,129.6,389.2,129.6z"></path> <path id="Path_1201" class="st17" d="M432.6,153.3c23.6-0.6,42.4-12.6,41.9-33.5c-0.5-20.9-20.1-37.3-43.7-36.7 c-23.6,0.6-42.4,17.9-41.9,38.8S409,153.8,432.6,153.3z"></path> <ellipse id="Ellipse_184" transform="matrix(0.9997 -2.399338e-02 2.399338e-02 0.9997 -2.9714 10.4036)" class="st17" cx="432.1" cy="129" rx="42.8" ry="37.8"></ellipse> <path id="Path_1202" class="st16" d="M461.9,101.8c7.7,6.6,12.7,15.9,12.9,26.2c0.5,20.9-18.2,38.3-41.9,38.8 c-11.7,0.3-22.4-3.6-30.2-10.1L461.9,101.8z"></path> <ellipse id="Ellipse_185" transform="matrix(0.9997 -2.394346e-02 2.394346e-02 0.9997 -2.9655 10.3803)" class="st18" cx="432" cy="129" rx="40.9" ry="36.1"></ellipse> <ellipse id="Ellipse_186" transform="matrix(0.9997 -2.399338e-02 2.399338e-02 0.9997 -2.9714 10.4036)" class="st19" cx="432.1" cy="129" rx="32.8" ry="29"></ellipse> <path id="Path_1203" class="st17" d="M399.2,129.8c0-0.7,0-1.3,0.1-2c1.5,15,16,26.6,33.4,26.2c17.4-0.4,31.3-12.7,32.1-27.8 c0.1,0.7,0.1,1.3,0.1,2c0.4,16-14,29.3-32.1,29.8C414.6,158.4,399.6,145.8,399.2,129.8z"></path> <path id="Path_1204" class="st17" d="M425.7,131.5l6.8-6.2c6.5,1.4,18.6,4.2,28.2,6.5c-2.4,7.2-8.3,13.2-15.9,16.3L425.7,131.5z"></path> <path id="Path_1205" class="st17" d="M436.3,150.3c-1,0.1-2.2,0.2-3.3,0.3c-7.4,0.3-14.8-2.2-20.6-6.8l11-10.2L436.3,150.3z"></path> <path id="Path_1206" class="st17" d="M439.7,118.5l12.7-11.7c4.3,3.7,8.1,7.8,9.1,13.3L439.7,118.5z"></path> <path id="Path_1207" class="st16" d="M433,103.5c-18.1,0.5-32.5,13.8-32.1,29.8c0.1,3.1,0.7,6.3,2,9.3c-2.3-3.9-3.5-8.2-3.7-12.7 c-0.4-16,14-29.3,32.1-29.8c14.4-0.3,26.9,7.6,31.6,19C457.3,109.5,446,103.2,433,103.5z"></path> <path id="Path_1208" class="st16" d="M474.5,119.8c0.1,3.1,0.4,5.4-0.4,8.3c-0.9-3.1-3-12.2-3-12.2l-3.3-7.3l-2.7-2.2l-4.6-3.3 l-0.4-10.5C468.7,99.2,474.2,109,474.5,119.8z"></path> <path id="Path_1209" class="st16" d="M391.6,118.8l-0.2-2.2c0-0.3-0.3-0.5-0.5-0.5l0,0h-0.1c-0.3,0-0.5,0.3-0.5,0.6l0.2,2.2 c0,0.3,0.3,0.5,0.5,0.5l0,0h0.1C391.4,119.3,391.7,119.1,391.6,118.8L391.6,118.8z"></path> <path id="Path_1210" class="st16" d="M395.4,110.5l-0.2-3.9c0-0.3-0.3-0.6-0.6-0.6l0,0h-0.4c-0.3,0-0.6,0.3-0.6,0.7l0.2,3.9 c0,0.3,0.3,0.6,0.6,0.6h0.4C395.2,111.2,395.4,110.9,395.4,110.5z"></path> <path id="Path_1211" class="st16" d="M400.6,103.4l-0.2-3.7c0-0.4-0.3-0.7-0.7-0.7h-0.7c-0.4,0-0.7,0.3-0.7,0.7l0.2,3.7 c0,0.4,0.3,0.7,0.7,0.7h0.7C400.4,104,400.6,103.7,400.6,103.4z"></path> <path id="Path_1212" class="st16" d="M408.4,97.5l-0.3-4.5c0-0.4-0.3-0.7-0.7-0.7h-0.7c-0.4,0-0.7,0.3-0.7,0.7l0.3,4.5 c0,0.4,0.3,0.7,0.7,0.7h0.7C408.2,98.3,408.4,97.9,408.4,97.5z"></path> <path id="Path_1213" class="st16" d="M416.3,93.7l-0.3-5.2c0-0.4-0.3-0.7-0.7-0.7h-0.7c-0.4,0-0.7,0.3-0.7,0.7l0.3,5.2 c0,0.4,0.3,0.7,0.7,0.7l0,0h0.7C416,94.5,416.3,94.1,416.3,93.7z"></path> <path id="Path_1214" class="st16" d="M424.2,91.4l-0.3-5.1c0-0.4-0.3-0.7-0.7-0.7l0,0h-0.7c-0.4,0-0.7,0.3-0.7,0.7l0,0l0.3,5.1 c0,0.4,0.3,0.7,0.7,0.7h0.7C423.9,92.2,424.2,91.8,424.2,91.4z"></path> <path id="Path_1215" class="st16" d="M432.1,90.6l-0.3-5.1c0-0.4-0.3-0.7-0.7-0.7l0,0h-0.7c-0.4,0-0.7,0.3-0.7,0.7l0.3,5.1 c0,0.4,0.3,0.7,0.7,0.7h0.7C431.8,91.3,432.1,91,432.1,90.6z"></path> <path id="Path_1216" class="st16" d="M440.1,90.8l-0.3-4.8c0-0.4-0.3-0.7-0.7-0.7h-0.7c-0.4,0-0.7,0.3-0.7,0.7l0.3,4.8 c0,0.4,0.3,0.7,0.7,0.7l0,0h0.7C439.8,91.5,440.1,91.2,440.1,90.8z"></path> <path id="Path_1217" class="st16" d="M448,92.6l-0.3-4.7c0-0.4-0.3-0.7-0.7-0.7l0,0h-0.7c-0.4,0-0.7,0.3-0.7,0.7l0.3,4.7 c0,0.4,0.3,0.7,0.7,0.7h0.7C447.7,93.3,448.1,92.9,448,92.6z"></path> <path id="Path_1218" class="st16" d="M456.1,96.4l-0.3-5c0-0.4-0.3-0.7-0.7-0.7h-0.7c-0.4,0-0.7,0.3-0.7,0.7l0.3,5 c0,0.4,0.3,0.7,0.7,0.7h0.7C455.8,97.1,456.1,96.8,456.1,96.4z"></path> <ellipse id="Ellipse_187" transform="matrix(0.3107 -0.9505 0.9505 0.3107 151.5691 750.8828)" class="st21" cx="593.5" cy="270.9" rx="9.6" ry="32.7"></ellipse> <path id="Path_1220" class="st16" d="M619.9,236.7l-0.3-7.2l-1.6-4.2l-1,3.5L619.9,236.7z"></path> <path id="Path_1221" class="st17" d="M544.7,238.1l-0.3-7c0,0,6,5.9,6,6.1S544.7,238.1,544.7,238.1z"></path> <path id="Path_1222" class="st17" d="M582.8,258.9c20.7-0.5,37.2-11,36.7-29.3s-17.6-32.7-38.4-32.3c-20.7,0.5-37.2,15.7-36.7,34.1 S562.1,259.4,582.8,258.9z"></path> <ellipse id="Ellipse_188" transform="matrix(0.9997 -2.399338e-02 2.399338e-02 0.9997 -5.5335 14.0398)" class="st17" cx="582.3" cy="237.6" rx="37.6" ry="33.2"></ellipse> <path id="Path_1223" class="st16" d="M608.6,213.7c6.8,5.8,11.2,13.9,11.4,23c0.5,18.3-16,33.6-36.7,34.1 c-9.6,0.3-19.1-2.8-26.6-8.9L608.6,213.7z"></path> <ellipse id="Ellipse_189" transform="matrix(0.9997 -2.399338e-02 2.399338e-02 0.9997 -5.5335 14.0398)" class="st18" cx="582.3" cy="237.6" rx="35.9" ry="31.7"></ellipse> <ellipse id="Ellipse_190" transform="matrix(0.9997 -2.392651e-02 2.392651e-02 0.9997 -5.517 14.0004)" class="st19" cx="582.3" cy="237.5" rx="28.8" ry="25.5"></ellipse> <path id="Path_1224" class="st17" d="M553.5,238.3c0-0.6,0-1.2,0-1.7c1.3,13.2,14,23.4,29.3,23c15.2-0.4,27.5-11.2,28.1-24.4 c0.1,0.6,0.1,1.1,0.1,1.7c0.3,14-12.3,25.7-28.2,26.1C567,263.4,553.8,252.3,553.5,238.3z"></path> <path id="Path_1225" class="st17" d="M576.8,239.7l5.9-5.4c5.7,1.3,16.3,3.7,24.8,5.7c-2.1,6.4-7.2,11.5-14,14.4L576.8,239.7z"></path> <path id="Path_1226" class="st17" d="M586.1,256.3c-0.9,0.1-1.9,0.2-2.9,0.2c-6.6,0.2-12.9-1.9-18-6l9.6-8.9L586.1,256.3z"></path> <path id="Path_1227" class="st17" d="M589.1,228.4l11.2-10.3c3.7,3.3,7.1,6.9,8,11.7L589.1,228.4z"></path> <path id="Path_1228" class="st16" d="M583.2,215.2c-15.9,0.4-28.5,12.1-28.2,26.1c0.1,2.8,0.7,5.5,1.7,8.1c-2-3.3-3.1-7.2-3.2-11.2 c-0.3-14,12.3-25.7,28.2-26.1c12.7-0.3,23.6,6.7,27.7,16.7C604.6,220.5,594.6,214.9,583.2,215.2z"></path> <path id="Path_1229" class="st16" d="M619.6,229.5c0.1,2.8,0.3,4.7-0.3,7.2c-0.9-2.7-2.6-10.7-2.6-10.7l-2.9-6.4l-2.4-2l-4-3 l-0.3-9.2C614.5,211.4,619.4,220,619.6,229.5z"></path> <path id="Path_1230" class="st16" d="M546.9,228.6l-0.1-1.9c0-0.3-0.2-0.5-0.5-0.5h-0.2c-0.3,0-0.5,0.3-0.5,0.5l0.1,1.9 c0,0.3,0.2,0.5,0.5,0.5h0.1C546.7,229.1,546.9,228.8,546.9,228.6z"></path> <path id="Path_1231" class="st16" d="M550.2,221.3l-0.2-3.4c0-0.3-0.3-0.5-0.5-0.5l0,0h-0.3c-0.3,0-0.5,0.3-0.5,0.6l0.2,3.4 c0,0.3,0.3,0.5,0.5,0.5h0.3C550,221.9,550.2,221.7,550.2,221.3z"></path> <path id="Path_1232" class="st16" d="M554.8,215l-0.2-3.3c0-0.3-0.3-0.6-0.6-0.6h-0.6c-0.3,0-0.6,0.3-0.6,0.7l0,0l0.2,3.3 c0,0.3,0.3,0.6,0.6,0.6h0.6C554.6,215.7,554.8,215.4,554.8,215z"></path> <path id="Path_1233" class="st16" d="M561.6,209.9l-0.2-4c0-0.3-0.3-0.6-0.6-0.6l0,0h-0.6c-0.3,0-0.6,0.3-0.6,0.7l0,0l0.2,4 c0,0.3,0.3,0.6,0.6,0.6l0,0h0.6C561.4,210.6,561.6,210.3,561.6,209.9z"></path> <path id="Path_1234" class="st16" d="M568.5,206.6l-0.2-4.6c0-0.3-0.3-0.6-0.6-0.6h-0.6c-0.3,0-0.6,0.3-0.6,0.7l0,0l0.2,4.6 c0,0.3,0.3,0.6,0.6,0.6h0.6C568.3,207.2,568.5,207,568.5,206.6L568.5,206.6z"></path> <path id="Path_1235" class="st16" d="M575.4,204.5l-0.2-4.4c0-0.3-0.3-0.6-0.6-0.6l0,0H574c-0.3,0-0.6,0.3-0.6,0.7l0.2,4.4 c0,0.3,0.3,0.6,0.6,0.6h0.6C575.2,205.2,575.5,204.9,575.4,204.5z"></path> <path id="Path_1236" class="st16" d="M582.4,203.9l-0.2-4.5c0-0.3-0.3-0.6-0.6-0.6H581c-0.3,0-0.6,0.3-0.6,0.7l0.2,4.5 c0,0.3,0.3,0.6,0.6,0.6h0.6C582.2,204.5,582.4,204.2,582.4,203.9z"></path> <path id="Path_1237" class="st16" d="M589.4,204l-0.2-4.2c0-0.3-0.3-0.6-0.6-0.6l0,0H588c-0.3,0-0.6,0.3-0.6,0.7l0,0l0.2,4.2 c0,0.3,0.3,0.6,0.6,0.6h0.6C589.1,204.6,589.4,204.4,589.4,204z"></path> <path id="Path_1238" class="st16" d="M596.3,205.5l-0.2-4.1c0-0.3-0.3-0.6-0.6-0.6H595c-0.3,0-0.6,0.3-0.6,0.7l0.2,4.1 c0,0.3,0.3,0.6,0.6,0.6h0.6C596.2,206.2,596.4,205.9,596.3,205.5L596.3,205.5z"></path> <path id="Path_1239" class="st16" d="M603.4,208.9l-0.2-4.4c0-0.3-0.3-0.6-0.6-0.6l0,0h-0.6c-0.3,0-0.6,0.3-0.6,0.7l0.2,4.4 c0,0.3,0.3,0.6,0.6,0.6l0,0h0.6C603.2,209.6,603.4,209.3,603.4,208.9z"></path> </svg> 