<?xml version="1.0" encoding="UTF-8"?> <!-- Generator: Adobe Illustrator 23.0.3, SVG Export Plug-In . SVG Version: 6.00 Build 0) --> <svg xmlns="http://www.w3.org/2000/svg" xmlns:xlink="http://www.w3.org/1999/xlink" id="Layer_1" x="0px" y="0px" viewBox="0 0 336 416" style="enable-background:new 0 0 336 416;" xml:space="preserve"> <style type="text/css"> .st0{fill:#832082;} .st1{fill:url(#SVGID_1_);} .st2{fill:url(#SVGID_2_);} .st3{fill:url(#SVGID_3_);} .st4{fill:#FCC29F;} .st5{fill:#FBA999;} .st6{opacity:0.4;fill:#0B0244;enable-background:new ;} </style> <polygon class="st0" points="122.4,305.2 136.8,267 161.1,267.9 "></polygon> <linearGradient id="SVGID_1_" gradientUnits="userSpaceOnUse" x1="-787.4894" y1="744.86" x2="-788.4004" y2="745.189" gradientTransform="matrix(239.23 0 0 -87.3 188488.7031 65219.7031)"> <stop offset="0" style="stop-color:#FCBA9D"></stop> <stop offset="0.563" style="stop-color:#ED8493"></stop> <stop offset="1" style="stop-color:#E4608D"></stop> </linearGradient> <path class="st1" d="M288,163l-180.1,87.3l-59.2-34.2L288,163z"></path> <linearGradient id="SVGID_2_" gradientUnits="userSpaceOnUse" x1="-782.1534" y1="746.5698" x2="-781.3644" y2="746.6958" gradientTransform="matrix(151.209 0 0 -138.12 118952.1172 103283.875)"> <stop offset="0" style="stop-color:#FCBA9D"></stop> <stop offset="0.563" style="stop-color:#ED8493"></stop> <stop offset="1" style="stop-color:#E4608D"></stop> </linearGradient> <path class="st2" d="M288,163L136.8,267l59.2,34.2L288,163z"></path> <linearGradient id="SVGID_3_" gradientUnits="userSpaceOnUse" x1="-786.3129" y1="746.3008" x2="-787.2379" y2="746.7878" gradientTransform="matrix(180.073 0 0 -142.152 141754.6719 106303.8516)"> <stop offset="0" style="stop-color:#F88B93"></stop> <stop offset="0.206" style="stop-color:#D76D8E"></stop> <stop offset="0.573" style="stop-color:#A23D86"></stop> <stop offset="0.849" style="stop-color:#811F81"></stop> <stop offset="1" style="stop-color:#751480"></stop> </linearGradient> <path class="st3" d="M136.8,267L288,163l-180.1,87.3l14.4,54.9L136.8,267z"></path> <path class="st4" d="M105.3,248.8L288,163l-180.1,87.3L105.3,248.8z"></path> <path class="st5" d="M136.8,267L288,163L139.2,268.3L136.8,267z"></path> <path class="st6" d="M249.7,309.1L87.1,345.3l38.4,22.2l0,0l1.8,1l21.5-1.5l10.4,19.9l28,16.2L249.7,309.1z"></path> </svg> 