<?xml version="1.0" encoding="UTF-8"?> <!-- Generator: Adobe Illustrator 23.0.3, SVG Export Plug-In . SVG Version: 6.00 Build 0) --> <svg xmlns="http://www.w3.org/2000/svg" xmlns:xlink="http://www.w3.org/1999/xlink" id="Layer_1" x="0px" y="0px" viewBox="0 0 336 416" style="enable-background:new 0 0 336 416;" xml:space="preserve"> <style type="text/css"> .st0{fill:#B7B3B6;} .st1{fill:#DEDBD9;} .st2{fill:#CFF0FF;} .st3{fill:#4F4F60;} .st4{opacity:0.45;} .st5{opacity:0.961;fill:#EDF8FF;enable-background:new ;} .st6{fill:#C0E7F6;} .st7{opacity:0.2;fill:#2C92C9;enable-background:new ;} .st8{fill:#ABD0ED;} .st9{fill:#D3EBEF;} .st10{fill:#ABDCED;} .st11{fill:#89C1CE;} .st12{opacity:0.56;} .st13{fill:#ABDDED;} .st14{fill:#97CEDD;} .st15{opacity:0.52;fill:#ABDCED;enable-background:new ;} .st16{fill:none;stroke:#3842F9;stroke-width:0.274;stroke-linecap:round;stroke-linejoin:round;} .st17{fill:none;stroke:#07E4F4;stroke-width:0.274;stroke-linecap:round;stroke-linejoin:round;} .st18{fill:none;stroke:#F3A35A;stroke-width:0.274;stroke-linecap:round;stroke-linejoin:round;} .st19{fill:none;stroke:#02CBFF;stroke-width:0.274;stroke-linecap:round;stroke-linejoin:round;} .st20{fill:#3842F9;} .st21{fill:#07E4F4;} .st22{fill:#F3A35A;} .st23{fill:#02CBFF;} .st24{fill:none;stroke:#ABDCED;stroke-width:0.821;stroke-linecap:round;stroke-linejoin:round;} .st25{fill:none;stroke:#07E4F4;stroke-width:0.389;stroke-linecap:round;stroke-linejoin:round;} .st26{fill:none;stroke:#02CBFF;stroke-width:0.389;stroke-linecap:round;stroke-linejoin:round;} .st27{opacity:0.52;fill:none;stroke:#F3A35A;stroke-width:0.389;stroke-linecap:round;stroke-linejoin:round;enable-background:new ;} .st28{fill:none;stroke:#3842F9;stroke-width:0.389;stroke-linecap:round;stroke-linejoin:round;} .st29{opacity:0.81;} .st30{fill:#ABDFED;} .st31{fill:#B4D9F9;} .st32{fill:#FF5A68;} .st33{fill:#F59083;} .st34{fill:#FF8E93;} .st35{fill:#FF4BB1;} </style> <g transform="translate(-144 -882)"> <g transform="translate(129.139 946.34)"> <g transform="translate(162.663 94.894)"> <g transform="translate(91.194)"> <path class="st0" d="M138.7,189.8L15.1,116.7c-5.1-2.8-9.3-9.2-9.3-14.2L2.5,2.4c1-0.5,2-1,3-1.6c1.7-1.2,4.3-1.1,7.3,0.6 l122.9,68.9c5.1,2.8,9.3,9.2,9.3,14.2V183c0,2.3-0.9,4-2.4,4.7C140.9,188.7,138.7,189.8,138.7,189.8z"></path> <path class="st1" d="M132.2,188.8L9.3,119.9c-5.1-2.8-9.3-9.2-9.3-14.2V7.2c0-5,4.2-6.8,9.3-3.9l122.9,68.9 c5.1,2.8,9.3,9.2,9.3,14.2v98.6C141.6,189.9,137.4,191.6,132.2,188.8z"></path> <path class="st2" d="M128.5,174.9L12.3,109.8c-4.1-2.2-6.6-6.5-6.6-11.2V18.4c0.1-2.3,2-4.1,4.3-4.1c0.7,0,1.4,0.2,2,0.6 l117.3,65.7c4.5,2.5,7.3,7.2,7.3,12.3v77.5c-0.1,2.9-2.5,5.2-5.4,5.1C130.1,175.6,129.3,175.3,128.5,174.9z"></path> <path class="st0" d="M74.2,44.9c0-1-0.5-1.9-1.3-2.4c-0.7-0.4-1.3,0-1.3,0.9c0,1,0.5,1.9,1.3,2.4C73.6,46.3,74.2,45.8,74.2,44.9 z"></path> </g> <path class="st0" d="M217.6,198l-81.7,44.6L9,171.6l-9-5v6.1c0.2,1.5,1.2,2.8,2.5,3.5l126,70.6c4.8,2.7,10.6,2.7,15.4,0 l79.4-44.5c1.3-0.7,2.3-2,2.5-3.5v-5.1L217.6,198z"></path> <path class="st1" d="M2.6,171.4l126,70.6c4.8,2.7,10.6,2.7,15.4,0l79.4-44.5c2.4-1.3,3.3-4.3,2-6.7c-0.5-0.8-1.1-1.5-2-2 l-126-70.6c-4.8-2.7-10.6-2.7-15.4,0L2.6,162.7c-2.4,1.3-3.3,4.3-2,6.7C1,170.2,1.7,170.9,2.6,171.4z"></path> <path class="st3" d="M221.6,183.2l-119.6-67v4.6l119.6,67V183.2z"></path> <g transform="translate(39.387 121.518)"> <path class="st3" d="M31.7,16l-5.4-3c-0.3-0.2-0.3-0.5-0.1-0.6l3.7-2.1c0.3-0.2,0.8-0.2,1.1,0l5.4,3c0.3,0.2,0.3,0.5,0.1,0.6 l-3.7,2.1C32.4,16.2,32,16.2,31.7,16z"></path> <path class="st3" d="M38.8,20l-5.4-3c-0.3-0.2-0.3-0.5-0.1-0.6l3.7-2.1c0.3-0.2,0.8-0.2,1.1,0l5.4,3c0.3,0.2,0.3,0.5,0.1,0.6 l-3.7,2.1C39.5,20.2,39.1,20.2,38.8,20z"></path> <path class="st3" d="M45.9,24l-5.4-3c-0.3-0.2-0.3-0.5-0.1-0.6l3.7-2.1c0.3-0.2,0.8-0.1,1.1,0l5.4,3c0.3,0.2,0.3,0.5,0.1,0.6 L47,24C46.7,24.2,46.2,24.2,45.9,24z"></path> <path class="st3" d="M53,28l-5.4-3c-0.3-0.2-0.3-0.5-0.1-0.6l3.7-2.1c0.3-0.2,0.8-0.2,1.1,0l5.4,3c0.3,0.2,0.3,0.5,0.1,0.6 L54.1,28C53.8,28.2,53.3,28.2,53,28z"></path> <path class="st3" d="M60.1,32l-5.4-3c-0.3-0.2-0.3-0.5-0.1-0.6l3.7-2.1c0.3-0.2,0.8-0.1,1.1,0l5.4,3c0.3,0.2,0.3,0.5,0.1,0.6 L61.2,32C60.9,32.1,60.4,32.1,60.1,32z"></path> <path class="st3" d="M67.2,35.9l-5.4-3c-0.3-0.2-0.3-0.5-0.1-0.6l3.7-2.1c0.3-0.2,0.8-0.1,1.1,0l5.4,3c0.3,0.2,0.3,0.5,0.1,0.6 L68.3,36C68,36.1,67.6,36.1,67.2,35.9z"></path> <path class="st3" d="M74.3,39.9l-5.4-3c-0.3-0.2-0.3-0.5-0.1-0.6l3.7-2.1c0.3-0.2,0.8-0.2,1.1,0l5.4,3c0.3,0.2,0.3,0.5,0.1,0.6 L75.4,40C75.1,40.1,74.7,40.1,74.3,39.9z"></path> <path class="st3" d="M81.4,43.9l-5.4-3c-0.3-0.2-0.3-0.5-0.1-0.6l3.7-2.1c0.3-0.2,0.8-0.1,1.1,0l5.4,3c0.3,0.2,0.3,0.5,0.1,0.6 l-3.7,2.1C82.2,44.1,81.8,44.1,81.4,43.9z"></path> <path class="st3" d="M88.5,47.9l-5.4-3c-0.3-0.2-0.3-0.5-0.1-0.6l3.7-2.1c0.3-0.2,0.8-0.1,1.1,0l5.4,3c0.3,0.2,0.3,0.5,0.1,0.6 l-3.7,2.1C89.3,48.1,88.9,48.1,88.5,47.9z"></path> <path class="st3" d="M95.6,51.9l-5.4-3c-0.3-0.2-0.3-0.5-0.1-0.6l3.7-2.1c0.3-0.2,0.8-0.2,1.1,0l5.4,3c0.3,0.2,0.3,0.5,0.1,0.6 l-3.7,2.1C96.4,52,96,52,95.6,51.9z"></path> <path class="st3" d="M102.7,55.8l-5.4-3c-0.3-0.2-0.3-0.5-0.1-0.6l3.7-2.1c0.3-0.2,0.8-0.1,1.1,0l5.4,3c0.3,0.2,0.3,0.5,0.1,0.6 l-3.7,2.1C103.5,56,103.1,56,102.7,55.8z"></path> <path class="st3" d="M109.8,59.8l-5.4-3c-0.3-0.2-0.3-0.5-0.1-0.6l3.7-2.1c0.3-0.2,0.8-0.1,1.1,0l5.4,3c0.3,0.2,0.3,0.5,0.1,0.6 l-3.7,2.1C110.6,60,110.2,60,109.8,59.8z"></path> <path class="st3" d="M116.9,63.8l-5.4-3c-0.3-0.2-0.3-0.5-0.1-0.6l3.7-2.1c0.3-0.2,0.8-0.1,1.1,0l5.4,3c0.3,0.2,0.3,0.5,0.1,0.6 l-3.7,2.1C117.7,64,117.3,64,116.9,63.8z"></path> <path class="st3" d="M135.2,74l-4.2-2.3c-0.3-0.2-0.3-0.5-0.1-0.6l3.7-2.1c0.3-0.2,0.8-0.1,1.1,0l4.2,2.3 c0.3,0.2,0.3,0.5,0.1,0.6l-3.7,2.1C135.9,74.2,135.5,74.2,135.2,74z"></path> <path class="st3" d="M141,77.3l-4.2-2.3c-0.3-0.2-0.3-0.5-0.1-0.6l3.7-2.1c0.3-0.2,0.8-0.1,1.1,0l4.2,2.3 c0.3,0.2,0.3,0.5,0.1,0.6l-3.7,2.1C141.7,77.5,141.3,77.5,141,77.3z"></path> <path class="st3" d="M146.8,80.5l-4.2-2.3c-0.3-0.2-0.3-0.5-0.1-0.6l3.7-2.1c0.3-0.2,0.8-0.1,1.1,0l4.2,2.3 c0.3,0.2,0.3,0.5,0.1,0.6l-3.7,2.1C147.5,80.7,147.1,80.7,146.8,80.5z"></path> <path class="st3" d="M152.6,83.8l-4.2-2.3c-0.3-0.2-0.3-0.5-0.1-0.6l3.7-2.1c0.3-0.2,0.8-0.2,1.1,0l4.2,2.3 c0.3,0.2,0.3,0.5,0.1,0.6l-3.7,2.1C153.3,84,152.9,84,152.6,83.8z"></path> <path class="st3" d="M128.7,77.7l-4.2-2.3c-0.3-0.2-0.3-0.5-0.1-0.6l3.7-2.1c0.3-0.2,0.8-0.1,1.1,0l4.2,2.3 c0.3,0.2,0.3,0.5,0.1,0.6l-3.7,2.1C129.4,77.9,129,77.9,128.7,77.7z"></path> <path class="st3" d="M134.5,80.9l-4.2-2.3c-0.3-0.2-0.3-0.5-0.1-0.6l3.7-2.1c0.3-0.2,0.8-0.1,1.1,0l4.2,2.3 c0.3,0.2,0.3,0.5,0.1,0.6l-3.7,2.1C135.2,81.1,134.8,81.1,134.5,80.9z"></path> <path class="st3" d="M140.3,84.2l-4.2-2.3c-0.3-0.2-0.3-0.5-0.1-0.6l3.7-2.1c0.3-0.2,0.8-0.1,1.1,0l4.2,2.3 c0.3,0.2,0.3,0.5,0.1,0.6l-3.7,2.1C141,84.4,140.6,84.4,140.3,84.2z"></path> <path class="st3" d="M122.2,81.3L118,79c-0.3-0.2-0.3-0.5-0.1-0.6l3.7-2.1c0.3-0.2,0.8-0.2,1.1,0l4.2,2.3 c0.3,0.2,0.3,0.5,0.1,0.6l-3.7,2.1C123,81.5,122.6,81.5,122.2,81.3z"></path> <path class="st3" d="M128,84.6l-4.2-2.3c-0.3-0.2-0.3-0.5-0.1-0.6l3.7-2.1c0.3-0.2,0.8-0.1,1.1,0l4.2,2.3 c0.3,0.2,0.3,0.5,0.1,0.6l-3.7,2.1C128.8,84.8,128.4,84.8,128,84.6z"></path> <path class="st3" d="M133.8,87.8l-4.2-2.3c-0.3-0.2-0.3-0.5-0.1-0.6l3.7-2.1c0.3-0.2,0.8-0.1,1.1,0l4.2,2.3 c0.3,0.2,0.3,0.5,0.1,0.6l-3.7,2.1C134.6,88,134.2,88,133.8,87.8z"></path> <path class="st3" d="M139.6,91.1l-4.2-2.3c-0.3-0.2-0.3-0.5-0.1-0.6l10.2-5.7c0.3-0.2,0.8-0.1,1.1,0l4.2,2.3 c0.3,0.2,0.3,0.5,0.1,0.6l-10.2,5.7C140.4,91.3,140,91.3,139.6,91.1z"></path> <path class="st3" d="M115.7,85l-4.2-2.3c-0.3-0.2-0.3-0.5-0.1-0.6l3.7-2.1c0.3-0.2,0.8-0.2,1.1,0l4.2,2.3 c0.3,0.2,0.3,0.5,0.1,0.6l-3.7,2.1C116.5,85.2,116.1,85.1,115.7,85z"></path> <path class="st3" d="M121.5,88.2l-4.2-2.3c-0.3-0.2-0.3-0.5-0.1-0.6l3.7-2.1c0.3-0.2,0.8-0.1,1.1,0l4.2,2.3 c0.3,0.2,0.3,0.5,0.1,0.6l-3.7,2.1C122.3,88.4,121.9,88.4,121.5,88.2z"></path> <path class="st3" d="M127.3,91.5l-4.2-2.3c-0.3-0.2-0.3-0.5-0.1-0.6l3.7-2.1c0.3-0.2,0.8-0.1,1.1,0l4.2,2.3 c0.3,0.2,0.3,0.5,0.1,0.6l-3.7,2.1C128.1,91.7,127.7,91.6,127.3,91.5z"></path> <path class="st3" d="M109.2,88.6l-4.2-2.3c-0.3-0.2-0.3-0.5-0.1-0.6l3.7-2.1c0.3-0.2,0.8-0.1,1.1,0l4.2,2.3 c0.3,0.2,0.3,0.5,0.1,0.6l-3.7,2.1C110,88.8,109.6,88.8,109.2,88.6z"></path> <path class="st3" d="M115,91.9l-4.2-2.3c-0.3-0.2-0.3-0.5-0.1-0.6l3.7-2.1c0.3-0.2,0.8-0.1,1.1,0l4.2,2.3 c0.3,0.2,0.3,0.5,0.1,0.6l-3.7,2.1C115.8,92,115.4,92,115,91.9z"></path> <path class="st3" d="M120.8,95.1l-4.2-2.3c-0.3-0.2-0.3-0.5-0.1-0.6l3.7-2.1c0.3-0.2,0.8-0.1,1.1,0l4.2,2.3 c0.3,0.2,0.3,0.5,0.1,0.6l-3.7,2.1C121.6,95.3,121.2,95.3,120.8,95.1z"></path> <path class="st3" d="M126.6,98.4l-4.2-2.3c-0.3-0.2-0.3-0.5-0.1-0.6l10.2-5.7c0.3-0.2,0.8-0.2,1.1,0l4.2,2.3 c0.3,0.2,0.3,0.5,0.1,0.6l-10.2,5.7C127.4,98.5,127,98.5,126.6,98.4z"></path> <path class="st3" d="M128.6,70.3l-10-5.6c-0.3-0.2-0.3-0.5-0.1-0.6l3.7-2.1c0.3-0.2,0.8-0.1,1.1,0l10,5.6 c0.3,0.2,0.3,0.5,0.1,0.6l-3.7,2.1C129.3,70.5,128.9,70.5,128.6,70.3z"></path> <path class="st3" d="M42.5,10l-5.4-3c-0.3-0.2-0.3-0.5-0.1-0.6l3.7-2.1c0.3-0.2,0.8-0.1,1.1,0l5.4,3c0.3,0.2,0.3,0.5,0.1,0.6 L43.6,10C43.2,10.2,42.8,10.2,42.5,10z"></path> <path class="st3" d="M49.6,14l-5.4-3c-0.3-0.2-0.3-0.5-0.1-0.6l3.7-2.1c0.3-0.2,0.8-0.1,1.1,0l5.4,3c0.3,0.2,0.3,0.5,0.1,0.6 L50.7,14C50.3,14.2,49.9,14.2,49.6,14z"></path> <path class="st3" d="M56.7,18l-5.4-3c-0.3-0.2-0.3-0.5-0.1-0.6l3.7-2.1c0.3-0.2,0.8-0.2,1.1,0l5.4,3c0.3,0.2,0.3,0.5,0.1,0.6 L57.8,18C57.4,18.1,57,18.1,56.7,18z"></path> <path class="st3" d="M63.8,21.9l-5.4-3c-0.3-0.2-0.3-0.5-0.1-0.6l3.7-2.1c0.3-0.2,0.8-0.1,1.1,0l5.4,3c0.3,0.2,0.3,0.5,0.1,0.6 L64.9,22C64.5,22.1,64.1,22.1,63.8,21.9z"></path> <path class="st3" d="M70.9,25.9l-5.4-3c-0.3-0.2-0.3-0.5-0.1-0.6l3.7-2.1c0.3-0.2,0.8-0.1,1.1,0l5.4,3c0.3,0.2,0.3,0.5,0.1,0.6 L72,25.9C71.6,26.1,71.2,26.1,70.9,25.9z"></path> <path class="st3" d="M78,29.9l-5.4-3c-0.3-0.2-0.3-0.5-0.1-0.6l3.7-2.1c0.3-0.2,0.8-0.2,1.1,0l5.4,3c0.3,0.2,0.3,0.5,0.1,0.6 l-3.7,2.1C78.7,30.1,78.3,30.1,78,29.9z"></path> <path class="st3" d="M85.1,33.9l-5.4-3c-0.3-0.2-0.3-0.5-0.1-0.6l3.7-2.1c0.3-0.2,0.8-0.1,1.1,0l5.4,3c0.3,0.2,0.3,0.5,0.1,0.6 l-3.7,2.1C85.9,34.1,85.4,34,85.1,33.9z"></path> <path class="st3" d="M92.2,37.9l-5.4-3c-0.3-0.2-0.3-0.5-0.1-0.6l3.7-2.1c0.3-0.2,0.8-0.1,1.1,0l5.4,3c0.3,0.2,0.3,0.5,0.1,0.6 l-3.7,2.1C93,38,92.5,38,92.2,37.9z"></path> <path class="st3" d="M99.3,41.8l-5.4-3c-0.3-0.2-0.3-0.5-0.1-0.6l3.7-2.1c0.3-0.2,0.8-0.1,1.1,0l5.4,3c0.3,0.2,0.3,0.5,0.1,0.6 l-3.7,2.1C100.1,42,99.6,42,99.3,41.8z"></path> <path class="st3" d="M106.4,45.8l-5.4-3c-0.3-0.2-0.3-0.5-0.1-0.6l3.7-2.1c0.3-0.2,0.8-0.1,1.1,0l5.4,3c0.3,0.2,0.3,0.5,0.1,0.6 l-3.7,2.1C107.2,46,106.7,46,106.4,45.8z"></path> <path class="st3" d="M113.5,49.8l-5.4-3c-0.3-0.2-0.3-0.5-0.1-0.6l3.7-2.1c0.3-0.2,0.8-0.1,1.1,0l5.4,3c0.3,0.2,0.3,0.5,0.1,0.6 l-3.7,2.1C114.3,50,113.9,50,113.5,49.8z"></path> <path class="st3" d="M120.6,53.8l-5.4-3c-0.3-0.2-0.3-0.5-0.1-0.6l3.7-2.1c0.3-0.2,0.8-0.1,1.1,0l5.4,3c0.3,0.2,0.3,0.5,0.1,0.6 l-3.7,2.1C121.4,54,121,53.9,120.6,53.8z"></path> <path class="st3" d="M127.7,57.7l-5.4-3c-0.3-0.2-0.3-0.5-0.1-0.6l3.7-2.1c0.3-0.2,0.8-0.1,1.1,0l5.4,3c0.3,0.2,0.3,0.5,0.1,0.6 l-3.7,2.1C128.5,57.9,128.1,57.9,127.7,57.7z"></path> <path class="st3" d="M146,68l-4.2-2.3c-0.3-0.2-0.3-0.5-0.1-0.6l3.7-2.1c0.3-0.2,0.8-0.1,1.1,0l4.2,2.3c0.3,0.2,0.3,0.5,0.1,0.6 l-3.7,2.1C146.7,68.2,146.3,68.2,146,68z"></path> <path class="st3" d="M151.8,71.2l-4.2-2.3c-0.3-0.2-0.3-0.5-0.1-0.6l3.7-2.1c0.3-0.2,0.8-0.2,1.1,0l4.2,2.3 c0.3,0.2,0.3,0.5,0.1,0.6l-3.7,2.1C152.5,71.4,152.1,71.4,151.8,71.2z"></path> <path class="st3" d="M157.6,74.5l-4.2-2.3c-0.3-0.2-0.3-0.5-0.1-0.6l3.7-2.1c0.3-0.2,0.8-0.1,1.1,0l4.2,2.3 c0.3,0.2,0.3,0.5,0.1,0.6l-3.7,2.1C158.3,74.7,157.9,74.7,157.6,74.5z"></path> <path class="st3" d="M163.4,77.7l-4.2-2.3c-0.3-0.2-0.3-0.5-0.1-0.6l3.7-2.1c0.3-0.2,0.8-0.1,1.1,0l4.2,2.3 c0.3,0.2,0.3,0.5,0.1,0.6l-3.7,2.1C164.1,77.9,163.7,77.9,163.4,77.7z"></path> <path class="st3" d="M139.4,64.3l-10-5.6c-0.3-0.2-0.3-0.5-0.1-0.6L133,56c0.3-0.2,0.8-0.1,1.1,0l10,5.6 c0.3,0.2,0.3,0.5,0.1,0.6l-3.7,2.1C140.1,64.5,139.7,64.4,139.4,64.3z"></path> <path class="st3" d="M28.5,21.5l-8.7-4.9c-0.3-0.2-0.3-0.5-0.1-0.6l3.7-2.1c0.3-0.2,0.8-0.2,1.1,0l8.7,4.9 c0.3,0.2,0.3,0.5,0.1,0.6l-3.7,2.1C29.3,21.7,28.9,21.7,28.5,21.5z"></path> <path class="st3" d="M35.6,25.5l-5.4-3c-0.3-0.2-0.3-0.5-0.1-0.6l3.7-2.1c0.3-0.2,0.8-0.2,1.1,0l5.4,3c0.3,0.2,0.3,0.5,0.1,0.6 l-3.7,2.1C36.4,25.7,35.9,25.7,35.6,25.5z"></path> <path class="st3" d="M42.7,29.5l-5.4-3c-0.3-0.2-0.3-0.5-0.1-0.6l3.7-2.1c0.3-0.2,0.8-0.1,1.1,0l5.4,3c0.3,0.2,0.3,0.5,0.1,0.6 l-3.7,2.1C43.5,29.7,43.1,29.7,42.7,29.5z"></path> <path class="st3" d="M49.8,33.5l-5.4-3c-0.3-0.2-0.3-0.5-0.1-0.6l3.7-2.1c0.3-0.2,0.8-0.1,1.1,0l5.4,3c0.3,0.2,0.3,0.5,0.1,0.6 l-3.7,2.1C50.6,33.7,50.2,33.6,49.8,33.5z"></path> <path class="st3" d="M56.9,37.5l-5.4-3c-0.3-0.2-0.3-0.5-0.1-0.6l3.7-2.1c0.3-0.2,0.8-0.1,1.1,0l5.4,3c0.3,0.2,0.3,0.5,0.1,0.6 L58,37.5C57.7,37.6,57.3,37.6,56.9,37.5z"></path> <path class="st3" d="M64,41.4l-5.4-3c-0.3-0.2-0.3-0.5-0.1-0.6l3.7-2.1c0.3-0.2,0.8-0.1,1.1,0l5.4,3c0.3,0.2,0.3,0.5,0.1,0.6 l-3.7,2.1C64.8,41.6,64.4,41.6,64,41.4z"></path> <path class="st3" d="M71.1,45.4l-5.4-3c-0.3-0.2-0.3-0.5-0.1-0.6l3.7-2.1c0.3-0.2,0.8-0.1,1.1,0l5.4,3c0.3,0.2,0.3,0.5,0.1,0.6 l-3.7,2.1C71.9,45.6,71.5,45.6,71.1,45.4z"></path> <path class="st3" d="M78.2,49.4l-5.4-3c-0.3-0.2-0.3-0.5-0.1-0.6l3.7-2.1c0.3-0.2,0.8-0.2,1.1,0l5.4,3c0.3,0.2,0.3,0.5,0.1,0.6 l-3.7,2.1C79,49.6,78.6,49.6,78.2,49.4z"></path> <path class="st3" d="M85.3,53.4l-5.4-3c-0.3-0.2-0.3-0.5-0.1-0.6l3.7-2.1c0.3-0.2,0.8-0.1,1.1,0l5.4,3c0.3,0.2,0.3,0.5,0.1,0.6 l-3.7,2.1C86.1,53.6,85.7,53.5,85.3,53.4z"></path> <path class="st3" d="M92.4,57.3l-5.4-3c-0.3-0.2-0.3-0.5-0.1-0.6l3.7-2.1c0.3-0.2,0.8-0.2,1.1,0l5.4,3c0.3,0.2,0.3,0.5,0.1,0.6 l-3.7,2.1C93.2,57.5,92.8,57.5,92.4,57.3z"></path> <path class="st3" d="M99.5,61.3l-5.4-3.1c-0.3-0.2-0.3-0.5-0.1-0.6l3.7-2.1c0.3-0.2,0.8-0.1,1.1,0l5.4,3 c0.3,0.2,0.3,0.5,0.1,0.6l-3.7,2.1C100.3,61.5,99.9,61.5,99.5,61.3z"></path> <path class="st3" d="M106.6,65.3l-5.4-3c-0.3-0.2-0.3-0.5-0.1-0.6l3.7-2.1c0.3-0.2,0.8-0.2,1.1,0l5.4,3c0.3,0.2,0.3,0.5,0.1,0.6 l-3.7,2.1C107.4,65.5,107,65.5,106.6,65.3z"></path> <path class="st3" d="M113.7,69.3l-5.4-3c-0.3-0.2-0.3-0.5-0.1-0.6l3.7-2.1c0.3-0.2,0.8-0.2,1.1,0l5.4,3c0.3,0.2,0.3,0.5,0.1,0.6 l-3.7,2.1C114.5,69.5,114.1,69.5,113.7,69.3z"></path> <path class="st3" d="M122.1,74l-6.7-3.7c-0.3-0.2-0.3-0.5-0.1-0.6l3.7-2.1c0.3-0.2,0.8-0.1,1.1,0l6.7,3.7 c0.3,0.2,0.3,0.5,0.1,0.6l-3.7,2.1C122.8,74.2,122.4,74.1,122.1,74z"></path> <path class="st3" d="M23.9,26.2l-10.8-6c-0.3-0.2-0.3-0.5-0.1-0.6l3.7-2.1c0.3-0.2,0.8-0.1,1.1,0l10.8,6 c0.3,0.2,0.3,0.5,0.1,0.6L25,26.2C24.7,26.4,24.3,26.4,23.9,26.2z"></path> <path class="st3" d="M31,30.2l-5.4-3c-0.3-0.2-0.3-0.5-0.1-0.6l3.7-2.1c0.3-0.2,0.8-0.1,1.1,0l5.4,3c0.3,0.2,0.3,0.5,0.1,0.6 l-3.7,2.1C31.8,30.4,31.4,30.4,31,30.2z"></path> <path class="st3" d="M38.1,34.2l-5.4-3c-0.3-0.2-0.3-0.5-0.1-0.6l3.7-2.1c0.3-0.2,0.8-0.1,1.1,0l5.4,3c0.3,0.2,0.3,0.5,0.1,0.6 l-3.7,2.1C38.9,34.4,38.5,34.4,38.1,34.2z"></path> <path class="st3" d="M45.2,38.2l-5.4-3c-0.3-0.2-0.3-0.5-0.1-0.6l3.7-2.1c0.3-0.2,0.8-0.1,1.1,0l5.4,3c0.3,0.2,0.3,0.5,0.1,0.6 l-3.7,2.1C46,38.3,45.6,38.3,45.2,38.2z"></path> <path class="st3" d="M52.3,42.1l-5.4-3c-0.3-0.2-0.3-0.5-0.1-0.6l3.7-2.1c0.3-0.2,0.8-0.1,1.1,0l5.4,3c0.3,0.2,0.3,0.5,0.1,0.6 l-3.7,2.1C53.1,42.3,52.7,42.3,52.3,42.1z"></path> <path class="st3" d="M59.4,46.1l-5.4-3c-0.3-0.2-0.3-0.5-0.1-0.6l3.7-2.1c0.3-0.2,0.8-0.1,1.1,0l5.4,3c0.3,0.2,0.3,0.5,0.1,0.6 l-3.7,2.1C60.2,46.3,59.8,46.3,59.4,46.1z"></path> <path class="st3" d="M66.5,50.1l-5.4-3c-0.3-0.2-0.3-0.5-0.1-0.6l3.7-2.1c0.3-0.2,0.8-0.1,1.1,0l5.4,3c0.3,0.2,0.3,0.5,0.1,0.6 l-3.7,2.1C67.3,50.3,66.9,50.3,66.5,50.1z"></path> <path class="st3" d="M73.7,54.1l-5.4-3c-0.3-0.2-0.3-0.5-0.1-0.6l3.7-2.1c0.3-0.2,0.8-0.1,1.1,0l5.4,3c0.3,0.2,0.3,0.5,0.1,0.6 l-3.7,2.1C74.4,54.3,74,54.3,73.7,54.1z"></path> <path class="st3" d="M80.8,58.1l-5.4-3c-0.3-0.2-0.3-0.5-0.1-0.6l3.7-2.1c0.3-0.2,0.8-0.1,1.1,0l5.4,3c0.3,0.2,0.3,0.5,0.1,0.6 l-3.7,2.1C81.5,58.2,81.1,58.2,80.8,58.1z"></path> <path class="st3" d="M87.9,62l-5.4-3c-0.3-0.2-0.3-0.5-0.1-0.6l3.7-2.1c0.3-0.2,0.8-0.1,1.1,0l5.4,3c0.3,0.2,0.3,0.5,0.1,0.6 l-3.7,2.1C88.6,62.2,88.2,62.2,87.9,62z"></path> <path class="st3" d="M95,66l-5.4-3c-0.3-0.2-0.3-0.5-0.1-0.6l3.7-2.1c0.3-0.2,0.8-0.1,1.1,0l5.4,3c0.3,0.2,0.3,0.5,0.1,0.6 L96,66C95.7,66.2,95.3,66.2,95,66z"></path> <path class="st3" d="M102.1,70l-5.4-3c-0.3-0.2-0.3-0.5-0.1-0.6l3.7-2.1c0.3-0.2,0.8-0.1,1.1,0l5.4,3c0.3,0.2,0.3,0.5,0.1,0.6 l-3.7,2.1C102.8,70.2,102.4,70.2,102.1,70z"></path> <path class="st3" d="M109.2,74l-5.4-3c-0.3-0.2-0.3-0.5-0.1-0.6l3.7-2.1c0.3-0.2,0.8-0.2,1.1,0l5.4,3c0.3,0.2,0.3,0.5,0.1,0.6 l-3.7,2.1C109.9,74.2,109.5,74.2,109.2,74z"></path> <path class="st3" d="M115.6,77.6l-11.9-6.7c-0.3-0.2-0.3-0.5-0.1-0.6l3.7-2.1c0.3-0.2,0.8-0.2,1.1,0l11.9,6.7 c0.3,0.2,0.3,0.5,0.1,0.6l-3.7,2.1C116.4,77.8,116,77.8,115.6,77.6z"></path> <path class="st3" d="M19.4,30.9L6.7,23.8c-0.3-0.2-0.3-0.5-0.1-0.6l3.7-2.1c0.3-0.2,0.8-0.1,1.1,0l12.7,7.1 c0.3,0.2,0.3,0.5,0.1,0.6l-3.7,2.1C20.1,31.1,19.7,31.1,19.4,30.9z"></path> <path class="st3" d="M26.5,34.9l-5.4-3c-0.3-0.2-0.3-0.5-0.1-0.6l3.7-2.1c0.3-0.2,0.8-0.2,1.1,0l5.4,3c0.3,0.2,0.3,0.5,0.1,0.6 l-3.7,2.1C27.2,35.1,26.8,35.1,26.5,34.9z"></path> <path class="st3" d="M33.6,38.9l-5.4-3c-0.3-0.2-0.3-0.5-0.1-0.6l3.7-2.1c0.3-0.2,0.8-0.1,1.1,0l5.4,3c0.3,0.2,0.3,0.5,0.1,0.6 l-3.7,2.1C34.3,39.1,33.9,39,33.6,38.9z"></path> <path class="st3" d="M40.7,42.8l-5.4-3c-0.3-0.2-0.3-0.5-0.1-0.6l3.7-2.1c0.3-0.2,0.8-0.1,1.1,0l5.4,3c0.3,0.2,0.3,0.5,0.1,0.6 l-3.7,2.1C41.4,43,41,43,40.7,42.8z"></path> <path class="st3" d="M47.8,46.8l-5.4-3c-0.3-0.2-0.3-0.5-0.1-0.6l3.7-2.1c0.3-0.2,0.8-0.2,1.1,0l5.4,3c0.3,0.2,0.3,0.5,0.1,0.6 l-3.7,2.1C48.5,47,48.1,47,47.8,46.8z"></path> <path class="st3" d="M54.9,50.8l-5.4-3c-0.3-0.2-0.3-0.5-0.1-0.6l3.7-2.1c0.3-0.2,0.8-0.1,1.1,0l5.4,3c0.3,0.2,0.3,0.5,0.1,0.6 L56,50.8C55.6,51,55.2,51,54.9,50.8z"></path> <path class="st3" d="M62,54.8l-5.4-3c-0.3-0.2-0.3-0.5-0.1-0.6l3.7-2.1c0.3-0.2,0.8-0.1,1.1,0l5.4,3c0.3,0.2,0.3,0.5,0.1,0.6 l-3.7,2.1C62.7,55,62.3,55,62,54.8z"></path> <path class="st3" d="M69.1,58.8l-5.4-3c-0.3-0.2-0.3-0.5-0.1-0.6l3.7-2.1c0.3-0.2,0.8-0.1,1.1,0l5.4,3c0.3,0.2,0.3,0.5,0.1,0.6 l-3.7,2.1C69.8,59,69.4,58.9,69.1,58.8z"></path> <path class="st3" d="M76.2,62.7l-5.4-3c-0.3-0.2-0.3-0.5-0.1-0.6l3.7-2.1c0.3-0.2,0.8-0.1,1.1,0l5.4,3c0.3,0.2,0.3,0.5,0.1,0.6 l-3.7,2.1C76.9,62.9,76.5,62.9,76.2,62.7z"></path> <path class="st3" d="M83.3,66.7l-5.4-3c-0.3-0.2-0.3-0.5-0.1-0.6l3.7-2.1c0.3-0.2,0.8-0.1,1.1,0l5.4,3c0.3,0.2,0.3,0.5,0.1,0.6 l-3.7,2.1C84,66.9,83.6,66.9,83.3,66.7z"></path> <path class="st3" d="M90.4,70.7l-5.4-3c-0.3-0.2-0.3-0.5-0.1-0.6l3.7-2.1c0.3-0.2,0.8-0.1,1.1,0l5.4,3c0.3,0.2,0.3,0.5,0.1,0.6 l-3.7,2.1C91.1,70.9,90.7,70.9,90.4,70.7z"></path> <path class="st3" d="M97.5,74.7l-5.4-3c-0.3-0.2-0.3-0.5-0.1-0.6l3.7-2.1c0.3-0.2,0.8-0.1,1.1,0l5.4,3c0.3,0.2,0.3,0.5,0.1,0.6 l-3.7,2.1C98.2,74.9,97.8,74.9,97.5,74.7z"></path> <path class="st3" d="M109.2,81.2l-10-5.6c-0.3-0.2-0.3-0.5-0.1-0.6l3.7-2.1c0.3-0.2,0.8-0.2,1.1,0l10,5.6 c0.3,0.2,0.3,0.5,0.1,0.6l-3.7,2.1C109.9,81.4,109.5,81.4,109.2,81.2z"></path> <path class="st3" d="M14.8,35.6L0.3,27.4c-0.3-0.2-0.3-0.5-0.1-0.6l3.7-2.1c0.3-0.2,0.8-0.1,1.1,0l14.5,8.2 c0.3,0.2,0.3,0.5,0.1,0.6l-3.7,2.1C15.5,35.8,15.1,35.8,14.8,35.6z"></path> <path class="st3" d="M21.9,39.6l-5.4-3c-0.3-0.2-0.3-0.5-0.1-0.6l3.7-2.1c0.3-0.2,0.8-0.1,1.1,0l5.4,3c0.3,0.2,0.3,0.5,0.1,0.6 L23,39.6C22.6,39.8,22.2,39.8,21.9,39.6z"></path> <path class="st3" d="M29,43.6l-5.4-3c-0.3-0.2-0.3-0.5-0.1-0.6l3.7-2.1c0.3-0.2,0.8-0.2,1.1,0l5.4,3c0.3,0.2,0.3,0.5,0.1,0.6 l-3.7,2.1C29.7,43.7,29.3,43.7,29,43.6z"></path> <path class="st3" d="M64.5,63.4l-34-18.8c-0.3-0.2-0.3-0.5-0.1-0.6l3.7-2.1c0.3-0.2,0.8-0.1,1.1,0l34,18.8 c0.3,0.2,0.3,0.5,0.1,0.6l-3.7,2.1C65.3,63.6,64.9,63.6,64.5,63.4z"></path> <path class="st3" d="M71.6,67.4l-5.4-3c-0.3-0.2-0.3-0.5-0.1-0.6l3.7-2.1c0.3-0.2,0.8-0.1,1.1,0l5.4,3c0.3,0.2,0.3,0.5,0.1,0.6 l-3.7,2.1C72.4,67.6,72,67.6,71.6,67.4z"></path> <path class="st3" d="M78.7,71.4l-5.4-3c-0.3-0.2-0.3-0.5-0.1-0.6l3.7-2.1c0.3-0.2,0.8-0.1,1.1,0l5.4,3c0.3,0.2,0.3,0.5,0.1,0.6 l-3.7,2.1C79.5,71.6,79.1,71.6,78.7,71.4z"></path> <path class="st3" d="M85.8,75.4l-5.4-3c-0.3-0.2-0.3-0.5-0.1-0.6l3.7-2.1c0.3-0.2,0.8-0.1,1.1,0l5.4,3c0.3,0.2,0.3,0.5,0.1,0.6 l-3.7,2.1C86.6,75.6,86.2,75.6,85.8,75.4z"></path> <path class="st3" d="M92.9,79.4l-5.4-3c-0.3-0.2-0.3-0.5-0.1-0.6l3.7-2.1c0.3-0.2,0.8-0.1,1.1,0l5.4,3c0.3,0.2,0.3,0.5,0.1,0.6 L94,79.4C93.7,79.6,93.3,79.6,92.9,79.4z"></path> <path class="st3" d="M102.7,84.9l-8.1-4.5c-0.3-0.2-0.3-0.5-0.1-0.6l3.7-2.1c0.3-0.2,0.8-0.1,1.1,0l8.1,4.5 c0.3,0.2,0.3,0.5,0.1,0.6l-3.7,2.1C103.4,85,103,85,102.7,84.9z"></path> <path class="st0" d="M52.5,88.9L19.1,70.1c-1.5-0.8-1.6-2.1-0.2-2.9l19-10.7c1.6-0.7,3.5-0.7,5.1,0.1l33.4,18.7 c1.5,0.8,1.6,2.1,0.2,2.9L57.6,89C56,89.7,54.1,89.7,52.5,88.9z"></path> <path class="st3" d="M58.6,5.6l-9.5-5.3c-0.7-0.3-1.5-0.4-2.1-0.1l0,0c-0.6,0.3-0.5,0.9,0.1,1.2l9.5,5.3 c0.7,0.3,1.5,0.4,2.1,0.1l0,0C59.3,6.5,59.2,6,58.6,5.6z"></path> </g> </g> <g transform="translate(224.992 89.674)" class="st4"> <path class="st5" d="M7.1,0.8C4.9-0.4,1.9,1.1,0.6,2C0.2,2.2,0,2.7,0,3.1l1.1,104.8c0,3.1,2.2,7.6,4.9,9.2l146.3,82.7 c0.7,0.4,1.6,0.4,2.3,0c2.5-1.5,3.6-2.4,3.6-5L157,91c-0.2-3.4-2-6.5-4.9-8.3L7.1,0.8z"></path> <path class="st6" d="M3.5,0.3C4,0,4.7-0.1,5.3,0l0,0c0.1,0,0.2,0,0.3,0.1c0,0,0.1,0,0.1,0c0.1,0,0.2,0.1,0.3,0.1l0.1,0 c0.2,0.1,146,82.3,146,82.3l0,0c0,0,0,0,0,0l0,0c2.8,1.8,4.6,4.8,4.9,8.1l0,0l1.1,104.5c0,1.1-0.4,2.2-1.1,3l0,0 c-0.1,0.1-0.2,0.2-0.3,0.2l-2.4,1.4c0.5-0.3,0.4-2.3,0.4-2.5l-1-104.4c0-0.3,0-0.7-0.1-1c-0.1-0.5-0.2-0.9-0.3-1.4 c0-0.1-0.1-0.2-0.1-0.3c0-0.1-0.1-0.2-0.1-0.3c-0.1-0.2-0.1-0.3-0.2-0.5c0,0,0,0,0-0.1c-0.1-0.2-0.2-0.4-0.3-0.6l0,0 c-0.2-0.4-0.4-0.8-0.7-1.1c0,0,0,0,0-0.1c-0.1-0.2-0.2-0.3-0.3-0.5c-0.1-0.2-0.3-0.3-0.4-0.5c-0.2-0.2-0.3-0.4-0.5-0.6 c-0.1-0.1-0.2-0.2-0.3-0.3c-0.2-0.2-0.4-0.4-0.6-0.5c-0.3-0.3-0.7-0.5-1-0.7l0,0c0,0-145.1-81.8-145.2-81.9 C2.4,2.2,1.1,1.9,0.4,2.4L3.5,0.3z"></path> <g transform="translate(140.461 81.632)"> <g transform="translate(7.408 4.789)"> <path class="st7" d="M1.2,0.2C0.5-0.2,0,0.1,0,0.9C0.1,1.7,0.5,2.5,1.2,3c0.7,0.4,1.2,0.1,1.2-0.7C2.4,1.4,1.9,0.6,1.2,0.2z"></path> </g> <g transform="translate(3.748 2.429)"> <path class="st7" d="M1.2,0.2C0.5-0.2,0,0.1,0,0.9c0,0.8,0.5,1.6,1.2,2.1C1.9,3.3,2.4,3,2.4,2.2C2.4,1.4,1.9,0.6,1.2,0.2z"></path> </g> <path class="st7" d="M1.2,0.2C0.5-0.2,0,0.1,0,0.9C0.1,1.7,0.5,2.5,1.2,3c0.7,0.4,1.2,0.1,1.2-0.7C2.4,1.4,1.9,0.6,1.2,0.2z"></path> </g> <path class="st8" d="M28.4,129.7L5.7,116.9c-2-1.1-4.8-3.4-4.6-11.2l-1-98l28,16.1L28.4,129.7z"></path> <path class="st5" d="M17.7,38.6c0-0.6-0.3-1.1-0.8-1.4L4.4,29.8c-0.2-0.1-0.4-0.2-0.6-0.1c-0.2,0.1-0.3,0.3-0.3,0.6 c0,0.6,0.3,1.1,0.8,1.4l12.5,7.4c0.2,0.2,0.6,0.2,0.8-0.1C17.7,38.9,17.7,38.8,17.7,38.6L17.7,38.6z"></path> <path class="st5" d="M17.7,43.2c0-0.6-0.3-1.1-0.8-1.4L4.4,34.4c-0.2-0.1-0.4-0.2-0.6-0.1c-0.2,0.1-0.3,0.4-0.3,0.6 c0,0.6,0.3,1.1,0.8,1.4l12.5,7.4c0.2,0.2,0.6,0.2,0.8-0.1C17.7,43.5,17.7,43.4,17.7,43.2L17.7,43.2z"></path> <path class="st5" d="M17.7,47.9c0-0.6-0.3-1.1-0.8-1.4L4.4,39.1c-0.2-0.1-0.4-0.2-0.6-0.1c-0.2,0.1-0.3,0.3-0.3,0.6 c0,0.3,0.1,0.6,0.2,0.8c0.1,0.3,0.3,0.5,0.6,0.6l12.5,7.4c0.2,0.2,0.6,0.2,0.8-0.1C17.7,48.2,17.7,48.1,17.7,47.9L17.7,47.9z"></path> <path class="st5" d="M17.7,52.5c0-0.6-0.3-1.1-0.8-1.4L4.4,43.7c-0.2-0.2-0.6-0.2-0.8,0.1c-0.1,0.1-0.2,0.3-0.1,0.5 c0,0.6,0.3,1.1,0.8,1.4L16.8,53c0.2,0.2,0.6,0.2,0.8-0.1C17.7,52.8,17.7,52.7,17.7,52.5z"></path> <path class="st5" d="M17.7,57.2c0-0.6-0.3-1.1-0.8-1.4L4.4,48.4c-0.2-0.2-0.6-0.2-0.8,0.1c-0.1,0.1-0.2,0.3-0.1,0.5 c0,0.6,0.3,1.1,0.8,1.4l12.5,7.4c0.2,0.1,0.4,0.2,0.6,0.1C17.6,57.7,17.7,57.4,17.7,57.2z"></path> <path class="st5" d="M17.7,61.8c0-0.6-0.3-1.1-0.8-1.4L4.4,53c-0.2-0.2-0.6-0.2-0.8,0.1c-0.1,0.1-0.2,0.3-0.1,0.5 c0,0.6,0.3,1.1,0.8,1.4l12.5,7.4c0.2,0.1,0.4,0.2,0.6,0.1C17.6,62.3,17.7,62.1,17.7,61.8z"></path> <path class="st5" d="M17.7,66.5c0-0.6-0.3-1.1-0.8-1.4L4.4,57.7c-0.2-0.2-0.6-0.2-0.8,0.1c-0.1,0.1-0.2,0.3-0.1,0.5 c0,0.3,0.1,0.6,0.2,0.8c0.1,0.3,0.3,0.5,0.6,0.6L16.8,67c0.2,0.2,0.6,0.2,0.8-0.1C17.7,66.8,17.7,66.7,17.7,66.5L17.7,66.5z"></path> <path class="st5" d="M17.7,71.1c0-0.6-0.3-1.1-0.8-1.4L4.4,62.3c-0.2-0.2-0.6-0.2-0.8,0.1c-0.1,0.1-0.2,0.3-0.1,0.5 c0,0.6,0.3,1.1,0.8,1.4l12.5,7.4c0.2,0.2,0.6,0.2,0.8-0.1C17.7,71.5,17.7,71.3,17.7,71.1L17.7,71.1z"></path> <path class="st5" d="M17.7,75.7c0-0.6-0.3-1.1-0.8-1.4L4.4,66.9c-0.2-0.1-0.4-0.2-0.6-0.1c-0.2,0.1-0.3,0.4-0.3,0.6 c0,0.6,0.3,1.1,0.8,1.4l12.5,7.4c0.2,0.1,0.4,0.2,0.6,0.1C17.6,76.1,17.7,75.9,17.7,75.7z"></path> <path class="st5" d="M17.7,80.4c0-0.6-0.3-1.1-0.8-1.4L4.4,71.6c-0.2-0.1-0.4-0.2-0.6-0.1c-0.2,0.1-0.3,0.4-0.3,0.6 c0,0.6,0.3,1.1,0.8,1.4l12.5,7.4c0.2,0.2,0.6,0.2,0.8-0.1C17.7,80.7,17.8,80.5,17.7,80.4L17.7,80.4z"></path> <path class="st5" d="M17.8,85c0-0.6-0.3-1.1-0.8-1.4L4.4,76.2C4.2,76,4,76,3.8,76.1c-0.2,0.1-0.3,0.4-0.3,0.6 c0,0.6,0.3,1.1,0.8,1.4l12.5,7.4c0.2,0.1,0.4,0.2,0.6,0.1C17.7,85.4,17.8,85.2,17.8,85z"></path> <path class="st5" d="M25.3,33.2c0-0.6-0.3-1.1-0.8-1.4L4.9,20.2C4.6,20,4.3,20,4.1,20.3C4,20.4,3.9,20.6,4,20.7 c0,0.6,0.3,1.1,0.8,1.4l19.6,11.5c0.2,0.2,0.6,0.2,0.8-0.1C25.3,33.5,25.3,33.3,25.3,33.2L25.3,33.2z"></path> <g transform="translate(34.015 38.945)"> <g transform="translate(0.261 0.247)"> <path class="st9" d="M0,0.4l0,11c0,0.5,0.3,1,0.8,1.3l84.5,48.5c0.2,0.1,0.4,0,0.5-0.2c0-0.1,0-0.1,0.1-0.2l0-11 c0-0.5-0.3-1-0.8-1.3L0.6,0.1C0.4-0.1,0.2,0,0.1,0.2C0.1,0.3,0,0.3,0,0.4z"></path> </g> <path class="st10" d="M26.8,15.2L0.8,0.1C0.6-0.1,0.4,0,0.3,0.2c0,0.1-0.1,0.1-0.1,0.2l0,11.4c0,0.6,0.3,1.1,0.8,1.4l26,14.7 L26.8,15.2z"></path> <path class="st10" d="M64.1,80.5c0-0.6-0.3-1.2-0.9-1.5L22.1,55.4c-0.2-0.1-0.4,0-0.5,0.2c0,0.1,0,0.1-0.1,0.2l-0.1,16.8 c0,0.5,0.3,1,0.8,1.3l40.3,23c0.5,0.3,1.2,0.1,1.5-0.4c0.1-0.2,0.1-0.4,0.1-0.6L64.1,80.5z"></path> <path class="st10" d="M86.6,113.5c0-0.6-0.3-1.2-0.9-1.5L42.5,87.3c-0.2-0.1-0.4,0-0.5,0.2c0,0.1,0,0.1-0.1,0.2l0,19.1 c0,0.5,0.3,1,0.8,1.3l42.5,24.4c0.5,0.3,1.2,0.1,1.5-0.4c0.1-0.2,0.1-0.4,0.1-0.6L86.6,113.5z"></path> <path class="st10" d="M38.4,85.9c0-0.6-0.3-1.2-0.9-1.5l-15.7-8.9c-0.2-0.1-0.4,0-0.5,0.2c0,0.1,0,0.1-0.1,0.2l0,19.1 c0,0.5,0.3,1,0.8,1.3l15.3,8.8c0.7,0.4,1.4-0.3,1.4-1.1L38.4,85.9z"></path> <g transform="translate(0.329 16.45)"> <g transform="translate(0.108 0.278)"> <path class="st9" d="M0,0.4l0.2,20.8c0.1,0.6,0.5,1.1,1,1.5l62.3,35.9c0.2,0.1,0.4,0,0.5-0.2c0-0.1,0-0.1,0.1-0.2l-0.2-20.8 c0-0.5-0.3-1-0.8-1.3L0.6,0.1C0.4-0.1,0.2,0,0.1,0.2C0,0.3,0,0.3,0,0.4z"></path> </g> <path class="st10" d="M36.1,20.7L0.6,0.1C0.4-0.1,0.2,0,0.1,0.2C0,0.3,0,0.3,0,0.4l0.2,21.3c0,0.6,0.3,1.1,0.8,1.3l35.5,20.2 L36.1,20.7z"></path> </g> <g transform="translate(0 42.375)"> <path class="st10" d="M0.1,0.4L0,40.4c0,0.5,0.3,1,0.8,1.3L18.4,52c0.2,0.1,0.4,0,0.5-0.2c0-0.1,0-0.1,0-0.2l0.1-40 c0-0.5-0.3-1-0.8-1.3L0.7,0.1C0.5-0.1,0.2,0,0.1,0.2C0.1,0.3,0.1,0.3,0.1,0.4z"></path> </g> <g transform="translate(66.761 54.515)"> <path class="st9" d="M0,0.4l0,42.1c0,0.5,0.3,1,0.8,1.3l18.5,10.6c0.2,0.1,0.4,0,0.5-0.2c0-0.1,0-0.1,0.1-0.2l0-42.1 c0-0.5-0.3-1-0.8-1.3L0.6,0.1C0.4-0.1,0.2,0,0.1,0.2C0.1,0.3,0,0.3,0,0.4z"></path> </g> <path class="st10" d="M86.7,100.1l0.1-33.6c0-0.5-0.3-1-0.8-1.3L67.3,54.4c-0.2-0.1-0.4,0-0.5,0.1c0,0.1-0.1,0.1-0.1,0.2l0,33.7 L86.7,100.1z"></path> <g transform="translate(89.256 51.327)"> <path class="st9" d="M0,0.4l0,81.9c0,0.5,0.3,1,0.8,1.3l20.4,11.7c0.2,0.1,0.4,0,0.5-0.2c0-0.1,0-0.1,0.1-0.2l0-81.9 c0-0.5-0.3-1-0.8-1.3L0.6,0.1C0.4-0.1,0.2,0,0.1,0.2C0,0.3,0,0.3,0,0.4z"></path> </g> <path class="st10" d="M111,112.9l0.1-48.6c0-0.5-0.3-1-0.8-1.3L89.8,51.2c-0.2-0.1-0.4,0-0.5,0.1c0,0.1-0.1,0.1-0.1,0.2 l0.1,48.7L111,112.9z"></path> <path class="st11" d="M81.1,53c0-0.9-0.5-1.8-1.3-2.3L68,44c-0.7-0.4-1.3-0.1-1.3,0.7c0,0.9,0.5,1.8,1.3,2.3l11.8,6.7 C80.5,54.1,81.1,53.8,81.1,53z"></path> <path class="st10" d="M62.4,40.8c0-0.6-0.3-1.1-0.8-1.4l-31.4-18c-0.4-0.3-0.8-0.1-0.8,0.5c0,0.6,0.3,1.1,0.8,1.4l31.4,18 C62,41.5,62.4,41.3,62.4,40.8z"></path> <path class="st10" d="M62.3,44c0-0.6-0.3-1.1-0.8-1.4l-31.4-18c-0.4-0.3-0.8-0.1-0.8,0.5c0,0.6,0.3,1.1,0.8,1.4l31.4,18 C62,44.7,62.3,44.5,62.3,44z"></path> <path class="st10" d="M59.6,56.9c0-0.6-0.3-1.1-0.8-1.4l-17.5-10c-0.4-0.3-0.8-0.1-0.8,0.5c0,0.6,0.3,1.1,0.8,1.4l17.5,10 C59.3,57.6,59.6,57.4,59.6,56.9z"></path> <path class="st10" d="M59.6,60.1c0-0.6-0.3-1.1-0.8-1.4l-17.5-10c-0.4-0.3-0.8-0.1-0.8,0.5c0,0.6,0.3,1.1,0.8,1.4l17.5,10 C59.2,60.8,59.6,60.6,59.6,60.1z"></path> <path class="st10" d="M109.8,123.9c0-0.6-0.3-1.1-0.8-1.4l-17.5-10c-0.4-0.3-0.8-0.1-0.8,0.5c0,0.6,0.3,1.1,0.8,1.4l17.5,10 C109.4,124.6,109.8,124.4,109.8,123.9z"></path> <path class="st10" d="M103.6,116.7c0-0.6-0.3-1.1-0.8-1.4l-11.4-6.6c-0.4-0.3-0.8-0.1-0.8,0.5c0,0.6,0.3,1.1,0.8,1.4l11.4,6.6 C103.2,117.4,103.6,117.2,103.6,116.7z"></path> <path class="st10" d="M109.7,127c0-0.6-0.3-1.1-0.8-1.4l-17.5-10c-0.4-0.3-0.8-0.1-0.8,0.5c0,0.6,0.3,1.1,0.8,1.4l17.5,10 C109.4,127.7,109.7,127.5,109.7,127z"></path> <path class="st11" d="M57.6,67.2c0-0.9-0.5-1.8-1.3-2.3l-11.8-6.7c-0.7-0.4-1.3-0.1-1.3,0.7c0,0.9,0.5,1.8,1.3,2.3l11.8,6.7 C57,68.3,57.6,68,57.6,67.2z"></path> <path class="st5" d="M14.9,59.1c0-0.6-0.3-1.1-0.8-1.4L5,52.5c-0.4-0.3-0.8-0.1-0.8,0.5c0,0.6,0.3,1.1,0.8,1.4l9.1,5.2 C14.5,59.8,14.9,59.6,14.9,59.1z"></path> <path class="st5" d="M14.9,62.3c0-0.6-0.3-1.1-0.8-1.4l-9.1-5.2c-0.4-0.3-0.8-0.1-0.8,0.5c0,0.6,0.3,1.1,0.8,1.4l9.1,5.2 C14.5,63,14.9,62.8,14.9,62.3z"></path> <path class="st5" d="M14.9,65.4c0-0.6-0.3-1.1-0.8-1.4L5,58.7c-0.4-0.3-0.8-0.1-0.8,0.5c0,0.6,0.3,1.1,0.8,1.4l9.1,5.2 C14.5,66.1,14.9,65.9,14.9,65.4z"></path> <path class="st5" d="M14.9,68.5c0-0.6-0.3-1.1-0.8-1.4l-9.1-5.2c-0.4-0.3-0.8-0.1-0.8,0.5c0,0.6,0.3,1.1,0.8,1.4l9.1,5.2 C14.5,69.2,14.9,69,14.9,68.5z"></path> <path class="st5" d="M14.9,71.6c0-0.6-0.3-1.1-0.8-1.4L5,65c-0.4-0.3-0.8-0.1-0.8,0.5c0,0.6,0.3,1.1,0.8,1.4l9.1,5.2 C14.5,72.3,14.9,72.1,14.9,71.6z"></path> <path class="st5" d="M14.9,74.8c0-0.6-0.3-1.1-0.8-1.4l-9.1-5.2c-0.4-0.3-0.8-0.1-0.8,0.5c0,0.6,0.3,1.1,0.8,1.4l9.1,5.2 C14.5,75.5,14.9,75.3,14.9,74.8z"></path> <path class="st5" d="M14.9,77.8c0-0.6-0.3-1.1-0.8-1.4L5,71.2c-0.4-0.3-0.8-0.1-0.8,0.5c0,0.6,0.3,1.1,0.8,1.4l9.1,5.2 C14.5,78.5,14.9,78.3,14.9,77.8z"></path> <path class="st5" d="M14.9,81c0-0.6-0.3-1.1-0.8-1.4l-9.1-5.2c-0.4-0.3-0.8-0.1-0.8,0.5c0,0.6,0.3,1.1,0.8,1.4l9.1,5.2 C14.5,81.7,14.9,81.5,14.9,81z"></path> <path class="st5" d="M14.9,84c0-0.6-0.3-1.1-0.8-1.4L5,77.4c-0.4-0.3-0.8-0.1-0.8,0.5c0,0.6,0.3,1.1,0.8,1.4l9.1,5.2 C14.5,84.8,14.9,84.6,14.9,84z"></path> <path class="st5" d="M14.9,87.2c0-0.6-0.3-1.1-0.8-1.4l-9.1-5.2c-0.4-0.3-0.8-0.1-0.8,0.5c0,0.6,0.3,1.1,0.8,1.4l9.1,5.2 C14.5,87.9,14.9,87.7,14.9,87.2z"></path> <path class="st5" d="M105.4,71.9c0-0.6-0.3-1.1-0.8-1.4l-9.1-5.2c-0.4-0.3-0.8-0.1-0.8,0.5c0,0.6,0.3,1.1,0.8,1.4l9.1,5.2 C105,72.6,105.4,72.4,105.4,71.9z"></path> <path class="st5" d="M105.4,75c0-0.6-0.3-1.1-0.8-1.4l-9.1-5.2c-0.4-0.3-0.8-0.1-0.8,0.5c0,0.6,0.3,1.1,0.8,1.4l9.1,5.2 C105,75.7,105.4,75.5,105.4,75z"></path> <path class="st5" d="M105.4,78.1c0-0.6-0.3-1.1-0.8-1.4l-9.1-5.2c-0.4-0.3-0.8-0.1-0.8,0.5c0,0.6,0.3,1.1,0.8,1.4l9.1,5.2 C105,78.8,105.4,78.6,105.4,78.1z"></path> <path class="st5" d="M105.4,81.3c0-0.6-0.3-1.1-0.8-1.4l-9.1-5.2c-0.4-0.3-0.8-0.1-0.8,0.5c0,0.6,0.3,1.1,0.8,1.4l9.1,5.2 C105,82,105.4,81.8,105.4,81.3z"></path> <path class="st5" d="M105.4,84.3c0-0.6-0.3-1.1-0.8-1.4l-9.1-5.2c-0.4-0.3-0.8-0.1-0.8,0.5c0,0.6,0.3,1.1,0.8,1.4l9.1,5.2 C105,85,105.4,84.8,105.4,84.3z"></path> <path class="st5" d="M105.4,87.5c0-0.6-0.3-1.1-0.8-1.4l-9.1-5.2c-0.4-0.3-0.8-0.1-0.8,0.5c0,0.6,0.3,1.1,0.8,1.4l9.1,5.2 C105,88.2,105.4,88,105.4,87.5z"></path> <path class="st5" d="M105.4,90.6c0-0.6-0.3-1.1-0.8-1.4l-9.1-5.2c-0.4-0.3-0.8-0.1-0.8,0.5c0,0.6,0.3,1.1,0.8,1.4l9.1,5.2 C105,91.3,105.4,91.1,105.4,90.6z"></path> <path class="st5" d="M105.4,93.7c0-0.6-0.3-1.1-0.8-1.4l-9.1-5.2c-0.4-0.3-0.8-0.1-0.8,0.5c0,0.6,0.3,1.1,0.8,1.4l9.1,5.2 C105,94.4,105.4,94.2,105.4,93.7z"></path> <path class="st5" d="M105.4,96.8c0-0.6-0.3-1.1-0.8-1.4l-9.1-5.2c-0.4-0.3-0.8-0.1-0.8,0.5c0,0.6,0.3,1.1,0.8,1.4l9.1,5.2 C105,97.5,105.4,97.3,105.4,96.8z"></path> <path class="st5" d="M105.4,100c0-0.6-0.3-1.1-0.8-1.4l-9.1-5.2c-0.4-0.3-0.8-0.1-0.8,0.5c0,0.6,0.3,1.1,0.8,1.4l9.1,5.2 C105,100.7,105.4,100.5,105.4,100z"></path> <path class="st5" d="M36.2,92.6c0-0.6-0.3-1.1-0.8-1.4L24.5,85c-0.4-0.3-0.8-0.1-0.8,0.5c0,0.6,0.3,1.1,0.8,1.4l10.9,6.2 C35.8,93.3,36.2,93.1,36.2,92.6z"></path> <path class="st5" d="M33.7,95.6c0-0.7-0.4-1.4-1-1.7l-6.1-3.5c-0.6-0.3-1-0.1-1,0.6c0,0.7,0.4,1.4,1,1.7l6.1,3.5 C33.3,96.5,33.7,96.2,33.7,95.6z"></path> <path class="st5" d="M71.1,115.3c0-0.6-0.3-1.1-0.8-1.4l-10.9-6.2c-0.4-0.3-0.8-0.1-0.8,0.5c0,0.6,0.3,1.1,0.8,1.4l10.9,6.2 C70.8,116.1,71.1,115.8,71.1,115.3z"></path> <path class="st5" d="M68.7,118.3c0-0.7-0.4-1.4-1-1.7l-6.1-3.5c-0.6-0.3-1-0.1-1,0.6c0,0.7,0.4,1.4,1,1.7l6.1,3.5 C68.2,119.2,68.7,118.9,68.7,118.3z"></path> <path class="st5" d="M50.5,86.4c0-0.9-0.5-1.8-1.3-2.3l-11.8-6.7c-0.7-0.4-1.3-0.1-1.3,0.7c0,0.9,0.5,1.8,1.3,2.3l11.8,6.7 C49.9,87.6,50.5,87.3,50.5,86.4z"></path> <path class="st11" d="M83.5,102.9c0-0.9-0.5-1.8-1.3-2.3l-11.8-6.7c-0.7-0.4-1.3-0.1-1.3,0.7c0,0.9,0.5,1.8,1.3,2.3l11.8,6.7 C82.9,104,83.5,103.7,83.5,102.9z"></path> <path class="st11" d="M107.7,138.5c0-0.9-0.5-1.8-1.3-2.3l-11.8-6.7c-0.7-0.4-1.3-0.1-1.3,0.7c0,0.9,0.5,1.8,1.3,2.3l11.8,6.7 C107.1,139.7,107.7,139.3,107.7,138.5z"></path> </g> </g> <g transform="translate(193.957 102.587)" class="st12"> <path class="st5" d="M7.1,0.8C4.9-0.4,1.9,1.1,0.6,2C0.2,2.2,0,2.7,0,3.1l1.1,104.8c0,3.1,2.2,7.6,4.9,9.2l146.3,82.7 c0.7,0.4,1.6,0.4,2.3,0c2.5-1.5,3.6-2.4,3.6-5L157.1,91c-0.2-3.4-2-6.5-4.9-8.3L7.1,0.8z"></path> <path class="st6" d="M3.5,0.3C4,0,4.7-0.1,5.3,0l0,0c0.1,0,0.2,0,0.3,0.1c0,0,0.1,0,0.1,0c0.1,0,0.2,0.1,0.3,0.1c0,0,0.1,0,0.1,0 c0.2,0.1,146,82.3,146,82.3l0,0l0,0l0,0c2.8,1.8,4.6,4.8,4.9,8.1l0,0l1.1,104.5c0,1.1-0.4,2.2-1.1,3l0,0 c-0.1,0.1-0.2,0.2-0.3,0.2l-2.4,1.4c0.5-0.3,0.4-2.3,0.4-2.5l-1-104.4c0-0.3,0-0.7-0.1-1c-0.1-0.5-0.2-0.9-0.3-1.4 c0-0.1-0.1-0.2-0.1-0.3c0-0.1-0.1-0.2-0.1-0.3c-0.1-0.2-0.1-0.3-0.2-0.5l0-0.1c-0.1-0.2-0.2-0.4-0.3-0.6l0,0 c-0.2-0.4-0.4-0.8-0.7-1.1l0-0.1c-0.1-0.2-0.2-0.3-0.3-0.5c-0.1-0.2-0.3-0.3-0.4-0.5c-0.2-0.2-0.3-0.4-0.5-0.6 c-0.1-0.1-0.2-0.2-0.3-0.3c-0.2-0.2-0.4-0.4-0.6-0.5c-0.3-0.3-0.7-0.5-1-0.7l0,0c0,0-145.1-81.8-145.2-81.9 C2.4,2.2,1.1,1.9,0.4,2.4L3.5,0.3z"></path> <g transform="translate(140.461 81.632)"> <g transform="translate(7.409 4.789)"> <path class="st7" d="M1.2,0.2C0.5-0.2,0,0.1,0,0.9C0.1,1.7,0.5,2.5,1.2,3C1.9,3.4,2.5,3,2.5,2.3C2.4,1.4,1.9,0.6,1.2,0.2z"></path> </g> <g transform="translate(3.748 2.429)"> <path class="st7" d="M1.2,0.2C0.5-0.2,0,0.1,0,0.9c0,0.8,0.5,1.6,1.2,2.1C1.9,3.3,2.4,3,2.4,2.2C2.4,1.4,1.9,0.6,1.2,0.2z"></path> </g> <path class="st7" d="M1.2,0.2C0.5-0.2,0,0.1,0,0.9C0.1,1.7,0.5,2.5,1.2,3C1.9,3.4,2.5,3,2.5,2.3C2.4,1.4,1.9,0.6,1.2,0.2z"></path> </g> <path class="st13" d="M28.4,129.7L5.7,117c-2-1.1-4.8-3.4-4.6-11.2l-1-98l28,16.1L28.4,129.7z"></path> <path class="st5" d="M21.4,40.8c0-0.6-0.3-1.1-0.8-1.4L8.1,31.9c-0.2-0.2-0.6-0.2-0.8,0.1c-0.1,0.1-0.2,0.3-0.1,0.5 c0,0.6,0.3,1.1,0.8,1.4l12.5,7.4c0.2,0.2,0.6,0.2,0.8-0.1C21.4,41.1,21.4,40.9,21.4,40.8L21.4,40.8z"></path> <path class="st5" d="M21.4,45.3c0-0.6-0.3-1.1-0.8-1.4L8.1,36.5c-0.2-0.2-0.6-0.2-0.8,0.1c-0.1,0.1-0.2,0.3-0.1,0.5 c0,0.6,0.3,1.1,0.8,1.4l12.5,7.4c0.2,0.2,0.6,0.2,0.8-0.1C21.4,45.7,21.4,45.5,21.4,45.3L21.4,45.3z"></path> <path class="st5" d="M21.4,50c0-0.6-0.3-1.1-0.8-1.4L8.1,41.2c-0.2-0.2-0.6-0.2-0.8,0.1c-0.1,0.1-0.2,0.3-0.1,0.5 c0,0.6,0.3,1.1,0.8,1.4l12.5,7.4c0.2,0.1,0.4,0.2,0.6,0.1C21.3,50.5,21.4,50.3,21.4,50z"></path> <path class="st5" d="M21.4,54.7c0-0.6-0.3-1.1-0.8-1.4L8.1,45.8c-0.2-0.1-0.4-0.2-0.6-0.1c-0.2,0.1-0.3,0.3-0.3,0.6 c0,0.6,0.3,1.1,0.8,1.4l12.5,7.4c0.2,0.2,0.6,0.2,0.8-0.1C21.4,55,21.4,54.8,21.4,54.7L21.4,54.7z"></path> <path class="st5" d="M21.4,59.4c0-0.6-0.3-1.1-0.8-1.4L8.1,50.6c-0.2-0.1-0.4-0.2-0.6-0.1c-0.2,0.1-0.3,0.3-0.3,0.6 c0,0.3,0.1,0.6,0.2,0.8c0.1,0.3,0.3,0.5,0.6,0.6l12.5,7.4c0.2,0.1,0.4,0.2,0.6,0.1C21.3,59.8,21.4,59.6,21.4,59.4z"></path> <path class="st5" d="M21.4,64c0-0.6-0.3-1.1-0.8-1.4L8.1,55.2C7.8,55,7.5,55,7.3,55.2c-0.1,0.1-0.2,0.3-0.1,0.5 c0,0.6,0.3,1.1,0.8,1.4l12.5,7.4c0.2,0.1,0.4,0.2,0.6,0.1C21.3,64.4,21.4,64.2,21.4,64z"></path> <path class="st5" d="M21.4,68.7c0-0.6-0.3-1.1-0.8-1.4L8.1,59.8c-0.2-0.2-0.6-0.2-0.8,0.1c-0.1,0.1-0.2,0.3-0.1,0.5 c0,0.6,0.3,1.1,0.8,1.4l12.5,7.4c0.2,0.2,0.6,0.2,0.8-0.1C21.4,69,21.4,68.8,21.4,68.7L21.4,68.7z"></path> <path class="st5" d="M21.4,73.3c0-0.6-0.3-1.1-0.8-1.4L8.1,64.5c-0.2-0.2-0.6-0.2-0.8,0.1c-0.1,0.1-0.2,0.3-0.1,0.5 c0,0.6,0.3,1.1,0.8,1.4l12.5,7.4c0.2,0.1,0.4,0.2,0.6,0.1C21.3,73.7,21.4,73.5,21.4,73.3z"></path> <path class="st5" d="M21.4,77.8c0-0.6-0.3-1.1-0.8-1.4L8.1,69c-0.2-0.1-0.4-0.2-0.6-0.1c-0.2,0.1-0.3,0.3-0.3,0.6 c0,0.6,0.3,1.1,0.8,1.4l12.5,7.4c0.2,0.1,0.4,0.2,0.6,0.1C21.3,78.3,21.4,78.1,21.4,77.8z"></path> <path class="st5" d="M21.4,82.5c0-0.6-0.3-1.1-0.8-1.4L8.1,73.7c-0.2-0.1-0.4-0.2-0.6-0.1c-0.2,0.1-0.3,0.3-0.3,0.6 c0,0.6,0.3,1.1,0.8,1.4L20.5,83c0.2,0.2,0.6,0.2,0.8-0.1C21.4,82.8,21.5,82.7,21.4,82.5L21.4,82.5z"></path> <path class="st5" d="M21.4,87.1c0-0.6-0.3-1.1-0.8-1.4L8.1,78.3c-0.2-0.2-0.6-0.2-0.8,0.1c-0.1,0.1-0.2,0.3-0.1,0.5 c0,0.6,0.3,1.1,0.8,1.4l12.5,7.4c0.2,0.1,0.4,0.2,0.6,0.1C21.4,87.6,21.5,87.4,21.4,87.1z"></path> <path class="st5" d="M25.3,33.2c0-0.6-0.3-1.1-0.8-1.4L4.9,20.2C4.6,20,4.3,20,4.1,20.3C4,20.4,3.9,20.6,4,20.7 c0,0.6,0.3,1.1,0.8,1.4l19.6,11.5c0.2,0.1,0.4,0.2,0.6,0.1C25.2,33.6,25.3,33.4,25.3,33.2z"></path> <path class="st14" d="M64.1,54.8c0-0.9-0.5-1.7-1.2-2.1L49.5,45c-0.4-0.3-0.9-0.3-1.2,0.1c-0.2,0.2-0.2,0.4-0.2,0.7 c0,0.9,0.5,1.7,1.2,2.1l13.4,7.7c0.3,0.2,0.6,0.2,1,0.1C64,55.5,64.1,55.2,64.1,54.8z"></path> <path class="st10" d="M83,65.7c0-0.9-0.5-1.7-1.2-2.1l-13.4-7.7c-0.4-0.3-0.9-0.3-1.2,0.1c-0.2,0.2-0.2,0.4-0.2,0.7 c0,0.9,0.5,1.7,1.2,2.1l13.4,7.7c0.4,0.3,0.9,0.3,1.2-0.1C83,66.2,83.1,65.9,83,65.7L83,65.7z"></path> <path class="st10" d="M101.9,76.4c0-0.9-0.5-1.7-1.2-2.1l-13.4-7.7c-0.4-0.3-0.9-0.3-1.2,0.1c-0.2,0.2-0.2,0.4-0.2,0.7 c0,0.9,0.5,1.7,1.2,2.1l13.4,7.7c0.4,0.3,0.9,0.3,1.2-0.1C101.9,76.9,102,76.7,101.9,76.4z"></path> <path class="st10" d="M120.5,87.1c0-0.9-0.5-1.7-1.2-2.1l-13.4-7.7c-0.4-0.3-0.9-0.3-1.2,0.1c-0.2,0.2-0.2,0.4-0.2,0.7 c0,0.9,0.5,1.7,1.2,2.1l13.4,7.7c0.3,0.2,0.6,0.2,1,0.1C120.3,87.8,120.5,87.5,120.5,87.1z"></path> <g transform="translate(78.322 103.583)"> <path class="st15" d="M2,0.3C0.9-0.4,0,0.2,0,1.4L0,19c0.1,1.2,0.7,2.2,1.6,2.9l24.3,14c0.6,0.4,1.4,0.1,1.8-0.5 c0.1-0.2,0.2-0.4,0.2-0.6l0-17.9c-0.1-1-0.6-1.9-1.4-2.5L2,0.3z"></path> <path class="st5" d="M15,24.6c0-0.5-0.3-0.9-0.7-1.2l-10.2-6c-0.2-0.2-0.5-0.1-0.6,0.1c-0.1,0.1-0.1,0.2-0.1,0.4 c0,0.5,0.3,0.9,0.7,1.2l10.2,6c0.2,0.2,0.5,0.1,0.6-0.1C15,24.8,15,24.7,15,24.6z"></path> <path class="st5" d="M17.1,28.9c0-0.5-0.3-0.9-0.7-1.2L3.8,20.3c-0.2-0.2-0.5-0.1-0.6,0.1c-0.1,0.1-0.1,0.2-0.1,0.4 c0,0.5,0.3,0.9,0.7,1.2l12.6,7.4c0.2,0.2,0.5,0.1,0.6-0.1C17,29.1,17.1,29,17.1,28.9L17.1,28.9z"></path> <path class="st5" d="M16.7,12.2c0-0.7-0.4-1.3-1-1.7L4.8,4C4.5,3.8,4.1,3.8,3.8,4.1C3.7,4.3,3.6,4.5,3.7,4.7 c0,0.4,0.1,0.7,0.3,1C4.1,6,4.4,6.2,4.7,6.4l11,6.4c0.3,0.2,0.7,0.2,0.9-0.1C16.7,12.6,16.8,12.4,16.7,12.2L16.7,12.2z"></path> <path class="st16" d="M3.2,13.1l1.4,0.2l0.7,1l0.9-0.9l0.7,1.4l0.5-0.2l0.7,0.4l0.9-0.8l0.8,1l1.4-0.2l0.3,1.5l1.1-1.4l0.7,1 l1.9-0.2l1.4,1.1l3.9,1l2,1.3l2.4-0.2"></path> </g> <g transform="translate(45.699 85.113)"> <path class="st15" d="M2,0.3C0.9-0.4,0,0.2,0,1.4L0,19c0.1,1.2,0.7,2.2,1.6,2.8l24.3,14c0.6,0.4,1.4,0.1,1.8-0.5 c0.1-0.2,0.2-0.4,0.2-0.6l0-17.9c-0.1-1-0.6-1.9-1.4-2.5L2,0.3z"></path> <path class="st5" d="M15,24.6c0-0.5-0.3-0.9-0.7-1.2l-10.2-6c-0.2-0.1-0.4-0.1-0.5,0c-0.2,0.1-0.2,0.3-0.2,0.5 c0,0.2,0.1,0.5,0.2,0.7c0.1,0.2,0.3,0.4,0.5,0.5l10.2,6c0.2,0.2,0.5,0.1,0.6-0.1C15,24.8,15.1,24.7,15,24.6L15,24.6z"></path> <path class="st5" d="M17.1,28.9c0-0.5-0.3-0.9-0.7-1.2L3.8,20.3c-0.2-0.2-0.5-0.1-0.6,0.1c-0.1,0.1-0.1,0.2-0.1,0.4 c0,0.5,0.3,0.9,0.7,1.2l12.6,7.4c0.2,0.2,0.5,0.1,0.6-0.1C17,29.1,17.1,29,17.1,28.9z"></path> <path class="st5" d="M16.7,12.2c0-0.7-0.4-1.3-1-1.7L4.8,4C4.5,3.9,4.3,3.9,4,4C3.8,4.1,3.6,4.4,3.7,4.7c0,0.7,0.4,1.3,1,1.7 l11,6.4c0.2,0.2,0.5,0.2,0.8,0.1C16.6,12.8,16.8,12.5,16.7,12.2z"></path> <path class="st17" d="M3.1,13.8l1.2-0.2l1.3-1.7l1.8,1.7L9.8,15l1.9-1.4l0.4,2.9l2.2-1l0.6,1.8l2.4-0.4l1.7,0.6l2.4,0.4l1.8,1.4 l1.8-0.5"></path> </g> <g transform="translate(78.322 128.972)"> <path class="st15" d="M2,0.3C0.9-0.4,0,0.2,0,1.4L0,19c0.1,1.2,0.7,2.2,1.6,2.9l24.3,14c0.6,0.4,1.4,0.1,1.8-0.5 c0.1-0.2,0.2-0.4,0.2-0.6l0-17.9c-0.1-1-0.6-1.9-1.4-2.5L2,0.3z"></path> <path class="st5" d="M15,24.6c0-0.5-0.3-0.9-0.7-1.2l-10.2-6c-0.2-0.2-0.5-0.1-0.6,0.1c-0.1,0.1-0.1,0.2-0.1,0.4 c0,0.5,0.3,0.9,0.7,1.2l10.2,6c0.2,0.2,0.5,0.1,0.6-0.1C15,24.8,15,24.7,15,24.6L15,24.6z"></path> <path class="st5" d="M17.1,28.9c0-0.5-0.3-0.9-0.7-1.2L3.8,20.3c-0.2-0.2-0.5-0.1-0.6,0.1c-0.1,0.1-0.1,0.2-0.1,0.4 c0,0.5,0.3,0.9,0.7,1.2l12.6,7.4c0.2,0.2,0.5,0.1,0.6-0.1C17,29.1,17.1,29,17.1,28.9z"></path> <path class="st5" d="M16.7,12.2c0-0.7-0.4-1.3-1-1.7L4.8,4C4.5,3.8,4.1,3.8,3.8,4.1C3.7,4.3,3.6,4.5,3.7,4.7 c0,0.4,0.1,0.7,0.3,1C4.1,6,4.4,6.2,4.7,6.4l11,6.4c0.3,0.2,0.7,0.2,0.9-0.1C16.7,12.6,16.8,12.4,16.7,12.2L16.7,12.2z"></path> <path class="st18" d="M3.1,12.7l1.8,0.6l1.4,0.8L8.6,14l1.1,1.3l1.6,0l1.8,1.6l1.8,0.7l1.6-0.8l1.6,1.3l1.3-0.1l1.1,1.1l1.1,1.2 l1.3-0.1l2,0.5"></path> </g> <g transform="translate(45.699 110.501)"> <path class="st15" d="M2,0.3C0.9-0.4,0,0.2,0,1.4L0,19c0.1,1.2,0.7,2.2,1.6,2.9l24.3,14c0.6,0.4,1.4,0.1,1.8-0.5 c0.1-0.2,0.2-0.4,0.2-0.6l0-17.9c-0.1-1-0.6-1.9-1.4-2.5L2,0.3z"></path> <path class="st5" d="M15,24.6c0-0.5-0.3-0.9-0.7-1.2l-10.2-6c-0.2-0.1-0.4-0.1-0.5,0c-0.2,0.1-0.2,0.3-0.2,0.5 c0,0.5,0.3,0.9,0.7,1.2l10.2,6c0.2,0.1,0.4,0.1,0.5,0C15,24.9,15,24.8,15,24.6z"></path> <path class="st5" d="M17.1,28.9c0-0.5-0.3-0.9-0.7-1.2L3.8,20.3c-0.2-0.2-0.5-0.1-0.6,0.1c-0.1,0.1-0.1,0.2-0.1,0.4 c0,0.5,0.3,0.9,0.7,1.2l12.6,7.4c0.2,0.2,0.5,0.1,0.6-0.1C17,29.1,17.1,29,17.1,28.9L17.1,28.9z"></path> <path class="st5" d="M16.7,12.2c0-0.7-0.4-1.3-1-1.7L4.8,4C4.5,3.9,4.3,3.9,4,4C3.8,4.1,3.6,4.4,3.7,4.7c0,0.7,0.4,1.3,1,1.7 l11,6.4c0.3,0.2,0.7,0.2,0.9-0.1C16.7,12.6,16.8,12.4,16.7,12.2L16.7,12.2z"></path> <path class="st19" d="M2.9,12.9L4,12l1.2,1.1l1.9-1l0.7,2.2l2.1,0.3l1.4-0.5l1.2,1.7l0.8,0.9l0.9-0.4l1.3,2l1.8-0.8l1.3,1.6 l1.2,0.7h2.4l1.2,0.7l1.3-0.9"></path> </g> <g transform="translate(117.814 125.077)"> <path class="st20" d="M1.5,3.9c0-0.5-0.3-0.9-0.7-1.2c-0.1-0.1-0.3-0.1-0.5,0C0.2,2.8,0.1,3,0.1,3.1c0,0.5,0.3,0.9,0.7,1.2 C1,4.4,1.3,4.4,1.4,4.2C1.5,4.1,1.5,4,1.5,3.9z"></path> <path class="st10" d="M14.2,11.3c0-0.5-0.3-0.9-0.7-1.2l-10.2-6C3.2,4,3,4,2.8,4.1C2.7,4.2,2.6,4.4,2.6,4.6 c0,0.5,0.3,0.9,0.7,1.2l10.2,6c0.2,0.1,0.4,0.1,0.5,0C14.2,11.7,14.3,11.5,14.2,11.3z"></path> <path class="st21" d="M1.5,1.2c0-0.5-0.3-0.9-0.7-1.2C0.7,0,0.5,0,0.3,0C0.2,0.2,0.1,0.3,0.1,0.5c0,0.5,0.3,0.9,0.7,1.2 C1,1.8,1.3,1.8,1.4,1.6C1.5,1.5,1.5,1.4,1.5,1.2L1.5,1.2z"></path> <path class="st10" d="M14.2,8.7c0-0.5-0.3-0.9-0.7-1.2l-10.2-6C3.2,1.4,3,1.4,2.8,1.5C2.7,1.6,2.6,1.8,2.6,1.9 c0,0.5,0.3,0.9,0.7,1.2l10.2,6c0.2,0.1,0.4,0.1,0.5,0C14.2,9.1,14.3,8.9,14.2,8.7z"></path> <path class="st22" d="M1.4,6.1c0-0.5-0.3-0.9-0.7-1.2C0.6,4.8,0.3,4.8,0.2,5C0.1,5.1,0,5.3,0.1,5.4c0,0.5,0.3,0.9,0.7,1.2 c0.1,0.1,0.3,0.1,0.5,0C1.4,6.5,1.5,6.3,1.4,6.1z"></path> <path class="st10" d="M14.2,13.6c0-0.5-0.3-0.9-0.7-1.2l-10.2-6c-0.2-0.1-0.4-0.1-0.5,0C2.6,6.5,2.5,6.6,2.5,6.8 c0,0.2,0.1,0.5,0.2,0.7C2.9,7.7,3,7.9,3.2,8l10.2,6c0.2,0.1,0.4,0.1,0.5,0C14.1,14,14.2,13.8,14.2,13.6z"></path> <path class="st23" d="M1.4,8.5c0-0.5-0.3-0.9-0.7-1.2C0.5,7.2,0.3,7.2,0.1,7.4C0,7.5,0,7.6,0,7.8c0,0.5,0.3,0.9,0.7,1.2 C0.8,9,1,9.1,1.2,9C1.3,8.9,1.4,8.7,1.4,8.5z"></path> <path class="st10" d="M14.1,16c0-0.5-0.3-0.9-0.7-1.2l-10.2-6C3,8.6,2.7,8.6,2.6,8.8C2.5,8.9,2.5,9.1,2.5,9.2 c0,0.5,0.3,0.9,0.7,1.2l10.2,6c0.2,0.2,0.5,0.1,0.6-0.1C14.1,16.3,14.1,16.1,14.1,16L14.1,16z"></path> </g> <path class="st24" d="M46.5,56.2v24l86.9,48.7"></path> <path class="st25" d="M46.7,76.5l4.9-0.8l5.3-6.9l7.3,6.7l9.8,5.7l7.7-5.7l1.7,11.6l8.7-3.8l2.4,7.3l9.5-1.5l6.7,2.5l9.5,1.4 l7.1,5.8l7.1-1.9"></path> <path class="st26" d="M46.7,76.5l4.3-3.7l4.9,4.4l7.6-3.8l2.6,8.6l8.5,1.2l5.4-1.8l4.9,6.6l3.4,3.7l3.5-1.8l5.2,7.8l7.2-3.3 l5.1,6.3l4.6,2.8h9.5l4.7,2.7l5.3-3.7"></path> <path class="st27" d="M46.7,76.5l7,2.4l5.5,3.2l9.4-0.8l4.3,5.3l6.2-0.1l7,6.5l7.3,2.8l6.2-3.3l6.3,5.2l5-0.6l4.4,4.4l4.4,4.7 l5.3-0.4l7.9,2"></path> <path class="st28" d="M46.7,76.5l5.7,0.7l2.7,4.1l3.8-3.4l2.8,5.5l2.2-0.6l2.8,1.6l3.8-3.1l3.2,3.8l5.4-0.8l1.4,6.2l4.2-5.7 l2.9,3.9l7.7-1l5.5,4.5l15.6,4l7.9,5.2l9.7-0.6"></path> </g> <g transform="translate(153.263 128.003)" class="st29"> <path class="st5" d="M7.1,0.8C4.9-0.4,1.9,1.1,0.6,2C0.2,2.2,0,2.7,0,3.1l1.1,104.8c0,3.1,2.2,7.6,4.9,9.2l146.3,82.7 c0.7,0.4,1.6,0.4,2.3,0c2.5-1.5,3.6-2.4,3.6-5L157.1,91c-0.2-3.4-2-6.5-4.9-8.3L7.1,0.8z"></path> <path class="st6" d="M3.5,0.3C4,0,4.7-0.1,5.3,0l0,0c0.1,0,0.2,0,0.3,0.1c0,0,0.1,0,0.1,0c0.1,0,0.2,0.1,0.3,0.1l0.1,0 c0.2,0.1,146,82.3,146,82.3l0,0l0,0l0,0c2.8,1.8,4.6,4.8,4.9,8.1h0l1.1,104.5c0,1.1-0.4,2.2-1.1,3l0,0c-0.1,0.1-0.2,0.2-0.3,0.2 l-2.4,1.4c0.5-0.3,0.4-2.3,0.4-2.5l-1-104.4c0-0.3,0-0.7-0.1-1c-0.1-0.5-0.2-0.9-0.3-1.4c0-0.1-0.1-0.2-0.1-0.3 c0-0.1-0.1-0.2-0.1-0.3c-0.1-0.2-0.1-0.3-0.2-0.5c0,0,0,0,0-0.1c-0.1-0.2-0.2-0.4-0.3-0.6l0,0c-0.2-0.4-0.4-0.8-0.7-1.1l0-0.1 c-0.1-0.2-0.2-0.3-0.3-0.5c-0.1-0.2-0.3-0.3-0.4-0.5c-0.2-0.2-0.3-0.4-0.5-0.6c-0.1-0.1-0.2-0.2-0.3-0.3 c-0.2-0.2-0.4-0.4-0.6-0.5c-0.3-0.3-0.7-0.5-1-0.7l0,0c0,0-145.1-81.8-145.2-81.9C2.4,2.2,1.1,1.9,0.4,2.4L3.5,0.3z"></path> <g transform="translate(140.461 81.632)"> <g transform="translate(7.408 4.789)"> <path class="st7" d="M1.2,0.2C0.5-0.2,0,0.1,0,0.9C0.1,1.7,0.5,2.5,1.2,3c0.7,0.4,1.2,0.1,1.2-0.7C2.4,1.4,1.9,0.6,1.2,0.2z"></path> </g> <g transform="translate(3.748 2.429)"> <path class="st7" d="M1.2,0.2C0.5-0.2,0,0.1,0,0.9c0,0.8,0.5,1.6,1.2,2.1C1.9,3.3,2.4,3,2.4,2.2C2.4,1.4,1.9,0.6,1.2,0.2z"></path> </g> <path class="st7" d="M1.2,0.2C0.5-0.2,0,0.1,0,0.9C0.1,1.7,0.5,2.5,1.2,3C1.9,3.4,2.5,3,2.5,2.3C2.4,1.4,1.9,0.6,1.2,0.2z"></path> </g> <path class="st30" d="M28.4,129.7L5.7,117c-2-1.1-4.8-3.4-4.6-11.2l-1-98l28,16.1L28.4,129.7z"></path> <path class="st5" d="M17.7,38.6c0-0.6-0.3-1.1-0.8-1.4L4.4,29.8c-0.2-0.2-0.6-0.2-0.8,0.1c-0.1,0.1-0.2,0.3-0.1,0.5 c0,0.6,0.3,1.1,0.8,1.4l12.5,7.4c0.2,0.1,0.4,0.2,0.6,0.1C17.6,39.1,17.7,38.8,17.7,38.6z"></path> <path class="st5" d="M17.7,43.2c0-0.6-0.3-1.1-0.8-1.4L4.4,34.4c-0.2-0.1-0.4-0.2-0.6-0.1c-0.2,0.1-0.3,0.3-0.3,0.6 c0,0.6,0.3,1.1,0.8,1.4l12.5,7.4c0.2,0.2,0.6,0.2,0.8-0.1C17.7,43.5,17.7,43.4,17.7,43.2L17.7,43.2z"></path> <path class="st5" d="M17.7,47.9c0-0.6-0.3-1.1-0.8-1.4L4.4,39.1c-0.2-0.2-0.6-0.2-0.8,0.1c-0.1,0.1-0.2,0.3-0.1,0.5 c0,0.6,0.3,1.1,0.8,1.4l12.5,7.4c0.2,0.1,0.4,0.2,0.6,0.1C17.6,48.3,17.7,48.1,17.7,47.9z"></path> <path class="st5" d="M17.7,52.5c0-0.6-0.3-1.1-0.8-1.4L4.4,43.7c-0.2-0.2-0.6-0.2-0.8,0.1c-0.1,0.1-0.2,0.3-0.1,0.5 c0,0.6,0.3,1.1,0.8,1.4L16.8,53c0.2,0.2,0.6,0.2,0.8-0.1C17.7,52.8,17.7,52.7,17.7,52.5L17.7,52.5z"></path> <path class="st5" d="M17.7,57.2c0-0.6-0.3-1.1-0.8-1.4L4.4,48.4c-0.2-0.1-0.4-0.2-0.6-0.1c-0.2,0.1-0.3,0.3-0.3,0.6 c0,0.6,0.3,1.1,0.8,1.4l12.5,7.4c0.2,0.1,0.4,0.2,0.6,0.1C17.6,57.7,17.7,57.4,17.7,57.2z"></path> <path class="st5" d="M17.7,61.8c0-0.6-0.3-1.1-0.8-1.4L4.4,53C4.2,52.9,4,52.9,3.7,53c-0.2,0.1-0.3,0.3-0.3,0.6 c0,0.3,0.1,0.6,0.2,0.8c0.1,0.3,0.3,0.5,0.6,0.6l12.5,7.4c0.2,0.1,0.4,0.2,0.6,0.1C17.6,62.3,17.7,62.1,17.7,61.8z"></path> <path class="st5" d="M17.7,66.5c0-0.6-0.3-1.1-0.8-1.4L4.4,57.7c-0.2-0.1-0.4-0.2-0.6-0.1c-0.2,0.1-0.3,0.4-0.3,0.6 c0,0.3,0.1,0.6,0.2,0.8c0.1,0.3,0.3,0.5,0.6,0.6L16.8,67c0.2,0.1,0.4,0.2,0.6,0.1C17.6,67,17.7,66.7,17.7,66.5z"></path> <path class="st5" d="M17.7,71.1c0-0.6-0.3-1.1-0.8-1.4L4.4,62.3c-0.2-0.1-0.4-0.2-0.6-0.1c-0.2,0.1-0.3,0.4-0.3,0.6 c0,0.3,0.1,0.6,0.2,0.8c0.1,0.3,0.3,0.5,0.6,0.6l12.5,7.4c0.2,0.1,0.4,0.2,0.6,0.1C17.6,71.6,17.7,71.4,17.7,71.1z"></path> <path class="st5" d="M17.7,75.7c0-0.6-0.3-1.1-0.8-1.4L4.4,66.9c-0.2-0.2-0.6-0.2-0.8,0.1c-0.1,0.1-0.2,0.3-0.1,0.5 c0,0.6,0.3,1.1,0.8,1.4l12.5,7.4c0.2,0.2,0.6,0.2,0.8-0.1C17.7,76,17.8,75.8,17.7,75.7L17.7,75.7z"></path> <path class="st5" d="M17.7,80.4c0-0.6-0.3-1.1-0.8-1.4L4.4,71.6c-0.2-0.2-0.6-0.2-0.8,0.1c-0.1,0.1-0.2,0.3-0.1,0.5 c0,0.6,0.3,1.1,0.8,1.4l12.5,7.4c0.2,0.2,0.6,0.2,0.8-0.1C17.7,80.7,17.8,80.5,17.7,80.4L17.7,80.4z"></path> <path class="st5" d="M17.8,85c0-0.6-0.3-1.1-0.8-1.4L4.4,76.2C4.2,76,4,76,3.8,76.1c-0.2,0.1-0.3,0.3-0.3,0.6 c0,0.6,0.3,1.1,0.8,1.4l12.5,7.4c0.2,0.1,0.4,0.2,0.6,0.1C17.7,85.4,17.8,85.2,17.8,85z"></path> <path class="st5" d="M25.3,33.2c0-0.6-0.3-1.1-0.8-1.4L4.9,20.2c-0.2-0.1-0.4-0.2-0.6-0.1C4,20.3,3.9,20.5,4,20.7 c0,0.3,0.1,0.6,0.2,0.8c0.1,0.3,0.3,0.5,0.6,0.6l19.6,11.5c0.2,0.1,0.4,0.2,0.6,0.1C25.2,33.6,25.3,33.4,25.3,33.2z"></path> <g transform="translate(33.905 42.401)"> <path class="st10" d="M2.8,26.5c0-0.4-0.3-0.8-0.6-1.1c-0.1-0.1-0.3-0.1-0.5,0c-0.1,0.1-0.2,0.3-0.2,0.4c0,0.4,0.3,0.8,0.6,1.1 c0.2,0.2,0.4,0.1,0.6,0C2.7,26.7,2.8,26.6,2.8,26.5L2.8,26.5z"></path> <path class="st10" d="M13.3,32.6c0-0.5-0.3-0.9-0.6-1.1l-8.8-5.1c-0.1-0.1-0.3-0.1-0.5,0c-0.1,0.1-0.2,0.3-0.2,0.4 c0,0.5,0.3,0.9,0.6,1.1l8.8,5.1c0.2,0.2,0.5,0.1,0.6-0.1C13.2,32.8,13.3,32.7,13.3,32.6L13.3,32.6z"></path> <path class="st10" d="M11.4,36.7c0-0.5-0.3-0.9-0.6-1.1l-9.6-5.7c-0.2-0.2-0.5-0.1-0.6,0.1c-0.1,0.1-0.1,0.2-0.1,0.3 c0,0.2,0.1,0.4,0.2,0.6c0.1,0.2,0.3,0.4,0.4,0.5l9.6,5.7c0.2,0.2,0.5,0.1,0.6-0.1C11.4,36.9,11.5,36.8,11.4,36.7z"></path> <path class="st10" d="M11.4,38.8c0-0.5-0.3-0.9-0.6-1.1L1.1,32c-0.1-0.1-0.3-0.1-0.5,0c-0.1,0.1-0.2,0.3-0.2,0.4 c0,0.5,0.3,0.9,0.6,1.1l9.6,5.7c0.1,0.1,0.3,0.1,0.5,0C11.4,39.2,11.4,39,11.4,38.8z"></path> <path class="st10" d="M11.4,41.1c0-0.5-0.3-0.9-0.6-1.1l-9.6-5.7c-0.1-0.1-0.3-0.1-0.5,0c-0.1,0.1-0.2,0.3-0.2,0.4 c0,0.5,0.3,0.9,0.6,1.1l9.6,5.7c0.2,0.2,0.5,0.1,0.6,0C11.4,41.3,11.4,41.2,11.4,41.1L11.4,41.1z"></path> <path class="st10" d="M11.4,43.2c0-0.5-0.3-0.9-0.6-1.1l-9.6-5.7c-0.2-0.2-0.5-0.1-0.6,0.1c-0.1,0.1-0.1,0.2-0.1,0.3 c0,0.5,0.3,0.9,0.6,1.1l9.6,5.7c0.2,0.2,0.5,0.1,0.6-0.1C11.4,43.5,11.5,43.4,11.4,43.2z"></path> <path class="st10" d="M11.4,45.5c0-0.5-0.3-0.9-0.6-1.1l-9.6-5.7c-0.1-0.1-0.3-0.1-0.5,0c-0.1,0.1-0.2,0.3-0.2,0.4 c0,0.2,0.1,0.4,0.2,0.6c0.1,0.2,0.3,0.4,0.4,0.5l9.6,5.7c0.1,0.1,0.3,0.1,0.5,0C11.4,45.9,11.5,45.7,11.4,45.5z"></path> <path class="st10" d="M11.4,47.7c0-0.5-0.3-0.9-0.6-1.1l-9.6-5.7c-0.2-0.2-0.5-0.1-0.6,0.1c-0.1,0.1-0.1,0.2-0.1,0.3 c0,0.5,0.3,0.9,0.6,1.1l9.6,5.7c0.1,0.1,0.3,0.1,0.5,0C11.4,48,11.5,47.9,11.4,47.7z"></path> <path class="st10" d="M11.5,49.9c0-0.5-0.3-0.9-0.6-1.1l-9.6-5.7C1,42.9,0.7,43,0.6,43.2c-0.1,0.1-0.1,0.2-0.1,0.3 c0,0.5,0.3,0.9,0.6,1.1l9.6,5.7c0.1,0.1,0.3,0.1,0.5,0C11.4,50.2,11.5,50.1,11.5,49.9z"></path> <path class="st10" d="M11.4,52.1c0-0.5-0.3-0.9-0.6-1.1l-9.6-5.7c-0.2-0.2-0.5-0.1-0.6,0.1c-0.1,0.1-0.1,0.2-0.1,0.3 c0,0.5,0.3,0.9,0.6,1.1l9.6,5.7c0.1,0.1,0.3,0.1,0.5,0C11.4,52.4,11.5,52.3,11.4,52.1z"></path> <path class="st10" d="M11.5,54.2c0-0.5-0.3-0.9-0.6-1.1l-9.6-5.7c-0.2-0.2-0.5-0.1-0.6,0.1c-0.1,0.1-0.1,0.2-0.1,0.3 c0,0.5,0.3,0.9,0.6,1.1l9.6,5.7c0.1,0.1,0.3,0.1,0.5,0C11.4,54.6,11.5,54.4,11.5,54.2z"></path> <path class="st10" d="M11.5,56.4c0-0.5-0.3-0.9-0.6-1.1l-9.6-5.7c-0.1-0.1-0.3-0.1-0.5,0c-0.1,0.1-0.2,0.3-0.2,0.4 c0,0.5,0.3,0.9,0.6,1.1l9.6,5.7c0.2,0.2,0.5,0.1,0.6-0.1C11.5,56.7,11.5,56.6,11.5,56.4L11.5,56.4z"></path> <path class="st10" d="M11.5,58.6c0-0.5-0.3-0.9-0.6-1.1l-9.6-5.7c-0.2-0.2-0.5-0.1-0.6,0.1c-0.1,0.1-0.1,0.2-0.1,0.3 c0,0.5,0.3,0.9,0.6,1.1l9.6,5.7c0.1,0.1,0.3,0.1,0.5,0C11.4,59,11.5,58.8,11.5,58.6z"></path> <path class="st11" d="M1.3,1.2c0-0.4-0.3-0.8-0.6-1.1C0.5-0.1,0.2,0,0.1,0.1C0,0.2,0,0.4,0,0.5c0,0.4,0.3,0.8,0.6,1.1 c0.1,0.1,0.3,0.1,0.5,0C1.3,1.5,1.3,1.4,1.3,1.2z"></path> <path class="st11" d="M18.2,11c0-0.5-0.3-0.9-0.6-1.1L2.4,1C2.2,0.8,1.9,0.9,1.8,1C1.7,1.1,1.6,1.3,1.7,1.4 c0,0.5,0.3,0.9,0.6,1.1l15.1,8.9c0.1,0.1,0.3,0.1,0.5,0C18.1,11.3,18.2,11.2,18.2,11z"></path> <path class="st11" d="M101.3,109.9c0-0.5-0.3-0.9-0.6-1.1l-9.6-5.7c-0.1-0.1-0.3-0.1-0.5,0c-0.1,0.1-0.2,0.3-0.2,0.4 c0,0.5,0.3,0.9,0.6,1.1l9.6,5.7c0.2,0.2,0.5,0.1,0.6-0.1C101.3,110.1,101.3,110,101.3,109.9L101.3,109.9z"></path> <path class="st11" d="M103,113.8c0-0.5-0.3-0.9-0.6-1.1l-11.6-6.8c-0.2-0.2-0.5-0.1-0.6,0.1c-0.1,0.1-0.1,0.2-0.1,0.3 c0,0.2,0.1,0.4,0.2,0.6c0.1,0.2,0.3,0.4,0.5,0.5l11.6,6.8c0.2,0.2,0.5,0.1,0.6-0.1C103,114,103.1,113.9,103,113.8L103,113.8z"></path> <path class="st11" d="M101.5,131.1c0-0.5-0.3-0.9-0.6-1.1l-9.6-5.7c-0.2-0.2-0.5-0.1-0.6,0.1c-0.1,0.1-0.1,0.2-0.1,0.3 c0,0.2,0.1,0.4,0.2,0.6c0.1,0.2,0.3,0.4,0.4,0.5l9.6,5.7c0.1,0.1,0.3,0.1,0.5,0C101.4,131.5,101.5,131.3,101.5,131.1z"></path> <path class="st11" d="M36.3,51.5c0-0.7-0.4-1.3-0.9-1.6L25.1,44c-0.3-0.2-0.7-0.2-0.9,0.1c-0.1,0.1-0.2,0.3-0.1,0.5 c0,0.7,0.4,1.3,0.9,1.6l10.3,5.9c0.3,0.2,0.7,0.2,0.9-0.1C36.3,51.9,36.3,51.7,36.3,51.5L36.3,51.5z"></path> <path class="st10" d="M13.5,29c0-0.7-0.4-1.3-0.9-1.6L2.3,21.5c-0.2-0.2-0.5-0.2-0.7-0.1c-0.2,0.1-0.3,0.4-0.3,0.7 c0,0.7,0.4,1.3,0.9,1.6l10.3,5.9c0.3,0.2,0.7,0.2,0.9-0.1C13.4,29.3,13.5,29.2,13.5,29L13.5,29z"></path> <path class="st11" d="M50.8,59.8c0-0.7-0.4-1.3-0.9-1.6l-10.3-5.9c-0.2-0.2-0.5-0.2-0.7-0.1c-0.2,0.1-0.3,0.4-0.3,0.7 c0,0.7,0.4,1.3,0.9,1.6l10.3,5.9c0.3,0.2,0.7,0.2,0.9-0.1C50.7,60.2,50.8,60,50.8,59.8z"></path> <path class="st11" d="M65.2,68.1c0-0.7-0.4-1.3-0.9-1.6l-10.3-5.9c-0.2-0.2-0.5-0.2-0.7-0.1c-0.2,0.1-0.3,0.4-0.3,0.7 c0,0.7,0.4,1.3,0.9,1.6l10.3,5.9c0.2,0.2,0.5,0.2,0.7,0.1C65.1,68.6,65.3,68.3,65.2,68.1z"></path> <path class="st11" d="M79.4,76.2c0-0.7-0.4-1.3-0.9-1.6l-10.3-5.9c-0.2-0.2-0.5-0.2-0.7-0.1c-0.2,0.1-0.3,0.4-0.3,0.7 c0,0.7,0.4,1.3,0.9,1.6l10.3,5.9c0.3,0.2,0.7,0.2,0.9-0.1C79.4,76.6,79.4,76.4,79.4,76.2L79.4,76.2z"></path> <path class="st10" d="M91.7,109.7c-0.7-0.4-1.2-0.1-1.2,0.7l0,11c0,0.7,0.4,1.4,1,1.8l15.2,8.7c0.4,0.2,0.9,0.1,1.1-0.3 c0.1-0.1,0.1-0.3,0.1-0.4l0-11.2c0-0.6-0.4-1.2-0.9-1.5L91.7,109.7z"></path> <path class="st9" d="M91.7,88.4c-0.7-0.4-1.2-0.1-1.2,0.7l0,11c0,0.7,0.4,1.4,1,1.8l15.2,8.7c0.4,0.2,0.9,0.1,1.1-0.3 c0.1-0.1,0.1-0.3,0.1-0.4l0-11.2c0-0.6-0.4-1.2-0.9-1.5L91.7,88.4z"></path> <path class="st10" d="M68.5,75c-0.7-0.4-1.2-0.1-1.2,0.7l0,18c0,0.7,0.4,1.4,1,1.8l15.2,8.7c0.4,0.2,0.9,0.1,1.1-0.3 c0.1-0.1,0.1-0.3,0.1-0.4l0-18.2c0-0.6-0.4-1.2-0.9-1.5L68.5,75z"></path> <path class="st11" d="M64.9,112.4l0-37.2c-0.1-1.5-0.9-2.9-2.1-3.7l-36.5-21c-1.6-0.9-3-0.2-3,1.7l0,36.4"></path> <path class="st10" d="M84.6,124l0-15.7c0-0.6-0.4-1.2-0.9-1.6l-15.4-8.9c-0.7-0.4-1.3-0.1-1.3,0.7l0,15.4"></path> <path class="st11" d="M12.5,20.5L12.5,20.5l-0.2-10c0-0.4-0.2-0.7-0.5-0.9L3.4,4.7C2.9,4.4,2.2,4.5,1.9,5.1 C1.8,5.2,1.8,5.4,1.8,5.6l0.1,10c0,0.4,0.2,0.7,0.5,0.9l8.6,5c0.5,0.3,1.2,0.1,1.5-0.4C12.5,20.9,12.5,20.7,12.5,20.5L12.5,20.5 z"></path> <path class="st9" d="M108,84.4L108,84.4l-0.2-22.1c0-1.4-0.8-2.7-2-3.5L27.9,12.8c-1.3-0.8-3-0.3-3.8,1 c-0.3,0.4-0.4,0.9-0.4,1.4l0,22.7c0,1.5,0.8,2.8,2.1,3.6l78.7,45c1.1,0.6,2.6,0.2,3.2-0.9C107.9,85.3,108,84.9,108,84.4 L108,84.4z"></path> </g> </g> <g transform="translate(94.861 127.294)"> <path class="st5" d="M7.1,0.8C4.9-0.4,1.9,1.1,0.6,2C0.2,2.2,0,2.7,0,3.1l1.1,104.8c0,3.1,2.2,7.6,4.9,9.2l146.3,82.6 c0.7,0.4,1.6,0.4,2.3,0c2.5-1.5,3.6-2.4,3.6-5L157,90.9c-0.2-3.4-2-6.5-4.9-8.3L7.1,0.8z"></path> <path class="st6" d="M3.5,0.3C4,0,4.7-0.1,5.3,0l0,0c0.1,0,0.2,0,0.3,0.1l0.1,0c0.1,0,0.2,0.1,0.3,0.1l0.1,0 c0.2,0.1,146,82.3,146,82.3l0,0l0,0l0,0c2.8,1.8,4.6,4.8,4.9,8.1l0,0l1.1,104.5c0,1.1-0.4,2.2-1.1,3l0,0 c-0.1,0.1-0.2,0.2-0.3,0.2l-2.4,1.4c0.5-0.3,0.4-2.3,0.4-2.5l-1-104.4c0-0.3,0-0.7-0.1-1c-0.1-0.5-0.2-0.9-0.3-1.4 c0-0.1-0.1-0.2-0.1-0.3c0-0.1-0.1-0.2-0.1-0.3c-0.1-0.2-0.1-0.3-0.2-0.5l0-0.1c-0.1-0.2-0.2-0.4-0.3-0.6l0,0 c-0.2-0.4-0.4-0.8-0.7-1.1l0-0.1c-0.1-0.2-0.2-0.3-0.3-0.5c-0.1-0.2-0.3-0.3-0.4-0.5c-0.2-0.2-0.3-0.4-0.5-0.6 c-0.1-0.1-0.2-0.2-0.3-0.3c-0.2-0.2-0.4-0.4-0.6-0.5c-0.3-0.3-0.7-0.5-1-0.7l0,0c0,0-145.1-81.8-145.2-81.9 C2.4,2.2,1.1,1.9,0.4,2.4L3.5,0.3z"></path> <g transform="translate(140.461 81.632)"> <g transform="translate(7.409 4.789)"> <path class="st7" d="M1.2,0.2C0.5-0.2,0,0.1,0,0.9C0.1,1.7,0.5,2.5,1.2,3C1.9,3.4,2.5,3,2.5,2.3C2.4,1.4,1.9,0.6,1.2,0.2z"></path> </g> <g transform="translate(3.748 2.429)"> <path class="st7" d="M1.2,0.2C0.5-0.2,0,0.1,0,0.9c0,0.8,0.5,1.6,1.2,2.1C1.9,3.3,2.4,3,2.4,2.2C2.4,1.4,1.9,0.6,1.2,0.2z"></path> </g> <path class="st7" d="M1.2,0.2C0.5-0.2,0,0.1,0,0.9C0.1,1.7,0.5,2.5,1.2,3c0.7,0.4,1.2,0.1,1.2-0.7C2.4,1.4,1.9,0.6,1.2,0.2z"></path> </g> <path class="st31" d="M28.4,129.7L5.7,116.9c-2-1.1-4.8-3.4-4.6-11.2l-1-98l28,16.1L28.4,129.7z"></path> <path class="st5" d="M17.7,38.6c0-0.6-0.3-1.1-0.8-1.4L4.4,29.8c-0.2-0.1-0.4-0.2-0.6-0.1c-0.2,0.1-0.3,0.3-0.3,0.6 c0,0.6,0.3,1.1,0.8,1.4l12.5,7.4c0.2,0.2,0.6,0.2,0.8-0.1C17.7,38.9,17.7,38.8,17.7,38.6L17.7,38.6z"></path> <path class="st5" d="M17.7,43.2c0-0.6-0.3-1.1-0.8-1.4L4.4,34.4c-0.2-0.1-0.4-0.2-0.6-0.1c-0.2,0.1-0.3,0.3-0.3,0.6 c0,0.3,0.1,0.6,0.2,0.8C3.8,36,4,36.2,4.3,36.4l12.5,7.4c0.2,0.1,0.4,0.2,0.6,0.1C17.6,43.6,17.7,43.4,17.7,43.2z"></path> <path class="st5" d="M17.7,47.9c0-0.6-0.3-1.1-0.8-1.4L4.4,39.1c-0.2-0.2-0.6-0.2-0.8,0.1c-0.1,0.1-0.2,0.3-0.1,0.5 c0,0.6,0.3,1.1,0.8,1.4l12.5,7.4c0.2,0.2,0.6,0.2,0.8-0.1C17.7,48.2,17.7,48.1,17.7,47.9L17.7,47.9z"></path> <path class="st5" d="M17.7,52.5c0-0.6-0.3-1.1-0.8-1.4L4.4,43.7c-0.2-0.2-0.6-0.2-0.8,0.1c-0.1,0.1-0.2,0.3-0.1,0.5 c0,0.3,0.1,0.6,0.2,0.8c0.1,0.3,0.3,0.5,0.6,0.6L16.8,53c0.2,0.1,0.4,0.2,0.6,0.1C17.6,52.9,17.7,52.7,17.7,52.5z"></path> <path class="st5" d="M17.7,57.2c0-0.6-0.3-1.1-0.8-1.4L4.4,48.4c-0.2-0.2-0.6-0.2-0.8,0.1c-0.1,0.1-0.2,0.3-0.1,0.5 c0,0.6,0.3,1.1,0.8,1.4l12.5,7.4c0.2,0.1,0.4,0.2,0.6,0.1C17.6,57.7,17.7,57.4,17.7,57.2z"></path> <path class="st5" d="M17.7,61.8c0-0.6-0.3-1.1-0.8-1.4L4.4,53c-0.2-0.2-0.6-0.2-0.8,0.1c-0.1,0.1-0.2,0.3-0.1,0.5 c0,0.6,0.3,1.1,0.8,1.4l12.5,7.4c0.2,0.1,0.4,0.2,0.6,0.1C17.6,62.3,17.7,62.1,17.7,61.8z"></path> <path class="st5" d="M17.7,66.5c0-0.6-0.3-1.1-0.8-1.4L4.4,57.7c-0.2-0.1-0.4-0.2-0.6-0.1c-0.2,0.1-0.3,0.3-0.3,0.6 c0,0.6,0.3,1.1,0.8,1.4L16.8,67c0.2,0.2,0.6,0.2,0.8-0.1C17.7,66.8,17.7,66.7,17.7,66.5L17.7,66.5z"></path> <path class="st5" d="M17.7,71.1c0-0.6-0.3-1.1-0.8-1.4L4.4,62.3c-0.2-0.2-0.6-0.2-0.8,0.1c-0.1,0.1-0.2,0.3-0.1,0.5 c0,0.6,0.3,1.1,0.8,1.4l12.5,7.4c0.2,0.2,0.6,0.2,0.8-0.1C17.7,71.5,17.7,71.3,17.7,71.1L17.7,71.1z"></path> <path class="st5" d="M17.7,75.7c0-0.6-0.3-1.1-0.8-1.4L4.4,66.9c-0.2-0.2-0.6-0.2-0.8,0.1c-0.1,0.1-0.2,0.3-0.1,0.5 c0,0.6,0.3,1.1,0.8,1.4l12.5,7.4c0.2,0.1,0.4,0.2,0.6,0.1C17.6,76.1,17.7,75.9,17.7,75.7z"></path> <path class="st5" d="M17.7,80.4c0-0.6-0.3-1.1-0.8-1.4L4.4,71.6c-0.2-0.2-0.6-0.2-0.8,0.1c-0.1,0.1-0.2,0.3-0.1,0.5 c0,0.6,0.3,1.1,0.8,1.4l12.5,7.4c0.2,0.1,0.4,0.2,0.6,0.1C17.7,80.8,17.8,80.6,17.7,80.4z"></path> <path class="st5" d="M17.8,85c0-0.6-0.3-1.1-0.8-1.4L4.4,76.2C4.2,76,3.8,76,3.6,76.2c-0.1,0.1-0.2,0.3-0.1,0.5 c0,0.6,0.3,1.1,0.8,1.4l12.5,7.4c0.2,0.2,0.6,0.2,0.8-0.1C17.7,85.3,17.8,85.1,17.8,85L17.8,85z"></path> <path class="st5" d="M25.3,33.2c0-0.6-0.3-1.1-0.8-1.4L4.9,20.2C4.6,20,4.3,20,4.1,20.3C4,20.4,3.9,20.6,4,20.7 c0,0.6,0.3,1.1,0.8,1.4l19.6,11.5c0.2,0.2,0.6,0.2,0.8-0.1C25.3,33.5,25.4,33.3,25.3,33.2L25.3,33.2z"></path> <g transform="translate(36.24 48.08)"> <path class="st11" d="M52.7,31.4c-0.1-1.3-0.8-2.5-1.9-3.3L2.4,0.3C2,0,1.4-0.1,1,0.1C0.5,0.4,0.3,0.9,0.3,1.5 C0.4,2.8,1.1,4,2.2,4.7l48.4,27.9c0.5,0.5,1.3,0.4,1.8-0.1C52.6,32.2,52.7,31.8,52.7,31.4L52.7,31.4z"></path> <path class="st9" d="M44.5,51c0-0.4-0.3-0.8-0.6-1.1c-0.1-0.1-0.3-0.1-0.5,0c-0.1,0.1-0.2,0.3-0.2,0.4c0,0.4,0.3,0.8,0.6,1.1 c0.2,0.1,0.4,0.1,0.6,0C44.5,51.2,44.5,51.1,44.5,51L44.5,51z"></path> <path class="st9" d="M92.9,78.7c0-0.5-0.3-0.9-0.7-1.2L45.8,51c-0.2-0.2-0.5-0.1-0.6,0.1c-0.1,0.1-0.1,0.2-0.1,0.4 c0,0.2,0.1,0.5,0.2,0.7c0.1,0.2,0.3,0.4,0.5,0.5l46.4,26.5c0.2,0.2,0.5,0.1,0.6-0.1C92.9,78.9,92.9,78.8,92.9,78.7L92.9,78.7z"></path> <path class="st9" d="M94.7,82.3c0-0.5-0.3-0.9-0.7-1.2l-48-27.5c-0.2-0.2-0.5-0.1-0.6,0.1c-0.1,0.1-0.1,0.2-0.1,0.4 c0,0.5,0.3,0.9,0.7,1.2l48,27.5c0.2,0.2,0.5,0.1,0.6-0.1C94.7,82.5,94.7,82.4,94.7,82.3L94.7,82.3z"></path> <path class="st9" d="M74.4,73c0-0.5-0.3-0.9-0.7-1.2L46,56.1c-0.2-0.2-0.5-0.1-0.6,0.1c-0.1,0.1-0.1,0.2-0.1,0.4 c0,0.5,0.3,0.9,0.7,1.2l27.7,15.8c0.2,0.2,0.5,0.1,0.6-0.1C74.3,73.3,74.4,73.1,74.4,73L74.4,73z"></path> <path class="st9" d="M44.5,83.4c0-0.4-0.3-0.8-0.6-1.1c-0.1-0.1-0.3-0.1-0.5,0c-0.1,0.1-0.2,0.3-0.2,0.4c0,0.4,0.3,0.8,0.6,1.1 c0.2,0.1,0.4,0.1,0.6,0C44.5,83.7,44.5,83.6,44.5,83.4L44.5,83.4z"></path> <path class="st9" d="M92.9,111.2c0-0.5-0.3-0.9-0.7-1.2L45.8,83.5c-0.2-0.1-0.3-0.1-0.5,0c-0.2,0.1-0.2,0.3-0.2,0.5 c0,0.2,0.1,0.5,0.2,0.7c0.1,0.2,0.3,0.4,0.5,0.5l46.4,26.5c0.2,0.2,0.5,0.1,0.6-0.1C92.9,111.4,92.9,111.3,92.9,111.2 L92.9,111.2z"></path> <path class="st9" d="M94.7,114.7c0-0.5-0.3-0.9-0.7-1.2L46.1,86c-0.2-0.2-0.5-0.1-0.6,0.1c-0.1,0.1-0.1,0.2-0.1,0.4 c0,0.5,0.3,0.9,0.7,1.2l48,27.5c0.2,0.2,0.5,0.1,0.6-0.1C94.7,115,94.7,114.8,94.7,114.7L94.7,114.7z"></path> <path class="st9" d="M74.4,105.5c0-0.5-0.3-0.9-0.7-1.2L46,88.5c-0.2-0.2-0.5-0.1-0.6,0.1c-0.1,0.1-0.1,0.2-0.1,0.4 c0,0.5,0.3,0.9,0.7,1.2l27.7,15.8c0.2,0.2,0.5,0.1,0.6-0.1C74.3,105.7,74.4,105.6,74.4,105.5L74.4,105.5z"></path> <path class="st9" d="M44.5,62c0-0.4-0.3-0.8-0.6-1.1c-0.2-0.1-0.4-0.1-0.6,0c-0.1,0.1-0.1,0.2-0.1,0.3c0,0.4,0.3,0.8,0.6,1.1 c0.1,0.1,0.3,0.1,0.5,0C44.4,62.3,44.5,62.1,44.5,62z"></path> <path class="st9" d="M44.5,74.7c0-0.4-0.3-0.8-0.6-1.1c-0.2-0.1-0.4-0.1-0.6,0c-0.1,0.1-0.1,0.2-0.1,0.3c0,0.4,0.3,0.8,0.6,1.1 c0.1,0.1,0.3,0.1,0.5,0C44.4,75,44.5,74.9,44.5,74.7z"></path> <path class="st9" d="M92.9,89.7c0-0.5-0.3-0.9-0.7-1.2L45.8,62c-0.2-0.2-0.5-0.1-0.6,0.1c-0.1,0.1-0.1,0.2-0.1,0.4 c0,0.5,0.3,0.9,0.7,1.2l46.4,26.5c0.2,0.1,0.3,0.1,0.5,0C92.8,90,92.9,89.9,92.9,89.7z"></path> <path class="st9" d="M93.1,94.5c0-0.5-0.3-0.9-0.7-1.2L46,66.8c-0.2-0.1-0.3-0.1-0.5,0c-0.2,0.1-0.2,0.3-0.2,0.5 c0,0.5,0.3,0.9,0.7,1.2l46.4,26.5c0.2,0.2,0.5,0.1,0.6-0.1C93.1,94.8,93.1,94.7,93.1,94.5L93.1,94.5z"></path> <path class="st9" d="M94.7,93.2c0-0.5-0.3-0.9-0.7-1.2l-48-27.5c-0.2-0.2-0.5-0.1-0.6,0.1c-0.1,0.1-0.1,0.2-0.1,0.4 c0,0.5,0.3,0.9,0.7,1.2l48,27.5c0.2,0.1,0.3,0.1,0.5,0C94.6,93.6,94.7,93.4,94.7,93.2z"></path> <path class="st9" d="M94.6,103.6c0-0.5-0.3-0.9-0.7-1.2L46,74.9c-0.2-0.2-0.5-0.1-0.6,0.1c-0.1,0.1-0.1,0.2-0.1,0.4 c0,0.5,0.3,0.9,0.7,1.2l48,27.5c0.2,0.1,0.3,0.1,0.5,0C94.5,104,94.6,103.8,94.6,103.6z"></path> <path class="st9" d="M74.3,86.3c0-0.5-0.3-0.9-0.7-1.2L46,69.3c-0.2-0.2-0.5-0.1-0.6,0.1c-0.1,0.1-0.1,0.2-0.1,0.4 c0,0.5,0.3,0.9,0.7,1.2l27.7,15.8c0.2,0.2,0.5,0.1,0.6-0.1C74.3,86.6,74.3,86.4,74.3,86.3L74.3,86.3z"></path> <path class="st9" d="M56.5,84.3c0-0.5-0.3-0.9-0.7-1.2l-10-5.9c-0.2-0.2-0.5-0.1-0.6,0.1c-0.1,0.1-0.1,0.2-0.1,0.4 c0,0.5,0.3,0.9,0.7,1.2l10,5.9c0.2,0.2,0.5,0.1,0.6-0.1C56.5,84.6,56.6,84.4,56.5,84.3L56.5,84.3z"></path> <path class="st9" d="M17.1,84.2c0-0.5-0.3-0.9-0.7-1.2L1.3,74.3c-0.2-0.2-0.5-0.1-0.6,0.1c-0.1,0.1-0.1,0.2-0.1,0.4 c0,0.5,0.3,0.9,0.7,1.2l15.1,8.8c0.2,0.2,0.5,0.1,0.6-0.1C17,84.5,17.1,84.4,17.1,84.2L17.1,84.2z"></path> <path class="st9" d="M17.1,87.9c0-0.5-0.3-0.9-0.7-1.2L1.3,77.9c-0.2-0.2-0.5-0.1-0.6,0.1c-0.1,0.1-0.1,0.2-0.1,0.4 c0,0.5,0.3,0.9,0.7,1.2l15.1,8.8c0.2,0.1,0.3,0.1,0.5,0C17,88.2,17.1,88,17.1,87.9z"></path> <path class="st11" d="M12.6,76.3c0-0.8-0.5-1.6-1.1-2l-10.2-6C0.9,68,0.5,68,0.2,68.4C0,68.5,0,68.8,0,69c0,0.8,0.5,1.6,1.1,2 l10.2,6c0.3,0.3,0.8,0.2,1.1-0.1C12.6,76.7,12.6,76.5,12.6,76.3L12.6,76.3z"></path> <g transform="translate(1.887 27.754)"> <path class="st32" d="M12.6,22.3c-1.2-0.9-2.1-2-2.8-3.2c-0.9-1.5-1.4-3.1-1.4-4.8c-0.1-1.3,0.5-2.6,1.6-3.4 c1.1-0.5,2.3-0.5,3.3,0.1l0.5-9.3C10.2-0.3,6.8-0.5,4.2,1C1.5,2.5,0,5.7,0,9.8c0.1,4.5,1.4,8.9,3.8,12.8c2,3.6,4.9,6.7,8.3,9"></path> <path class="st33" d="M17.1,22.8c0.7,1.2,3.7,6.3,5.9,9.8c2.1-1.4,3.4-4,3.7-7.3l-8.4-4.7C18.2,21.5,17.8,22.3,17.1,22.8z"></path> <path class="st34" d="M18.5,19.6c0,0.1,0,0.2,0,0.4l8.3,4.7c0-0.2,0-0.4,0-0.6c-0.1-3.8-1-7.6-2.8-11C21.8,8.6,18.5,4.8,14.4,2 l-0.5,9.3C16.6,13.3,18.3,16.3,18.5,19.6z"></path> </g> </g> <path class="st35" d="M50.8,107.8c3.6,2.1,7.1,2.4,9.8,0.9c-0.4-0.6-1.7-2.8-3-4.9c-1.4-2.3-2.1-3.5-2.6-4.3 c-0.1-0.3-0.3-0.4-0.3-0.6c-1.2,0.4-2.5,0.2-3.5-0.5L50.8,107.8z"></path> </g> </g> </g> </svg> 