<?xml version="1.0" encoding="UTF-8"?> <!-- Generator: Adobe Illustrator 23.0.3, SVG Export Plug-In . SVG Version: 6.00 Build 0) --> <svg xmlns="http://www.w3.org/2000/svg" xmlns:xlink="http://www.w3.org/1999/xlink" id="Layer_1" x="0px" y="0px" viewBox="0 0 336 336" style="enable-background:new 0 0 336 336;" xml:space="preserve"> <style type="text/css"> .st0{fill:url(#SVGID_1_);} .st1{fill:url(#SVGID_2_);} .st2{fill:url(#SVGID_3_);} .st3{fill:#E62555;} </style> <g transform="translate(0 0)"> <linearGradient id="SVGID_1_" gradientUnits="userSpaceOnUse" x1="-781.2269" y1="705.652" x2="-781.2269" y2="704.652" gradientTransform="matrix(85.3 0 0 -110.812 66814.6797 78341.7031)"> <stop offset="0" style="stop-color:#FF5C9E"></stop> <stop offset="1" style="stop-color:#FF6680"></stop> </linearGradient> <path class="st0" d="M133.4,196.3l85.3-49.3v61.6l-85.3,49.2V196.3z"></path> </g> <g transform="translate(31.896)"> <linearGradient id="SVGID_2_" gradientUnits="userSpaceOnUse" x1="-817.6127" y1="701.9807" x2="-816.3997" y2="704.4647" gradientTransform="matrix(138.706 0 0 -80.024 113483.0313 56513.0195)"> <stop offset="0" style="stop-color:#FF295E"></stop> <stop offset="1" style="stop-color:#FF6B6B"></stop> </linearGradient> <path class="st1" d="M272.1,196.3L218.8,227l-85.4-49.2l53.4-30.8L272.1,196.3z"></path> </g> <g transform="translate(31.896 86.189)"> <linearGradient id="SVGID_3_" gradientUnits="userSpaceOnUse" x1="-817.0695" y1="618.256" x2="-815.8795" y2="620.0551" gradientTransform="matrix(138.711 0 0 -110.812 113487.1484 68790.9219)"> <stop offset="0" style="stop-color:#FF295E"></stop> <stop offset="1" style="stop-color:#FF6B6B"></stop> </linearGradient> <path class="st2" d="M272.1,208.6l-85.3,49.2L133.4,227l138.7-80L272.1,208.6z"></path> </g> <g transform="translate(0 86.188)"> <path class="st3" d="M133.4,208.6l85.3,49.2v-61.6L133.4,147V208.6z"></path> </g> <g transform="translate(31.896 30.835)"> <path class="st3" d="M171.4,186.6l-38-39.6l53.4,30.7L171.4,186.6z"></path> </g> </svg> 