<?xml version="1.0" encoding="UTF-8"?> <!-- Generator: Adobe Illustrator 23.0.3, SVG Export Plug-In . SVG Version: 6.00 Build 0) --> <svg xmlns="http://www.w3.org/2000/svg" xmlns:xlink="http://www.w3.org/1999/xlink" id="Layer_1" x="0px" y="0px" viewBox="0 0 688 524.3" style="enable-background:new 0 0 688 524.3;" xml:space="preserve"> <style type="text/css"> .st0{opacity:0.5;fill:#4C1605;enable-background:new ;} .st1{opacity:0.4;fill:#4C1605;enable-background:new ;} .st2{fill:#FFFFFF;} .st3{fill:#E1E8E5;} .st4{fill:url(#Path_1249_1_);} .st5{opacity:0.7;fill:#9B936C;enable-background:new ;} .st6{opacity:0.8;fill:#FFFFFF;enable-background:new ;} .st7{fill:#E4AA7F;} .st8{fill:url(#Path_1154_1_);} .st9{opacity:0.6;fill:#24126A;enable-background:new ;} .st10{fill:#300E1A;} .st11{fill:#9A5442;} .st12{opacity:0.96;fill:url(#Path_1158_1_);enable-background:new ;} .st13{opacity:0.8;fill:#97523F;enable-background:new ;} .st14{fill:#FF8565;} .st15{opacity:0.3;fill:#515160;enable-background:new ;} .st16{fill:#DD821F;} .st17{fill:#FFD85A;} .st18{fill:#F9BF30;} .st19{fill:#F2B42A;} .st20{opacity:0.24;fill:#0F054C;enable-background:new ;} .st21{opacity:0.3;fill:#0F054C;enable-background:new ;} </style> <g id="Ill" transform="translate(-275.123 -131.957)"> <path id="Path_1131" class="st0" d="M527.6,559.2L826.8,371l-121.9-76.5L515.2,426.7L429.1,534L527.6,559.2z"></path> <g id="Group_1307" transform="translate(309.976 212.172)"> <g id="Group_1306"> <g id="Group_1305"> <path id="Path_1246" class="st1" d="M435.5,417.9l185.6-107.1c4.8-2.8,4.2-7.6-1.3-10.8l-108.3-62.5c-5.5-3.2-13.9-3.5-18.7-0.8 L307.2,343.8c-4.8,2.8-4.2,7.6,1.3,10.8l108.3,62.5C422.3,420.3,430.7,420.6,435.5,417.9z"></path> <path id="Path_1247" class="st2" d="M275.1,266l2.8-0.4c0.3-0.2,0.6-0.4,1-0.6l219-126.4c5.7-3.3,15.5-2.9,22.1,0.9l127.7,73.8 c1.5,0.8,2.8,1.9,3.9,3.3l1.5-0.4v4.4l0,0c0,2.1-1.3,4-3.8,5.5l-219,126.4c-5.7,3.3-15.5,2.9-22.1-0.9l-127.7-73.8 c-3.6-2.1-5.5-4.8-5.4-7.4l0,0L275.1,266z"></path> <path id="Path_1248" class="st3" d="M430.4,348l219-126.4c5.7-3.3,5-9-1.6-12.7L520,135.1c-6.5-3.8-16.4-4.2-22.1-0.9 l-219,126.4c-5.7,3.3-4.9,9,1.6,12.7l127.7,73.8C414.8,350.9,424.7,351.3,430.4,348z"></path> <linearGradient id="Path_1249_1_" gradientUnits="userSpaceOnUse" x1="317.9242" y1="-0.9855" x2="317.4022" y2="0.5456" gradientTransform="matrix(378.0221 0 0 218.2511 -119659.0234 355.949)"> <stop offset="0" style="stop-color:#F6EFBF"></stop> <stop offset="1.500000e-02" style="stop-color:#F6EDC1"></stop> <stop offset="0.117" style="stop-color:#F8EDCF"></stop> <stop offset="0.315" style="stop-color:#FDF6E9"></stop> <stop offset="0.514" style="stop-color:#F6E6BF"></stop> <stop offset="0.622" style="stop-color:#F8F5CF"></stop> <stop offset="0.742" style="stop-color:#FDF6E8"></stop> <stop offset="0.755" style="stop-color:#FDFDE9"></stop> <stop offset="1" style="stop-color:#F6E9BF"></stop> </linearGradient> <path id="Path_1249" class="st4" d="M430.4,348l219-126.4c5.7-3.3,5-9-1.6-12.7L520,135.1c-6.5-3.8-16.4-4.2-22.1-0.9 l-219,126.4c-5.7,3.3-4.9,9,1.6,12.7l127.7,73.8C414.8,350.9,424.7,351.3,430.4,348z"></path> <path id="Path_1250" class="st5" d="M395,339.4l239.5-138.3l-25.4-14.7L369.6,324.8L395,339.4z"></path> <path id="Path_1251" class="st2" d="M649.3,218.9l-219,126.4c-5.7,3.3-15.5,2.9-22.1-0.9l-127.7-73.8c-2.9-1.7-4.7-3.8-5.2-5.8 c-0.8,2.9,1,6.1,5.2,8.5l127.7,73.8c6.5,3.8,16.4,4.2,22.1,0.9l219-126.4c3.1-1.8,4.3-4.4,3.6-6.9 C652.4,216.5,651,218,649.3,218.9z"></path> </g> <path id="Path_1252" class="st6" d="M398.8,278.5l72.1-41.6l-17.6-10.2l-72.1,41.6L398.8,278.5z"></path> </g> </g> <g id="Group_1239" transform="translate(0 289.092)"> <path id="Path_1153" class="st7" d="M275.1,153.9l0.1,20l0,0c0,0.3,0.2,0.6,0.5,0.7l217.7,124.9c0.9,0.4,1.9,0.4,2.8-0.1 l35.5-20.6c0.3-0.2,0.6-0.4,0.7-0.8l0,0l0,0c0,0,0,0,0-0.1l-0.1-20.2l-17.2,9.8l-201-115.1c-0.9-0.4-1.9-0.4-2.8,0.1l-12.2,7.1 L275.1,153.9z"></path> <linearGradient id="Path_1154_1_" gradientUnits="userSpaceOnUse" x1="935.8304" y1="-5.7975" x2="935.5325" y2="-6.8105" gradientTransform="matrix(257.1558 0 0 147.8217 -240612.2813 355.9704)"> <stop offset="0" style="stop-color:#F6E0BF"></stop> <stop offset="0.294" style="stop-color:#F6D6C3"></stop> <stop offset="0.64" style="stop-color:#F9F8D2"></stop> <stop offset="1" style="stop-color:#FCFDE9"></stop> </linearGradient> <path id="Path_1154" class="st8" d="M314.1,132.2l217.7,124.9c0.7,0.4,0.6,1.1-0.2,1.6l-35.5,20.6c-0.9,0.5-1.9,0.5-2.8,0.1 L275.6,154.6c-0.7-0.4-0.6-1.1,0.2-1.6l35.5-20.6C312.1,131.9,313.2,131.8,314.1,132.2z"></path> <path id="Path_1155" class="st9" d="M321.9,162.3L493,258.7c1.3-7,3.3-13.8,5.8-20.4l-170.8-98 C325.3,147.4,323.2,154.8,321.9,162.3z"></path> <path id="Path_1156" class="st10" d="M306.5,143.8l205.3,117.8c0.5,0.3,0.4,0.8-0.1,1.1l-8.9,5.2c-0.6,0.3-1.3,0.4-1.9,0.1 L295.6,150.1c-0.5-0.3-0.4-0.8,0.1-1.1l8.9-5.2C305.2,143.5,305.9,143.5,306.5,143.8z"></path> <path id="Path_1157" class="st11" d="M295.6,150.1l4.2,2.4l4.8-2.8c0.6-0.3,1.3-0.4,1.9-0.1L507.6,265l4.1-2.4 c0.6-0.3,0.6-0.8,0.1-1.1L306.5,143.8c-0.6-0.3-1.3-0.2-1.9,0.1l-8.9,5.2C295.1,149.4,295.1,149.9,295.6,150.1z"></path> </g> <linearGradient id="Path_1158_1_" gradientUnits="userSpaceOnUse" x1="938.2606" y1="-0.5904" x2="937.7045" y2="0.5136" gradientTransform="matrix(510.1125 0 0 415.851 -477909 355.9769)"> <stop offset="0" style="stop-color:#F6E7BF"></stop> <stop offset="7.500000e-02" style="stop-color:#F6EFC1"></stop> <stop offset="0.117" style="stop-color:#F8E9CF"></stop> <stop offset="0.315" style="stop-color:#FDFAE9"></stop> <stop offset="0.473" style="stop-color:#F6F1DF"></stop> <stop offset="0.622" style="stop-color:#F8F3CF"></stop> <stop offset="0.742" style="stop-color:#FDFCE8"></stop> <stop offset="0.755" style="stop-color:#FDFAE9"></stop> <stop offset="1" style="stop-color:#F6CCBF"></stop> </linearGradient> <path id="Path_1158" class="st12" d="M824.1,230l-170.8-98l0,0c0.1,30.6-21.3,67.9-47.8,83.2L370.1,351.9 C339,370,313.9,413.8,314,449.8l0,0l170.8,98l0,0c-0.1-36,25-79.8,56.1-97.9l235.4-136.7C802.8,297.8,824.2,260.6,824.1,230 L824.1,230z"></path> <path id="Path_1159" class="st13" d="M314,449.8l170.8,98c0-1.6,0.1-3.2,0.1-4.8l0,0l-170.8-98C314,446.6,314,448.2,314,449.8z"></path> <path id="Path_1160" class="st14" d="M561.3,376.3l38.7,22.2l-3.7,2.2l-38.7-22.2L561.3,376.3z"></path> <path id="Path_1161" class="st14" d="M541.5,364.9l13.9,8l-3.7,2.2l-13.9-8L541.5,364.9z"></path> <path id="Path_1162" class="st14" d="M526.1,356.1l9.5,5.4l-3.7,2.2l-9.5-5.4L526.1,356.1z"></path> <path id="Path_1163" class="st14" d="M587.4,381.5l21.1,12.1l-3.7,2.2l-21.1-12.1L587.4,381.5z"></path> <path id="Path_1164" class="st14" d="M555.7,363.3l25.8,14.8l-3.7,2.2L552,365.4L555.7,363.3z"></path> <path id="Path_1165" class="st14" d="M540.3,354.4l9.5,5.4L546,362l-9.5-5.4L540.3,354.4z"></path> <path id="Path_1166" class="st14" d="M525.7,346l9.5,5.4l-3.7,2.2l-9.5-5.4L525.7,346z"></path> <path id="Path_1167" class="st14" d="M601.8,379.9l15.3,8.8l-3.7,2.2L598,382L601.8,379.9z"></path> <path id="Path_1168" class="st14" d="M590.6,373.5l5.2,3l-3.7,2.2l-5.2-3L590.6,373.5z"></path> <path id="Path_1169" class="st14" d="M575.3,364.7l9.5,5.4l-3.7,2.2l-9.5-5.4L575.3,364.7z"></path> <path id="Path_1170" class="st14" d="M569.2,351.4l56.3,32.3l-3.7,2.2l-56.3-32.3L569.2,351.4z"></path> <path id="Path_1171" class="st14" d="M549.4,340l13.9,8l-3.7,2.2l-13.9-8L549.4,340z"></path> <path id="Path_1172" class="st14" d="M618.8,370l15.3,8.8l-3.7,2.2l-15.3-8.8L618.8,370z"></path> <path id="Path_1173" class="st14" d="M583,349.5l29.9,17.1l-3.7,2.2l-29.9-17.1L583,349.5z"></path> <path id="Path_1174" class="st14" d="M567.6,340.6l9.5,5.4l-3.7,2.2l-9.5-5.4L567.6,340.6z"></path> <path id="Path_1175" class="st14" d="M611.3,355.9l31.2,17.9l-3.7,2.2l-31.2-17.9L611.3,355.9z"></path> <path id="Path_1176" class="st14" d="M582.8,339.6l22.6,13l-3.7,2.2l-22.6-12.9L582.8,339.6z"></path> <path id="Path_1177" class="st14" d="M561.7,327.4l15.3,8.8l-3.7,2.2l-15.3-8.8L561.7,327.4z"></path> <path id="Path_1178" class="st14" d="M640.5,362.8l10.5,6l-3.7,2.2l-10.5-6L640.5,362.8z"></path> <path id="Path_1179" class="st14" d="M620.6,351.4l13.9,8l-3.7,2.2l-13.9-8L620.6,351.4z"></path> <path id="Path_1180" class="st14" d="M592.3,335.2l22.4,12.9l-3.7,2.2l-22.4-12.9L592.3,335.2z"></path> <path id="Path_1181" class="st14" d="M627.2,345.4l32.3,18.5l-3.7,2.2l-32.3-18.5L627.2,345.4z"></path> <path id="Path_1182" class="st14" d="M591.1,324.7l30.3,17.4l-3.7,2.2l-30.3-17.4L591.1,324.7z"></path> <path id="Path_1183" class="st14" d="M575.7,315.8l9.5,5.4l-3.7,2.2L572,318L575.7,315.8z"></path> <path id="Path_1184" class="st14" d="M560.9,307.4l9.5,5.4l-3.7,2.2l-9.5-5.4L560.9,307.4z"></path> <path id="Path_1185" class="st14" d="M648.7,347.9L668,359l-3.7,2.2L645,350.1L648.7,347.9z"></path> <path id="Path_1186" class="st14" d="M482.8,331.3L456,315.9l-3.7,2.2l26.8,15.4L482.8,331.3z"></path> <path id="Path_1187" class="st14" d="M485.6,323l-21.1-12.1l-3.7,2.2l21.1,12.1L485.6,323z"></path> <path id="Path_1188" class="st14" d="M488.3,314.8L473,306l-3.7,2.2l15.3,8.8L488.3,314.8z"></path> <path id="Path_1189" class="st14" d="M503.7,313.8l-22.2-12.7l-3.7,2.2L500,316L503.7,313.8z"></path> <path id="Path_1190" class="st14" d="M505.3,304.9l-15.3-8.8l-3.7,2.2l15.3,8.8L505.3,304.9z"></path> <path id="Path_1191" class="st14" d="M517.9,302.3l-19.3-11.1l-3.7,2.2l19.3,11.1L517.9,302.3z"></path> <path id="Path_1192" class="st14" d="M517.6,292.3l-10.5-6l-3.7,2.2l10.5,6L517.6,292.3z"></path> <path id="Path_1193" class="st14" d="M536,293l-20.4-11.7l-3.7,2.2l20.4,11.7L536,293z"></path> <path id="Path_1194" class="st14" d="M543.4,287.5L524,276.4l-3.7,2.2l19.3,11.1L543.4,287.5z"></path> <path id="Path_1195" class="st14" d="M634.5,339.8l8.2,4.7l-3.7,2.2l-8.2-4.7L634.5,339.8z"></path> <path id="Path_1196" class="st14" d="M610.1,325.8l18.5,10.6l-3.7,2.2L606.4,328L610.1,325.8z"></path> <path id="Path_1197" class="st14" d="M633.2,287.9l31.2,17.9l-3.7,2.2l-31.2-18L633.2,287.9z"></path> <path id="Path_1198" class="st14" d="M611.8,275.6l12.3,7.1l-3.7,2.2l-12.3-7.1L611.8,275.6z"></path> <ellipse id="Ellipse_179" transform="matrix(0.3303 -0.9439 0.9439 0.3303 177.5778 762.3879)" class="st15" cx="626" cy="256.1" rx="18" ry="58.7"></ellipse> <path id="Path_1132" class="st16" d="M648.1,202.5l-0.4-9.7l-2.2-5.6l-1.4,4.7L648.1,202.5z"></path> <path id="Path_1133" class="st17" d="M546.8,204.4l-0.4-9.5c0,0,8,8,8,8.2S546.8,204.4,546.8,204.4z"></path> <path id="Path_1134" class="st17" d="M598.1,232.5c28-0.7,50.2-14.9,49.6-39.6c-0.6-24.7-23.8-44.2-51.7-43.5 c-28,0.7-50.2,21.2-49.6,45.9S570.1,233.1,598.1,232.5z"></path> <ellipse id="Ellipse_180" transform="matrix(0.9997 -2.392651e-02 2.392651e-02 0.9997 -4.7028 14.3518)" class="st17" cx="597.4" cy="203.7" rx="50.7" ry="44.7"></ellipse> <path id="Path_1135" class="st16" d="M632.8,171.5c9.2,7.9,15,18.8,15.3,31c0.6,24.7-21.6,45.3-49.6,45.9c-13,0.4-25.7-3.8-35.8-12 L632.8,171.5z"></path> <ellipse id="Ellipse_181" transform="matrix(0.9997 -2.394395e-02 2.394395e-02 0.9997 -4.7061 14.3623)" class="st18" cx="597.4" cy="203.7" rx="48.4" ry="42.7"></ellipse> <ellipse id="Ellipse_182" transform="matrix(0.9997 -2.399338e-02 2.399338e-02 0.9997 -4.7154 14.3921)" class="st19" cx="597.4" cy="203.7" rx="38.9" ry="34.3"></ellipse> <path id="Path_1136" class="st17" d="M558.6,204.7c0-0.8,0-1.6,0-2.3c1.8,17.8,19,31.5,39.5,31c20.6-0.5,37.1-15,38-32.9 c0.1,0.8,0.1,1.5,0.2,2.3c0.5,18.9-16.6,34.7-38,35.2C576.8,238.5,559,223.6,558.6,204.7z"></path> <path id="Path_1137" class="st17" d="M590,206.6l8-7.4c7.7,1.7,22,5,33.4,7.7c-2.8,8.5-9.8,15.6-18.8,19.3L590,206.6z"></path> <path id="Path_1138" class="st17" d="M602.5,228.9c-1.3,0.2-2.6,0.3-3.9,0.3c-8.8,0.3-17.4-2.6-24.4-8l13-12L602.5,228.9z"></path> <path id="Path_1139" class="st17" d="M606.5,191.3l15-13.9c5,4.4,9.6,9.3,10.8,15.8L606.5,191.3z"></path> <path id="Path_1140" class="st16" d="M598.6,173.5c-21.5,0.5-38.5,16.3-38,35.2c0.1,3.8,0.9,7.5,2.3,10.9c-2.7-4.6-4.2-9.7-4.3-15 c-0.5-18.9,16.6-34.7,38-35.2c17.1-0.4,31.9,9,37.4,22.4C627.4,180.7,613.9,173.2,598.6,173.5z"></path> <path id="Path_1141" class="st16" d="M647.7,192.9c0.1,3.7,0.4,6.3-0.4,9.8c-1.1-3.6-3.5-14.5-3.5-14.5l-3.9-8.6l-3.2-2.6l-5.4-4 l-0.4-12.4C640.9,168.5,647.4,179.9,647.7,192.9z"></path> <path id="Path_1142" class="st16" d="M549.7,191.6l-0.2-2.5c0-0.4-0.3-0.6-0.6-0.6h-0.2c-0.4,0-0.6,0.3-0.6,0.7l0.2,2.5 c0,0.4,0.3,0.6,0.6,0.6h0.2C549.4,192.3,549.7,192,549.7,191.6z"></path> <path id="Path_1143" class="st16" d="M554.1,181.8l-0.3-4.6c0-0.4-0.3-0.7-0.7-0.7h-0.4c-0.4,0-0.7,0.4-0.7,0.8l0,0l0.3,4.6 c0,0.4,0.3,0.7,0.7,0.7h0.4C553.8,182.6,554.1,182.3,554.1,181.8z"></path> <path id="Path_1144" class="st16" d="M560.3,173.3l-0.3-4.4c0-0.5-0.4-0.8-0.8-0.8h-0.8c-0.5,0-0.8,0.4-0.8,0.9l0.3,4.4 c0,0.5,0.4,0.8,0.8,0.8h0.8C559.9,174.2,560.3,173.8,560.3,173.3z"></path> <path id="Path_1145" class="st16" d="M569.5,166.5l-0.3-5.4c0-0.5-0.4-0.8-0.8-0.8h-0.8c-0.5,0-0.8,0.4-0.8,0.9l0,0l0.3,5.4 c0,0.5,0.4,0.8,0.8,0.8h0.8C569.2,167.3,569.5,166.9,569.5,166.5z"></path> <path id="Path_1146" class="st16" d="M578.8,162l-0.3-6.2c0-0.5-0.4-0.8-0.8-0.8l0,0h-0.8c-0.5,0-0.8,0.4-0.8,0.9l0.3,6.2 c0,0.5,0.4,0.8,0.8,0.8l0,0h0.8C578.5,162.8,578.8,162.4,578.8,162L578.8,162z"></path> <path id="Path_1147" class="st16" d="M588.1,159.2l-0.3-6c0-0.5-0.4-0.8-0.8-0.8h-0.8c-0.5,0-0.8,0.4-0.8,0.9l0.3,6 c0,0.5,0.4,0.8,0.8,0.8h0.8C587.8,160.1,588.2,159.7,588.1,159.2L588.1,159.2z"></path> <path id="Path_1148" class="st16" d="M597.5,158.3l-0.3-6c0-0.5-0.4-0.8-0.8-0.8l0,0h-0.8c-0.5,0-0.8,0.4-0.8,0.9l0.3,6 c0,0.5,0.4,0.8,0.8,0.8h0.8C597.2,159.1,597.5,158.7,597.5,158.3z"></path> <path id="Path_1149" class="st16" d="M606.9,158.5l-0.3-5.7c0-0.5-0.4-0.8-0.8-0.8l0,0H605c-0.5,0-0.8,0.4-0.8,0.9l0.3,5.7 c0,0.5,0.4,0.8,0.8,0.8l0,0h0.8C606.6,159.3,606.9,158.9,606.9,158.5z"></path> <path id="Path_1150" class="st16" d="M616.4,160.5l-0.3-5.5c0-0.5-0.4-0.8-0.8-0.8h-0.8c-0.5,0-0.8,0.4-0.8,0.9l0.3,5.5 c0,0.5,0.4,0.8,0.8,0.8h0.8C616,161.4,616.4,161,616.4,160.5L616.4,160.5z"></path> <path id="Path_1151" class="st16" d="M625.9,165.1l-0.3-5.9c0-0.5-0.4-0.8-0.8-0.8H624c-0.5,0-0.8,0.4-0.8,0.9l0.3,5.9 c0,0.5,0.4,0.8,0.8,0.8h0.8C625.6,166,625.9,165.6,625.9,165.1z"></path> <ellipse id="Ellipse_183" transform="matrix(0.3303 -0.9439 0.9439 0.3303 4.4273 740.4124)" class="st20" cx="524" cy="367.1" rx="23.2" ry="75.6"></ellipse> <path id="Path_1199" class="st16" d="M552.4,298.1l-0.5-12.4l-2.9-7.3l-1.8,6L552.4,298.1z"></path> <path id="Path_1200" class="st17" d="M421.9,300.5l-0.5-12.2c0,0,10.3,10.3,10.3,10.5C431.7,299.1,421.9,300.5,421.9,300.5z"></path> <path id="Path_1201" class="st17" d="M488,336.7c36-0.9,64.6-19.2,63.8-51s-30.6-56.9-66.6-56s-64.6,27.3-63.8,59.1 S452,337.5,488,336.7z"></path> <ellipse id="Ellipse_184" transform="matrix(0.9997 -2.399338e-02 2.399338e-02 0.9997 -7.0505 11.7757)" class="st17" cx="487.2" cy="299.7" rx="65.3" ry="57.6"></ellipse> <path id="Path_1202" class="st16" d="M532.7,258.2c11.8,10.1,19.3,24.2,19.7,39.9c0.8,31.8-27.8,58.3-63.8,59.1 c-17.8,0.4-34.1-5.5-46.1-15.4L532.7,258.2z"></path> <ellipse id="Ellipse_185" transform="matrix(0.9997 -2.394346e-02 2.394346e-02 0.9997 -7.0361 11.7486)" class="st18" cx="487.1" cy="299.7" rx="62.3" ry="55"></ellipse> <ellipse id="Ellipse_186" transform="matrix(0.9997 -2.399338e-02 2.399338e-02 0.9997 -7.0505 11.7757)" class="st19" cx="487.2" cy="299.7" rx="50" ry="44.2"></ellipse> <path id="Path_1203" class="st17" d="M437.1,300.9c0-1,0-2,0.1-3c2.3,22.9,24.4,40.6,50.9,40c26.5-0.6,47.7-19.3,48.9-42.3 c0.1,1,0.2,2,0.2,3c0.6,24.4-21.3,44.7-49,45.4C460.6,344.5,437.7,325.3,437.1,300.9z"></path> <path id="Path_1204" class="st17" d="M477.5,303.4l10.3-9.5c9.9,2.2,28.3,6.4,43,9.9c-3.7,11-12.6,20.1-24.2,24.9L477.5,303.4z"></path> <path id="Path_1205" class="st17" d="M493.7,332.1c-1.6,0.2-3.3,0.3-5,0.4c-11.3,0.4-22.5-3.3-31.4-10.3l16.7-15.5L493.7,332.1z"></path> <path id="Path_1206" class="st17" d="M498.8,283.7l19.3-17.9c6.5,5.7,12.3,11.9,13.9,20.3L498.8,283.7z"></path> <path id="Path_1207" class="st16" d="M488.7,260.8c-27.6,0.7-49.5,21-49,45.4c0.1,4.8,1.1,9.6,3,14.1c-3.5-5.9-5.4-12.5-5.6-19.3 c-0.6-24.4,21.3-44.7,49-45.4c22-0.5,41,11.6,48.1,28.9C525.7,270,508.4,260.3,488.7,260.8z"></path> <path id="Path_1208" class="st16" d="M551.9,285.7c0.1,4.7,0.6,8.2-0.6,12.6c-1.4-4.7-4.6-18.6-4.6-18.6l-5-11.1l-4.1-3.4l-7-5.1 l-0.6-16C543.1,254.3,551.5,269.1,551.9,285.7z"></path> <path id="Path_1209" class="st16" d="M425.6,284.1l-0.3-3.3c0-0.5-0.4-0.8-0.8-0.8l0,0h-0.2c-0.5,0-0.8,0.4-0.8,0.9l0.3,3.3 c0,0.5,0.4,0.8,0.8,0.8l0,0h0.2C425.3,284.9,425.7,284.5,425.6,284.1L425.6,284.1z"></path> <path id="Path_1210" class="st16" d="M431.4,271.5l-0.3-5.9c0-0.5-0.4-0.9-0.9-0.9l0,0h-0.6c-0.5,0-0.9,0.5-0.9,1l0.3,5.9 c0,0.5,0.4,0.9,0.9,0.9h0.6C431,272.5,431.4,272,431.4,271.5z"></path> <path id="Path_1211" class="st16" d="M439.3,260.6l-0.3-5.7c0-0.6-0.5-1.1-1.1-1.1h-1c-0.6,0-1,0.5-1,1.1l0.3,5.7 c0,0.6,0.5,1.1,1.1,1.1h1C438.9,261.6,439.3,261.1,439.3,260.6z"></path> <path id="Path_1212" class="st16" d="M451.2,251.7l-0.4-6.9c0-0.6-0.5-1.1-1.1-1.1h-1c-0.6,0-1,0.5-1,1.1l0.4,6.9 c0,0.6,0.5,1.1,1.1,1.1h1C450.8,252.8,451.2,252.3,451.2,251.7z"></path> <path id="Path_1213" class="st16" d="M463.2,245.9l-0.4-8c0-0.6-0.5-1.1-1.1-1.1h-1c-0.6,0-1,0.5-1,1.1l0.4,8 c0,0.6,0.5,1.1,1.1,1.1l0,0h1C462.8,247,463.2,246.5,463.2,245.9z"></path> <path id="Path_1214" class="st16" d="M475.2,242.4l-0.4-7.7c0-0.6-0.5-1.1-1.1-1.1l0,0h-1c-0.6,0-1,0.5-1,1.1l0,0l0.4,7.7 c0,0.6,0.5,1.1,1.1,1.1h1C474.8,243.5,475.2,243,475.2,242.4z"></path> <path id="Path_1215" class="st16" d="M487.3,241.2l-0.4-7.8c0-0.6-0.5-1.1-1.1-1.1l0,0h-1c-0.6,0-1,0.5-1,1.1l0.4,7.8 c0,0.6,0.5,1.1,1.1,1.1h1C486.8,242.2,487.3,241.7,487.3,241.2z"></path> <path id="Path_1216" class="st16" d="M499.4,241.4l-0.4-7.3c0-0.6-0.5-1.1-1.1-1.1h-1c-0.6,0-1,0.5-1,1.1l0.4,7.3 c0,0.6,0.5,1.1,1.1,1.1l0,0h1C499,242.5,499.4,242,499.4,241.4z"></path> <path id="Path_1217" class="st16" d="M511.5,244.1l-0.4-7.1c0-0.6-0.5-1.1-1.1-1.1l0,0h-1c-0.6,0-1,0.5-1,1.1l0.4,7.1 c0,0.6,0.5,1.1,1.1,1.1h1C511.1,245.2,511.6,244.7,511.5,244.1z"></path> <path id="Path_1218" class="st16" d="M523.8,250l-0.4-7.6c0-0.6-0.5-1.1-1.1-1.1h-1c-0.6,0-1,0.5-1,1.1l0.4,7.6 c0,0.6,0.5,1.1,1.1,1.1h1C523.4,251.1,523.8,250.6,523.8,250z"></path> <ellipse id="Ellipse_187" transform="matrix(0.3107 -0.9505 0.9505 0.3107 14.9778 1052.6359)" class="st21" cx="733.2" cy="516" rx="14.6" ry="49.9"></ellipse> <path id="Path_1220" class="st16" d="M773.5,463.8l-0.4-10.9l-2.5-6.4l-1.6,5.3L773.5,463.8z"></path> <path id="Path_1221" class="st17" d="M658.9,465.9l-0.4-10.7c0,0,9.1,9,9.1,9.3S658.9,465.9,658.9,465.9z"></path> <path id="Path_1222" class="st17" d="M717,497.6c31.6-0.8,56.7-16.8,56-44.7s-26.8-49.9-58.5-49.2c-31.6,0.8-56.7,24-56,51.9 S685.4,498.4,717,497.6z"></path> <ellipse id="Ellipse_188" transform="matrix(0.9997 -2.399338e-02 2.399338e-02 0.9997 -10.9554 17.3178)" class="st17" cx="716.2" cy="465.2" rx="57.3" ry="50.6"></ellipse> <path id="Path_1223" class="st16" d="M756.2,428.7c10.4,8.9,17,21.2,17.3,35c0.7,27.9-24.4,51.2-56,51.9 c-14.7,0.5-29.1-4.3-40.5-13.6L756.2,428.7z"></path> <ellipse id="Ellipse_189" transform="matrix(0.9997 -2.399338e-02 2.399338e-02 0.9997 -10.9554 17.3178)" class="st18" cx="716.2" cy="465.2" rx="54.7" ry="48.3"></ellipse> <ellipse id="Ellipse_190" transform="matrix(0.9997 -2.392651e-02 2.392651e-02 0.9997 -10.923 17.269)" class="st19" cx="716.2" cy="465.1" rx="43.9" ry="38.8"></ellipse> <path id="Path_1224" class="st17" d="M672.3,466.2c0-0.9,0-1.8,0-2.6c2,20.1,21.4,35.6,44.7,35.1c23.2-0.6,41.9-17,42.9-37.2 c0.1,0.9,0.2,1.7,0.2,2.6c0.5,21.4-18.7,39.2-43,39.8S672.8,487.6,672.3,466.2z"></path> <path id="Path_1225" class="st17" d="M707.8,468.4l9-8.3c8.7,2,24.8,5.7,37.8,8.7c-3.2,9.7-11,17.6-21.3,21.9L707.8,468.4z"></path> <path id="Path_1226" class="st17" d="M722,493.6c-1.4,0.2-2.9,0.3-4.4,0.3c-10,0.3-19.7-2.9-27.5-9.1l14.7-13.6L722,493.6z"></path> <path id="Path_1227" class="st17" d="M726.5,451.1l17-15.7c5.7,5,10.8,10.5,12.2,17.8L726.5,451.1z"></path> <path id="Path_1228" class="st16" d="M717.6,431c-24.3,0.6-43.5,18.4-43,39.8c0.1,4.2,1,8.4,2.6,12.3c-3.1-5.1-4.7-11-4.9-17 c-0.5-21.4,18.7-39.2,43-39.8c19.3-0.5,36,10.2,42.2,25.4C750.1,439.1,734.9,430.6,717.6,431z"></path> <path id="Path_1229" class="st16" d="M773,452.9c0.1,4.2,0.5,7.2-0.5,11c-1.3-4.1-4-16.3-4-16.3l-4.4-9.7l-3.6-3l-6.1-4.5l-0.5-14 C765.3,425.3,772.7,438.3,773,452.9z"></path> <path id="Path_1230" class="st16" d="M662.2,451.4l-0.2-2.9c0-0.4-0.3-0.7-0.7-0.7H661c-0.4,0-0.7,0.4-0.7,0.8l0.2,2.9 c0,0.4,0.3,0.7,0.7,0.7h0.2C661.9,452.2,662.2,451.8,662.2,451.4z"></path> <path id="Path_1231" class="st16" d="M667.3,440.4l-0.3-5.2c0-0.5-0.4-0.8-0.8-0.8l0,0h-0.5c-0.5,0-0.8,0.4-0.8,0.9l0.3,5.2 c0,0.5,0.4,0.8,0.8,0.8h0.5C666.9,441.3,667.3,440.9,667.3,440.4z"></path> <path id="Path_1232" class="st16" d="M674.2,430.8l-0.3-5c0-0.5-0.4-0.9-0.9-0.9h-0.9c-0.5,0-0.9,0.5-0.9,1l0,0l0.3,5 c0,0.5,0.4,0.9,0.9,0.9h0.9C673.9,431.8,674.3,431.3,674.2,430.8z"></path> <path id="Path_1233" class="st16" d="M684.7,423l-0.3-6.1c0-0.5-0.4-0.9-0.9-0.9l0,0h-0.9c-0.5,0-0.9,0.5-0.9,1l0,0l0.3,6.1 c0,0.5,0.4,0.9,0.9,0.9l0,0h0.9C684.3,424,684.7,423.5,684.7,423z"></path> <path id="Path_1234" class="st16" d="M695.2,417.9l-0.3-7c0-0.5-0.4-0.9-0.9-0.9h-0.9c-0.5,0-0.9,0.5-0.9,1l0,0l0.3,7 c0,0.5,0.4,0.9,0.9,0.9h0.9C694.8,418.9,695.2,418.5,695.2,417.9L695.2,417.9z"></path> <path id="Path_1235" class="st16" d="M705.7,414.8l-0.3-6.7c0-0.5-0.4-0.9-0.9-0.9l0,0h-0.9c-0.5,0-0.9,0.5-0.9,1l0.3,6.7 c0,0.5,0.4,0.9,0.9,0.9h0.9C705.4,415.8,705.8,415.3,705.7,414.8z"></path> <path id="Path_1236" class="st16" d="M716.3,413.8L716,407c0-0.5-0.4-0.9-0.9-0.9h-0.9c-0.5,0-0.9,0.5-0.9,1l0.3,6.8 c0,0.5,0.4,0.9,0.9,0.9h0.9C716,414.7,716.4,414.3,716.3,413.8z"></path> <path id="Path_1237" class="st16" d="M727,414l-0.3-6.4c0-0.5-0.4-0.9-0.9-0.9l0,0h-0.9c-0.5,0-0.9,0.5-0.9,1l0,0l0.3,6.4 c0,0.5,0.4,0.9,0.9,0.9h0.9C726.6,414.9,727,414.5,727,414z"></path> <path id="Path_1238" class="st16" d="M737.6,416.3l-0.3-6.2c0-0.5-0.4-0.9-0.9-0.9h-0.9c-0.5,0-0.9,0.5-0.9,1l0.3,6.2 c0,0.5,0.4,0.9,0.9,0.9h0.9C737.3,417.3,737.7,416.8,737.6,416.3L737.6,416.3z"></path> <path id="Path_1239" class="st16" d="M748.4,421.5l-0.3-6.7c0-0.5-0.4-0.9-0.9-0.9l0,0h-0.9c-0.5,0-0.9,0.5-0.9,1l0.3,6.7 c0,0.5,0.4,0.9,0.9,0.9l0,0h0.9C748,422.5,748.4,422.1,748.4,421.5z"></path> </g> </svg> 