<?xml version="1.0" encoding="UTF-8"?> <!-- Generator: Adobe Illustrator 23.0.3, SVG Export Plug-In . SVG Version: 6.00 Build 0) --> <svg xmlns="http://www.w3.org/2000/svg" xmlns:xlink="http://www.w3.org/1999/xlink" id="Card1" x="0px" y="0px" viewBox="0 0 808 488" style="enable-background:new 0 0 808 488;" xml:space="preserve"> <style type="text/css"> .st0{fill:url(#BG_1_);} .st1{fill:none;stroke:#FFFFFF;stroke-width:3;stroke-linecap:round;stroke-linejoin:round;} .st2{fill:#FFFFFF;} </style> <linearGradient id="BG_1_" gradientUnits="userSpaceOnUse" x1="221.6436" y1="394.1901" x2="222.6536" y2="393.1901" gradientTransform="matrix(808 0 0 -488 -179090 192366)"> <stop offset="0" style="stop-color:#FD7D7D"></stop> <stop offset="0.268" style="stop-color:#FE9276"></stop> <stop offset="0.736" style="stop-color:#FDBF54"></stop> <stop offset="1" style="stop-color:#FFA763"></stop> </linearGradient> <path id="BG" class="st0" d="M36,0h736c19.9,0,36,16.1,36,36v416c0,19.9-16.1,36-36,36H36c-19.9,0-36-16.1-36-36V36 C0,16.1,16.1,0,36,0z"></path> <path id="Path_1402" class="st1" d="M75.8,107.9l24.6-14.2L81.2,73.6l27.1,15.6l0,0l16.2,9.3l27-15.6l-43.2-25L65,83v49.9l16.2,9.3 l0,0l27.1,15.6l43.2-25v-31.2l-43.3,24.9L75.8,107.9z"></path> <path class="st2" d="M85.5,438l0-18.6l-9.2,15.4h-2.3l-9.2-15.1V438h-5v-28H64l11.1,18.6L86.1,410h4.3l0,28H85.5z"></path> <path class="st2" d="M109.8,416.4v4.8c-0.4-0.1-0.8-0.1-1.2-0.1c-3.8,0-6.2,2.2-6.2,6.6V438h-5v-21.4h4.8v3.1 C103.7,417.5,106.3,416.4,109.8,416.4z"></path> <path class="st2" d="M112.2,435c0-2,1.5-3.3,3.3-3.3c1.8,0,3.3,1.3,3.3,3.3c0,1.9-1.5,3.3-3.3,3.3 C113.7,438.3,112.2,436.9,112.2,435z"></path> <path class="st2" d="M147.2,428.1v9.9H142v-9.8L131,410h5.6l8.2,13.6l8.3-13.6h5.1L147.2,428.1z"></path> <path class="st2" d="M157,427.3c0-6.4,4.8-10.9,11.4-10.9c6.6,0,11.4,4.5,11.4,10.9c0,6.4-4.8,11-11.4,11 C161.8,438.3,157,433.7,157,427.3z M174.7,427.3c0-4.1-2.7-6.7-6.4-6.7c-3.6,0-6.3,2.6-6.3,6.7c0,4.1,2.7,6.7,6.3,6.7 C172,434,174.7,431.4,174.7,427.3z"></path> <path class="st2" d="M205.2,416.6V438h-4.8v-2.7c-1.6,2-4.1,3-6.9,3c-5.5,0-9.2-3-9.2-9.4v-12.2h5v11.5c0,3.9,1.8,5.7,5,5.7 c3.5,0,5.8-2.2,5.8-6.4v-10.8H205.2z"></path> <path class="st2" d="M215,414.4h-9.3V410h23.8v4.4h-9.3V438H215V414.4z"></path> <path class="st2" d="M253,416.6V438h-4.8v-2.7c-1.6,2-4.1,3-6.9,3c-5.5,0-9.2-3-9.2-9.4v-12.2h5v11.5c0,3.9,1.8,5.7,5,5.7 c3.5,0,5.8-2.2,5.8-6.4v-10.8H253z"></path> <path class="st2" d="M282.3,427.3c0,6.6-4.6,11-10.8,11c-2.9,0-5.4-1-7.1-3v2.8h-4.8v-29.7h5v10.9c1.7-1.9,4.1-2.8,6.8-2.8 C277.7,416.4,282.3,420.7,282.3,427.3z M277.2,427.3c0-4.1-2.7-6.7-6.3-6.7s-6.4,2.6-6.4,6.7c0,4.1,2.8,6.7,6.4,6.7 S277.2,431.4,277.2,427.3z"></path> <path class="st2" d="M307,428.9h-16.8c0.6,3.1,3.2,5.1,6.9,5.1c2.4,0,4.3-0.8,5.8-2.3l2.7,3.1c-1.9,2.3-4.9,3.5-8.6,3.5 c-7.2,0-11.8-4.6-11.8-11c0-6.4,4.7-10.9,11-10.9c6.2,0,10.8,4.4,10.8,11C307.1,427.8,307.1,428.4,307,428.9z M290.2,425.6h12.1 c-0.4-3.1-2.8-5.2-6-5.2C293.1,420.4,290.7,422.5,290.2,425.6z"></path> <path class="st2" d="M324.3,416.4v4.8c-0.4-0.1-0.8-0.1-1.2-0.1c-3.8,0-6.2,2.2-6.2,6.6V438h-5v-21.4h4.8v3.1 C318.1,417.5,320.7,416.4,324.3,416.4z"></path> <path class="st2" d="M619.8,68v28h-5.2V72.4h-5.9V68H619.8z"></path> <path class="st2" d="M645.7,87.4c0,4.9-3.6,9-11.1,9c-4,0-8-1.2-10.5-3.2l2.2-4c2,1.7,5.1,2.8,8.2,2.8c3.7,0,5.9-1.6,5.9-4.3 c0-2.7-1.7-4.4-7.5-4.4h-6.8l1.4-15.2h16.4v4.4h-12l-0.6,6.5h2.7C642.4,78.8,645.7,82.4,645.7,87.4z"></path> <path class="st2" d="M648.5,93c0-2,1.5-3.3,3.3-3.3c1.8,0,3.3,1.3,3.3,3.3c0,1.9-1.5,3.3-3.3,3.3C650,96.3,648.5,94.9,648.5,93z"></path> <path class="st2" d="M678.7,87.6c0,4.7-3.6,8.8-11.1,8.8c-4,0-7.9-1.2-10.5-3.2l2.2-4c2,1.7,5,2.8,8.2,2.8c3.7,0,5.9-1.6,5.9-4.2 c0-2.5-1.8-4.2-6.1-4.2h-2.6v-3.6l6.4-7.6h-12.7V68h19.1v3.5l-6.8,8.1C676.1,80.2,678.7,83.4,678.7,87.6z"></path> <path class="st2" d="M707.1,89.6h-5V96h-5v-6.4h-15.4V86l13.8-18h5.6l-13,17.2h9.2v-5.6h4.9v5.6h5V89.6z"></path> <path class="st2" d="M729.5,87.4c0,4.9-3.6,9-11.1,9c-4,0-8-1.2-10.5-3.2l2.2-4c2,1.7,5.1,2.8,8.2,2.8c3.7,0,5.9-1.6,5.9-4.3 c0-2.7-1.7-4.4-7.5-4.4H710l1.4-15.2h16.4v4.4h-12l-0.6,6.5h2.7C726.2,78.8,729.5,82.4,729.5,87.4z"></path> <path class="st2" d="M745.3,96.3v4.5H742v-4.4c-3.9-0.2-7.7-1.5-9.8-3.3l1.8-4c2,1.6,5,2.8,8,3v-8c-4.4-1.1-9.2-2.5-9.2-8.1 c0-4.1,3-7.6,9.2-8.2v-4.5h3.3v4.4c3,0.2,6,1,8.1,2.4l-1.6,4c-2.1-1.2-4.4-1.9-6.5-2.2V80c4.4,1.1,9.3,2.5,9.3,8 C754.5,92.2,751.5,95.7,745.3,96.3z M742,79.2v-7.1c-2.8,0.4-4,1.9-4,3.6C737.9,77.6,739.7,78.5,742,79.2z M749.4,88.4 c0-2-1.8-2.9-4.2-3.6V92C748.2,91.5,749.4,90.2,749.4,88.4z"></path> <path class="st2" d="M57.9,353c0-9.1,4.9-14.3,11.4-14.3c6.5,0,11.4,5.2,11.4,14.3c0,9.1-4.9,14.3-11.4,14.3 C62.8,367.3,57.9,362.1,57.9,353z M76.8,353c0-7.2-3-10.8-7.4-10.8c-4.4,0-7.4,3.6-7.4,10.8c0,7.2,3,10.8,7.4,10.8 C73.7,363.8,76.8,360.2,76.8,353z"></path> <path class="st2" d="M94.6,353c0-9.1,4.9-14.3,11.4-14.3c6.5,0,11.4,5.2,11.4,14.3c0,9.1-4.9,14.3-11.4,14.3 C99.5,367.3,94.6,362.1,94.6,353z M113.4,353c0-7.2-3-10.8-7.4-10.8c-4.4,0-7.4,3.6-7.4,10.8c0,7.2,3,10.8,7.4,10.8 C110.4,363.8,113.4,360.2,113.4,353z"></path> <path class="st2" d="M131.3,353c0-9.1,4.9-14.3,11.4-14.3c6.5,0,11.4,5.2,11.4,14.3c0,9.1-4.9,14.3-11.4,14.3 C136.2,367.3,131.3,362.1,131.3,353z M150.1,353c0-7.2-3-10.8-7.4-10.8c-4.4,0-7.4,3.6-7.4,10.8c0,7.2,3,10.8,7.4,10.8 C147.1,363.8,150.1,360.2,150.1,353z"></path> <path class="st2" d="M168,353c0-9.1,4.9-14.3,11.4-14.3c6.5,0,11.4,5.2,11.4,14.3c0,9.1-4.9,14.3-11.4,14.3 C172.8,367.3,168,362.1,168,353z M186.8,353c0-7.2-3-10.8-7.4-10.8c-4.4,0-7.4,3.6-7.4,10.8c0,7.2,3,10.8,7.4,10.8 C183.8,363.8,186.8,360.2,186.8,353z"></path> <path class="st2" d="M246.2,353c0-9.1,4.9-14.3,11.4-14.3c6.5,0,11.4,5.2,11.4,14.3c0,9.1-4.9,14.3-11.4,14.3 C251,367.3,246.2,362.1,246.2,353z M265,353c0-7.2-3-10.8-7.4-10.8c-4.4,0-7.4,3.6-7.4,10.8c0,7.2,3,10.8,7.4,10.8 C262,363.8,265,360.2,265,353z"></path> <path class="st2" d="M282.8,353c0-9.1,4.9-14.3,11.4-14.3c6.5,0,11.4,5.2,11.4,14.3c0,9.1-4.9,14.3-11.4,14.3 C287.7,367.3,282.8,362.1,282.8,353z M301.7,353c0-7.2-3-10.8-7.4-10.8c-4.4,0-7.4,3.6-7.4,10.8c0,7.2,3,10.8,7.4,10.8 C298.6,363.8,301.7,360.2,301.7,353z"></path> <path class="st2" d="M319.5,353c0-9.1,4.9-14.3,11.4-14.3c6.5,0,11.4,5.2,11.4,14.3c0,9.1-4.9,14.3-11.4,14.3 C324.4,367.3,319.5,362.1,319.5,353z M338.4,353c0-7.2-3-10.8-7.4-10.8c-4.4,0-7.4,3.6-7.4,10.8c0,7.2,3,10.8,7.4,10.8 C335.3,363.8,338.4,360.2,338.4,353z"></path> <path class="st2" d="M356.2,353c0-9.1,4.9-14.3,11.4-14.3c6.5,0,11.4,5.2,11.4,14.3c0,9.1-4.9,14.3-11.4,14.3 C361.1,367.3,356.2,362.1,356.2,353z M375,353c0-7.2-3-10.8-7.4-10.8c-4.4,0-7.4,3.6-7.4,10.8c0,7.2,3,10.8,7.4,10.8 C372,363.8,375,360.2,375,353z"></path> <path class="st2" d="M434.4,353c0-9.1,4.9-14.3,11.4-14.3c6.5,0,11.4,5.2,11.4,14.3c0,9.1-4.9,14.3-11.4,14.3 C439.3,367.3,434.4,362.1,434.4,353z M453.2,353c0-7.2-3-10.8-7.4-10.8c-4.4,0-7.4,3.6-7.4,10.8c0,7.2,3,10.8,7.4,10.8 C450.2,363.8,453.2,360.2,453.2,353z"></path> <path class="st2" d="M471.1,353c0-9.1,4.9-14.3,11.4-14.3c6.5,0,11.4,5.2,11.4,14.3c0,9.1-4.9,14.3-11.4,14.3 C476,367.3,471.1,362.1,471.1,353z M489.9,353c0-7.2-3-10.8-7.4-10.8c-4.4,0-7.4,3.6-7.4,10.8c0,7.2,3,10.8,7.4,10.8 C486.9,363.8,489.9,360.2,489.9,353z"></path> <path class="st2" d="M507.8,353c0-9.1,4.9-14.3,11.4-14.3c6.5,0,11.4,5.2,11.4,14.3c0,9.1-4.9,14.3-11.4,14.3 C512.6,367.3,507.8,362.1,507.8,353z M526.6,353c0-7.2-3-10.8-7.4-10.8c-4.4,0-7.4,3.6-7.4,10.8c0,7.2,3,10.8,7.4,10.8 C523.6,363.8,526.6,360.2,526.6,353z"></path> <path class="st2" d="M544.4,353c0-9.1,4.9-14.3,11.4-14.3c6.5,0,11.4,5.2,11.4,14.3c0,9.1-4.9,14.3-11.4,14.3 C549.3,367.3,544.4,362.1,544.4,353z M563.3,353c0-7.2-3-10.8-7.4-10.8c-4.4,0-7.4,3.6-7.4,10.8c0,7.2,3,10.8,7.4,10.8 C560.2,363.8,563.3,360.2,563.3,353z"></path> <path class="st2" d="M622.6,353c0-9.1,4.9-14.3,11.4-14.3c6.5,0,11.4,5.2,11.4,14.3c0,9.1-4.9,14.3-11.4,14.3 C627.5,367.3,622.6,362.1,622.6,353z M641.5,353c0-7.2-3-10.8-7.4-10.8c-4.4,0-7.4,3.6-7.4,10.8c0,7.2,3,10.8,7.4,10.8 C638.4,363.8,641.5,360.2,641.5,353z"></path> <path class="st2" d="M659.3,353c0-9.1,4.9-14.3,11.4-14.3c6.5,0,11.4,5.2,11.4,14.3c0,9.1-4.9,14.3-11.4,14.3 C664.2,367.3,659.3,362.1,659.3,353z M678.2,353c0-7.2-3-10.8-7.4-10.8c-4.4,0-7.4,3.6-7.4,10.8c0,7.2,3,10.8,7.4,10.8 C675.1,363.8,678.2,360.2,678.2,353z"></path> <path class="st2" d="M696,353c0-9.1,4.9-14.3,11.4-14.3c6.5,0,11.4,5.2,11.4,14.3c0,9.1-4.9,14.3-11.4,14.3 C700.9,367.3,696,362.1,696,353z M714.8,353c0-7.2-3-10.8-7.4-10.8c-4.4,0-7.4,3.6-7.4,10.8c0,7.2,3,10.8,7.4,10.8 C711.8,363.8,714.8,360.2,714.8,353z"></path> <path class="st2" d="M732.7,353c0-9.1,4.9-14.3,11.4-14.3c6.5,0,11.4,5.2,11.4,14.3c0,9.1-4.9,14.3-11.4,14.3 C737.6,367.3,732.7,362.1,732.7,353z M751.5,353c0-7.2-3-10.8-7.4-10.8c-4.4,0-7.4,3.6-7.4,10.8c0,7.2,3,10.8,7.4,10.8 C748.5,363.8,751.5,360.2,751.5,353z"></path> <rect x="102.5" y="200" class="st2" width="3" height="88"></rect> <rect x="56" y="226.5" class="st2" width="48" height="3"></rect> <rect x="136" y="255.5" class="st2" width="45.8" height="3"></rect> <rect x="56" y="255.5" class="st2" width="48" height="3"></rect> <path class="st2" d="M172,288h-34c-1.7,0-3-1.3-3-3v-45c0-6.6,5.4-12,12-12h34c1.7,0,3,1.3,3,3v45C184,282.6,178.6,288,172,288z M147,231c-5,0-9,4-9,9v45h34c5,0,9-4,9-9v-45H147z"></path> <path class="st2" d="M172,288H68c-6.6,0-12-5.4-12-12v-64c0-6.6,5.4-12,12-12h104c6.6,0,12,5.4,12,12v64 C184,282.6,178.6,288,172,288z M68,203c-5,0-9,4-9,9v64c0,5,4,9,9,9h104c5,0,9-4,9-9v-64c0-5-4-9-9-9H68z"></path> </svg> 