<?xml version="1.0" encoding="UTF-8"?> <!-- Generator: Adobe Illustrator 23.0.3, SVG Export Plug-In . SVG Version: 6.00 Build 0) --> <svg xmlns="http://www.w3.org/2000/svg" xmlns:xlink="http://www.w3.org/1999/xlink" id="Layer_1" x="0px" y="0px" viewBox="0 0 808 488" style="enable-background:new 0 0 808 488;" xml:space="preserve"> <style type="text/css"> .st0{fill:url(#BG_1_);} .st1{fill:#FFFFFF;} </style> <linearGradient id="BG_1_" gradientUnits="userSpaceOnUse" x1="221.646" y1="394.1926" x2="222.646" y2="393.1926" gradientTransform="matrix(808 0 0 -488 -179090 192366)"> <stop offset="0" style="stop-color:#6B6B6B"></stop> <stop offset="0.259" style="stop-color:#919191"></stop> <stop offset="0.636" style="stop-color:#BFBFBF"></stop> <stop offset="1" style="stop-color:#7E7E7E"></stop> </linearGradient> <path id="BG" class="st0" d="M36,0h736c19.9,0,36,16.1,36,36v416c0,19.9-16.1,36-36,36H36c-19.9,0-36-16.1-36-36V36 C0,16.1,16.1,0,36,0z"></path> <path id="Path_1404" class="st1" d="M94,62.3c-17.5,0-31.7,14.2-31.7,31.7s14.2,31.7,31.7,31.7s31.7-14.2,31.7-31.7c0,0,0,0,0,0 C125.7,76.5,111.5,62.3,94,62.3z M97.2,116.2h-6.3v-6.3h6.3V116.2z M103.7,91.6l-2.9,2.9c-2.3,2.3-3.7,4.2-3.7,9h-6.3v-1.6 c0-3.4,1.3-6.6,3.7-9l3.9-4c1.2-1.2,1.9-2.8,1.9-4.5c0-3.5-2.8-6.3-6.3-6.3s-6.3,2.8-6.3,6.3h-6.3c-0.1-7,5.6-12.7,12.6-12.8 s12.7,5.6,12.8,12.6c0,0.1,0,0.2,0,0.2C106.7,87.2,105.6,89.7,103.7,91.6z"></path> <path class="st1" d="M78.1,438l-5.7-8.2c-0.4,0-0.7,0-1.1,0H65v8.2h-5.2v-28h11.5c7.4,0,11.9,3.8,11.9,10c0,4.2-2.2,7.4-6,8.8 l6.4,9.2H78.1z M71,414.4H65v11.2H71c4.6,0,6.9-2.1,6.9-5.6S75.6,414.4,71,414.4z"></path> <path class="st1" d="M108.5,428.9H91.8c0.6,3.1,3.2,5.1,6.9,5.1c2.4,0,4.3-0.8,5.8-2.3l2.7,3.1c-1.9,2.3-4.9,3.5-8.6,3.5 c-7.2,0-11.8-4.6-11.8-11c0-6.4,4.7-10.9,11-10.9c6.2,0,10.8,4.4,10.8,11C108.6,427.8,108.6,428.4,108.5,428.9z M91.7,425.6h12.1 c-0.4-3.1-2.8-5.2-6-5.2C94.6,420.4,92.2,422.5,91.7,425.6z"></path> <path class="st1" d="M134.6,416.6v18.1c0,7.8-4,11.3-11.5,11.3c-4,0-8-1-10.4-3l2.2-3.8c1.9,1.6,4.9,2.6,7.9,2.6 c4.7,0,6.8-2.2,6.8-6.5v-1.1c-1.8,1.9-4.3,2.8-7.2,2.8c-6.1,0-10.8-4.2-10.8-10.4c0-6.2,4.7-10.3,10.8-10.3c3,0,5.6,1,7.4,3.1v-2.8 H134.6z M129.7,426.7c0-3.6-2.7-6-6.5-6c-3.8,0-6.5,2.4-6.5,6c0,3.6,2.7,6.1,6.5,6.1C127,432.8,129.7,430.3,129.7,426.7z"></path> <path class="st1" d="M161.8,416.6V438h-4.8v-2.7c-1.6,2-4.1,3-6.9,3c-5.5,0-9.2-3-9.2-9.4v-12.2h5v11.5c0,3.9,1.8,5.7,5,5.7 c3.5,0,5.8-2.2,5.8-6.4v-10.8H161.8z"></path> <path class="st1" d="M168.4,408.3h5V438h-5V408.3z"></path> <path class="st1" d="M197.8,425.5V438h-4.7v-2.6c-1.2,1.8-3.5,2.9-6.7,2.9c-4.9,0-8-2.7-8-6.4c0-3.6,2.4-6.4,8.9-6.4h5.5v-0.3 c0-2.9-1.8-4.6-5.3-4.6c-2.4,0-4.9,0.8-6.5,2.1l-2-3.6c2.3-1.8,5.6-2.6,9-2.6C194.3,416.4,197.8,419.3,197.8,425.5z M192.8,431.3 v-2.5h-5.2c-3.4,0-4.3,1.3-4.3,2.8c0,1.8,1.5,3,4.1,3C189.9,434.6,192,433.5,192.8,431.3z"></path> <path class="st1" d="M216.6,416.4v4.8c-0.4-0.1-0.8-0.1-1.2-0.1c-3.8,0-6.2,2.2-6.2,6.6V438h-5v-21.4h4.8v3.1 C210.4,417.5,213,416.4,216.6,416.4z"></path> <path class="st1" d="M244.6,428.1v9.9h-5.2v-9.8l-11-18.2h5.6l8.2,13.6l8.3-13.6h5.1L244.6,428.1z"></path> <path class="st1" d="M254.4,427.3c0-6.4,4.8-10.9,11.4-10.9c6.6,0,11.4,4.5,11.4,10.9c0,6.4-4.8,11-11.4,11 C259.2,438.3,254.4,433.7,254.4,427.3z M272.1,427.3c0-4.1-2.7-6.7-6.4-6.7c-3.6,0-6.3,2.6-6.3,6.7c0,4.1,2.7,6.7,6.3,6.7 C269.4,434,272.1,431.4,272.1,427.3z"></path> <path class="st1" d="M302.6,416.6V438h-4.8v-2.7c-1.6,2-4.1,3-6.9,3c-5.5,0-9.2-3-9.2-9.4v-12.2h5v11.5c0,3.9,1.8,5.7,5,5.7 c3.5,0,5.8-2.2,5.8-6.4v-10.8H302.6z"></path> <path class="st1" d="M312.4,414.4h-9.3V410h23.8v4.4h-9.3V438h-5.2V414.4z"></path> <path class="st1" d="M350.4,416.6V438h-4.8v-2.7c-1.6,2-4.1,3-6.9,3c-5.5,0-9.2-3-9.2-9.4v-12.2h5v11.5c0,3.9,1.8,5.7,5,5.7 c3.5,0,5.8-2.2,5.8-6.4v-10.8H350.4z"></path> <path class="st1" d="M379.7,427.3c0,6.6-4.6,11-10.8,11c-2.9,0-5.4-1-7.1-3v2.8H357v-29.7h5v10.9c1.7-1.9,4.1-2.8,6.8-2.8 C375.1,416.4,379.7,420.7,379.7,427.3z M374.6,427.3c0-4.1-2.7-6.7-6.3-6.7s-6.4,2.6-6.4,6.7c0,4.1,2.8,6.7,6.4,6.7 S374.6,431.4,374.6,427.3z"></path> <path class="st1" d="M404.4,428.9h-16.8c0.6,3.1,3.2,5.1,6.9,5.1c2.4,0,4.3-0.8,5.8-2.3l2.7,3.1c-1.9,2.3-4.9,3.5-8.6,3.5 c-7.2,0-11.8-4.6-11.8-11c0-6.4,4.7-10.9,11-10.9c6.2,0,10.8,4.4,10.8,11C404.5,427.8,404.5,428.4,404.4,428.9z M387.6,425.6h12.1 c-0.4-3.1-2.8-5.2-6-5.2C390.5,420.4,388.1,422.5,387.6,425.6z"></path> <path class="st1" d="M421.7,416.4v4.8c-0.4-0.1-0.8-0.1-1.2-0.1c-3.8,0-6.2,2.2-6.2,6.6V438h-5v-21.4h4.8v3.1 C415.5,417.5,418.1,416.4,421.7,416.4z"></path> <path class="st1" d="M678.8,86.6c0,4.7-3.6,8.8-11.1,8.8c-4,0-7.9-1.2-10.5-3.2l2.2-4c2,1.7,5,2.8,8.2,2.8c3.7,0,5.9-1.6,5.9-4.2 c0-2.5-1.8-4.2-6.1-4.2h-2.6v-3.6l6.4-7.6h-12.7V67h19.1v3.5l-6.8,8.1C676.1,79.2,678.8,82.4,678.8,86.6z"></path> <path class="st1" d="M707.1,88.6h-5V95h-5v-6.4h-15.4V85l13.8-18h5.6l-13,17.2h9.2v-5.6h4.9v5.6h5V88.6z"></path> <path class="st1" d="M729.6,86.4c0,4.9-3.6,9-11.1,9c-4,0-8-1.2-10.5-3.2l2.2-4c2,1.7,5.1,2.8,8.2,2.8c3.7,0,5.9-1.6,5.9-4.3 c0-2.7-1.7-4.4-7.5-4.4H710l1.4-15.2h16.4v4.4h-12l-0.6,6.5h2.7C726.2,77.8,729.6,81.4,729.6,86.4z"></path> <path class="st1" d="M745.3,95.3v4.5H742v-4.4c-3.9-0.2-7.7-1.5-9.8-3.3l1.8-4c2,1.6,5,2.8,8,3v-8c-4.4-1.1-9.2-2.5-9.2-8.1 c0-4.1,3-7.6,9.2-8.2v-4.5h3.3v4.4c3,0.2,6,1,8.1,2.4l-1.6,4c-2.1-1.2-4.4-1.9-6.5-2.2V79c4.4,1.1,9.3,2.5,9.3,8 C754.6,91.2,751.6,94.7,745.3,95.3z M742,78.2v-7.1c-2.8,0.4-4,1.9-4,3.6C738,76.6,739.7,77.5,742,78.2z M749.4,87.4 c0-2-1.8-2.9-4.2-3.6V91C748.2,90.5,749.4,89.2,749.4,87.4z"></path> <path class="st1" d="M57.9,353c0-9.1,4.9-14.3,11.4-14.3c6.5,0,11.4,5.2,11.4,14.3c0,9.1-4.9,14.3-11.4,14.3 C62.8,367.3,57.9,362.1,57.9,353z M76.8,353c0-7.2-3-10.8-7.4-10.8c-4.4,0-7.4,3.6-7.4,10.8c0,7.2,3,10.8,7.4,10.8 C73.7,363.8,76.8,360.2,76.8,353z"></path> <path class="st1" d="M94.6,353c0-9.1,4.9-14.3,11.4-14.3c6.5,0,11.4,5.2,11.4,14.3c0,9.1-4.9,14.3-11.4,14.3 C99.5,367.3,94.6,362.1,94.6,353z M113.4,353c0-7.2-3-10.8-7.4-10.8c-4.4,0-7.4,3.6-7.4,10.8c0,7.2,3,10.8,7.4,10.8 C110.4,363.8,113.4,360.2,113.4,353z"></path> <path class="st1" d="M131.3,353c0-9.1,4.9-14.3,11.4-14.3c6.5,0,11.4,5.2,11.4,14.3c0,9.1-4.9,14.3-11.4,14.3 C136.2,367.3,131.3,362.1,131.3,353z M150.1,353c0-7.2-3-10.8-7.4-10.8c-4.4,0-7.4,3.6-7.4,10.8c0,7.2,3,10.8,7.4,10.8 C147.1,363.8,150.1,360.2,150.1,353z"></path> <path class="st1" d="M168,353c0-9.1,4.9-14.3,11.4-14.3c6.5,0,11.4,5.2,11.4,14.3c0,9.1-4.9,14.3-11.4,14.3 C172.8,367.3,168,362.1,168,353z M186.8,353c0-7.2-3-10.8-7.4-10.8c-4.4,0-7.4,3.6-7.4,10.8c0,7.2,3,10.8,7.4,10.8 C183.8,363.8,186.8,360.2,186.8,353z"></path> <path class="st1" d="M246.2,353c0-9.1,4.9-14.3,11.4-14.3c6.5,0,11.4,5.2,11.4,14.3c0,9.1-4.9,14.3-11.4,14.3 C251,367.3,246.2,362.1,246.2,353z M265,353c0-7.2-3-10.8-7.4-10.8c-4.4,0-7.4,3.6-7.4,10.8c0,7.2,3,10.8,7.4,10.8 C262,363.8,265,360.2,265,353z"></path> <path class="st1" d="M282.8,353c0-9.1,4.9-14.3,11.4-14.3c6.5,0,11.4,5.2,11.4,14.3c0,9.1-4.9,14.3-11.4,14.3 C287.7,367.3,282.8,362.1,282.8,353z M301.7,353c0-7.2-3-10.8-7.4-10.8c-4.4,0-7.4,3.6-7.4,10.8c0,7.2,3,10.8,7.4,10.8 C298.6,363.8,301.7,360.2,301.7,353z"></path> <path class="st1" d="M319.5,353c0-9.1,4.9-14.3,11.4-14.3c6.5,0,11.4,5.2,11.4,14.3c0,9.1-4.9,14.3-11.4,14.3 C324.4,367.3,319.5,362.1,319.5,353z M338.4,353c0-7.2-3-10.8-7.4-10.8c-4.4,0-7.4,3.6-7.4,10.8c0,7.2,3,10.8,7.4,10.8 C335.3,363.8,338.4,360.2,338.4,353z"></path> <path class="st1" d="M356.2,353c0-9.1,4.9-14.3,11.4-14.3c6.5,0,11.4,5.2,11.4,14.3c0,9.1-4.9,14.3-11.4,14.3 C361.1,367.3,356.2,362.1,356.2,353z M375,353c0-7.2-3-10.8-7.4-10.8c-4.4,0-7.4,3.6-7.4,10.8c0,7.2,3,10.8,7.4,10.8 C372,363.8,375,360.2,375,353z"></path> <path class="st1" d="M434.4,353c0-9.1,4.9-14.3,11.4-14.3c6.5,0,11.4,5.2,11.4,14.3c0,9.1-4.9,14.3-11.4,14.3 C439.3,367.3,434.4,362.1,434.4,353z M453.2,353c0-7.2-3-10.8-7.4-10.8c-4.4,0-7.4,3.6-7.4,10.8c0,7.2,3,10.8,7.4,10.8 C450.2,363.8,453.2,360.2,453.2,353z"></path> <path class="st1" d="M471.1,353c0-9.1,4.9-14.3,11.4-14.3c6.5,0,11.4,5.2,11.4,14.3c0,9.1-4.9,14.3-11.4,14.3 C476,367.3,471.1,362.1,471.1,353z M489.9,353c0-7.2-3-10.8-7.4-10.8c-4.4,0-7.4,3.6-7.4,10.8c0,7.2,3,10.8,7.4,10.8 C486.9,363.8,489.9,360.2,489.9,353z"></path> <path class="st1" d="M507.8,353c0-9.1,4.9-14.3,11.4-14.3c6.5,0,11.4,5.2,11.4,14.3c0,9.1-4.9,14.3-11.4,14.3 C512.6,367.3,507.8,362.1,507.8,353z M526.6,353c0-7.2-3-10.8-7.4-10.8c-4.4,0-7.4,3.6-7.4,10.8c0,7.2,3,10.8,7.4,10.8 C523.6,363.8,526.6,360.2,526.6,353z"></path> <path class="st1" d="M544.4,353c0-9.1,4.9-14.3,11.4-14.3c6.5,0,11.4,5.2,11.4,14.3c0,9.1-4.9,14.3-11.4,14.3 C549.3,367.3,544.4,362.1,544.4,353z M563.3,353c0-7.2-3-10.8-7.4-10.8c-4.4,0-7.4,3.6-7.4,10.8c0,7.2,3,10.8,7.4,10.8 C560.2,363.8,563.3,360.2,563.3,353z"></path> <path class="st1" d="M622.6,353c0-9.1,4.9-14.3,11.4-14.3c6.5,0,11.4,5.2,11.4,14.3c0,9.1-4.9,14.3-11.4,14.3 C627.5,367.3,622.6,362.1,622.6,353z M641.5,353c0-7.2-3-10.8-7.4-10.8c-4.4,0-7.4,3.6-7.4,10.8c0,7.2,3,10.8,7.4,10.8 C638.4,363.8,641.5,360.2,641.5,353z"></path> <path class="st1" d="M659.3,353c0-9.1,4.9-14.3,11.4-14.3c6.5,0,11.4,5.2,11.4,14.3c0,9.1-4.9,14.3-11.4,14.3 C664.2,367.3,659.3,362.1,659.3,353z M678.2,353c0-7.2-3-10.8-7.4-10.8c-4.4,0-7.4,3.6-7.4,10.8c0,7.2,3,10.8,7.4,10.8 C675.1,363.8,678.2,360.2,678.2,353z"></path> <path class="st1" d="M696,353c0-9.1,4.9-14.3,11.4-14.3c6.5,0,11.4,5.2,11.4,14.3c0,9.1-4.9,14.3-11.4,14.3 C700.9,367.3,696,362.1,696,353z M714.8,353c0-7.2-3-10.8-7.4-10.8c-4.4,0-7.4,3.6-7.4,10.8c0,7.2,3,10.8,7.4,10.8 C711.8,363.8,714.8,360.2,714.8,353z"></path> <path class="st1" d="M732.7,353c0-9.1,4.9-14.3,11.4-14.3c6.5,0,11.4,5.2,11.4,14.3c0,9.1-4.9,14.3-11.4,14.3 C737.6,367.3,732.7,362.1,732.7,353z M751.5,353c0-7.2-3-10.8-7.4-10.8c-4.4,0-7.4,3.6-7.4,10.8c0,7.2,3,10.8,7.4,10.8 C748.5,363.8,751.5,360.2,751.5,353z"></path> <path class="st1" d="M172,280H68c-6.6,0-12-5.4-12-12v-64c0-6.6,5.4-12,12-12h104c6.6,0,12,5.4,12,12v64 C184,274.6,178.6,280,172,280z M68,195c-5,0-9,4-9,9v64c0,5,4,9,9,9h104c5,0,9-4,9-9v-64c0-5-4-9-9-9H68z"></path> <rect x="102.5" y="192" class="st1" width="3" height="88"></rect> <rect x="56" y="234.5" class="st1" width="48" height="3"></rect> <rect x="136" y="256.5" class="st1" width="45.8" height="3"></rect> <rect x="136" y="234.5" class="st1" width="45.8" height="3"></rect> <rect x="56" y="256.5" class="st1" width="48" height="3"></rect> <rect x="56" y="212.5" class="st1" width="48" height="3"></rect> <path class="st1" d="M172,280h-34c-1.7,0-3-1.3-3-3v-52c0-6.6,5.4-12,12-12h34c1.7,0,3,1.3,3,3v52C184,274.6,178.6,280,172,280z M147,216c-5,0-9,4-9,9v52h34c5,0,9-4,9-9v-52H147z"></path> </svg> 