<?xml version="1.0" encoding="UTF-8"?> <!-- Generator: Adobe Illustrator 23.0.3, SVG Export Plug-In . SVG Version: 6.00 Build 0) --> <svg xmlns="http://www.w3.org/2000/svg" xmlns:xlink="http://www.w3.org/1999/xlink" id="Coin" x="0px" y="0px" viewBox="0 0 153 153" style="enable-background:new 0 0 153 153;" xml:space="preserve"> <style type="text/css"> .st0{fill:#DD821F;} .st1{fill:#FFD85A;} .st2{fill:#F9BF30;} </style> <circle id="Ellipse_214" class="st0" cx="77" cy="77" r="76"></circle> <circle id="Ellipse_213" class="st1" cx="76" cy="76" r="76"></circle> <circle id="Ellipse_215" class="st2" cx="77" cy="77" r="75"></circle> <circle id="Ellipse_217" class="st0" cx="75" cy="75" r="60"></circle> <circle id="Ellipse_219" class="st1" cx="79" cy="79" r="60"></circle> <circle id="Ellipse_218" class="st2" cx="77" cy="77" r="60"></circle> <path id="Subtraction_2" class="st1" d="M84,132.1L65,85.2l8.5-5.7l41.8,37.7C106.8,125.4,95.8,130.6,84,132.1L84,132.1z M66.3,131.6L66.3,131.6c-1.1-0.2-2.2-0.5-3.3-0.7c-8.7-2.2-16.8-6.5-23.5-12.6c-3.3-3-6.3-6.3-8.8-10l26.2-17.6L66.3,131.6 L66.3,131.6z M131,90.7l-42.9-21l35.5-23.8C132.3,59.1,135,75.4,131,90.7L131,90.7z"></path> </svg> 