<?xml version="1.0" encoding="UTF-8"?> <!-- Generator: Adobe Illustrator 23.0.3, SVG Export Plug-In . SVG Version: 6.00 Build 0) --> <svg xmlns="http://www.w3.org/2000/svg" xmlns:xlink="http://www.w3.org/1999/xlink" id="Layer_1" x="0px" y="0px" viewBox="0 0 72 72" style="enable-background:new 0 0 72 72;" xml:space="preserve"> <style type="text/css"> .st0{fill:url(#SVGID_1_);} </style> <linearGradient id="SVGID_1_" gradientUnits="userSpaceOnUse" x1="-102.6526" y1="56.6692" x2="-103.4908" y2="55.6888" gradientTransform="matrix(72 0 0 -72 7455 4083.4172)"> <stop offset="0" style="stop-color:#7F8FFC"></stop> <stop offset="1" style="stop-color:#70FFF7"></stop> </linearGradient> <path class="st0" d="M36,71.3C16.5,71.3,0.7,55.5,0.7,36S16.5,0.7,36,0.7S71.3,16.5,71.3,36S55.5,71.3,36,71.3z M23.4,43.2v7.2h9 v7.2h7.2v-7.2h3.6c5,0,9-4,9-9s-4-9-9-9H28.8c-1,0-1.8-0.8-1.8-1.8c0-1,0.8-1.8,1.8-1.8l0,0h19.8v-7.2h-9v-7.2h-7.2v7.2h-3.6 c-5,0-9,4-9,9s4,9,9,9h14.4c1,0,1.8,0.8,1.8,1.8c0,1-0.8,1.8-1.8,1.8L23.4,43.2z"></path> </svg> 