<?xml version="1.0" encoding="UTF-8"?> <svg xmlns="http://www.w3.org/2000/svg" width="320" height="88" viewBox="0 0 320 88" fill="none"> <g filter="url(#filter0_d)"> <rect x="20" y="15" width="280" height="48" rx="6" fill="url(#paint0_linear)"></rect> </g> <path d="M99.6 33.8V45H97.024V35.912H91.968V45H89.392V33.8H99.6ZM106.216 45.128C105.31 45.128 104.494 44.9413 103.768 44.568C103.054 44.184 102.494 43.656 102.088 42.984C101.683 42.312 101.48 41.5493 101.48 40.696C101.48 39.8427 101.683 39.08 102.088 38.408C102.494 37.736 103.054 37.2133 103.768 36.84C104.494 36.456 105.31 36.264 106.216 36.264C107.123 36.264 107.934 36.456 108.648 36.84C109.363 37.2133 109.923 37.736 110.328 38.408C110.734 39.08 110.936 39.8427 110.936 40.696C110.936 41.5493 110.734 42.312 110.328 42.984C109.923 43.656 109.363 44.184 108.648 44.568C107.934 44.9413 107.123 45.128 106.216 45.128ZM106.216 43.08C106.856 43.08 107.379 42.8667 107.784 42.44C108.2 42.0027 108.408 41.4213 108.408 40.696C108.408 39.9707 108.2 39.3947 107.784 38.968C107.379 38.5307 106.856 38.312 106.216 38.312C105.576 38.312 105.048 38.5307 104.632 38.968C104.216 39.3947 104.008 39.9707 104.008 40.696C104.008 41.4213 104.216 42.0027 104.632 42.44C105.048 42.8667 105.576 43.08 106.216 43.08ZM121.213 36.392V45H118.717V38.44H115.133V45H112.653V36.392H121.213ZM126.95 36.264C128.284 36.264 129.308 36.584 130.022 37.224C130.737 37.8533 131.094 38.808 131.094 40.088V45H128.758V43.928C128.289 44.728 127.414 45.128 126.134 45.128C125.473 45.128 124.897 45.016 124.406 44.792C123.926 44.568 123.558 44.2587 123.302 43.864C123.046 43.4693 122.918 43.0213 122.918 42.52C122.918 41.72 123.217 41.0907 123.814 40.632C124.422 40.1733 125.356 39.944 126.614 39.944H128.598C128.598 39.4 128.433 38.984 128.102 38.696C127.772 38.3973 127.276 38.248 126.614 38.248C126.156 38.248 125.702 38.3227 125.254 38.472C124.817 38.6107 124.444 38.8027 124.134 39.048L123.238 37.304C123.708 36.9733 124.268 36.7173 124.918 36.536C125.58 36.3547 126.257 36.264 126.95 36.264ZM126.758 43.448C127.185 43.448 127.564 43.352 127.894 43.16C128.225 42.9573 128.46 42.664 128.598 42.28V41.4H126.886C125.862 41.4 125.35 41.736 125.35 42.408C125.35 42.728 125.473 42.984 125.718 43.176C125.974 43.3573 126.321 43.448 126.758 43.448ZM137.359 45.128C136.441 45.128 135.615 44.9413 134.879 44.568C134.153 44.184 133.583 43.656 133.167 42.984C132.761 42.312 132.559 41.5493 132.559 40.696C132.559 39.8427 132.761 39.08 133.167 38.408C133.583 37.736 134.153 37.2133 134.879 36.84C135.615 36.456 136.441 36.264 137.359 36.264C138.265 36.264 139.055 36.456 139.727 36.84C140.409 37.2133 140.905 37.752 141.215 38.456L139.279 39.496C138.831 38.7067 138.185 38.312 137.343 38.312C136.692 38.312 136.153 38.5253 135.727 38.952C135.3 39.3787 135.087 39.96 135.087 40.696C135.087 41.432 135.3 42.0133 135.727 42.44C136.153 42.8667 136.692 43.08 137.343 43.08C138.196 43.08 138.841 42.6853 139.279 41.896L141.215 42.952C140.905 43.6347 140.409 44.168 139.727 44.552C139.055 44.936 138.265 45.128 137.359 45.128ZM149.932 38.44H147.02V45H144.54V38.44H141.628V36.392H149.932V38.44ZM155.919 39.144C157.039 39.1547 157.897 39.4107 158.495 39.912C159.092 40.4027 159.391 41.1013 159.391 42.008C159.391 42.9573 159.055 43.6987 158.383 44.232C157.721 44.7547 156.788 45.016 155.583 45.016L151.263 45V36.392H153.743V39.144H155.919ZM155.359 43.24C155.839 43.2507 156.207 43.1493 156.463 42.936C156.719 42.7227 156.847 42.4027 156.847 41.976C156.847 41.56 156.719 41.256 156.463 41.064C156.217 40.872 155.849 40.7707 155.359 40.76L153.743 40.744V43.24H155.359ZM165.481 36.392H167.961V39.752H171.705V36.392H174.201V45H171.705V41.784H167.961V45H165.481V36.392ZM179.935 36.264C181.268 36.264 182.292 36.584 183.007 37.224C183.721 37.8533 184.079 38.808 184.079 40.088V45H181.743V43.928C181.273 44.728 180.399 45.128 179.119 45.128C178.457 45.128 177.881 45.016 177.391 44.792C176.911 44.568 176.543 44.2587 176.287 43.864C176.031 43.4693 175.903 43.0213 175.903 42.52C175.903 41.72 176.201 41.0907 176.799 40.632C177.407 40.1733 178.34 39.944 179.599 39.944H181.583C181.583 39.4 181.417 38.984 181.087 38.696C180.756 38.3973 180.26 38.248 179.599 38.248C179.14 38.248 178.687 38.3227 178.239 38.472C177.801 38.6107 177.428 38.8027 177.119 39.048L176.223 37.304C176.692 36.9733 177.252 36.7173 177.903 36.536C178.564 36.3547 179.241 36.264 179.935 36.264ZM179.743 43.448C180.169 43.448 180.548 43.352 180.879 43.16C181.209 42.9573 181.444 42.664 181.583 42.28V41.4H179.871C178.847 41.4 178.335 41.736 178.335 42.408C178.335 42.728 178.457 42.984 178.703 43.176C178.959 43.3573 179.305 43.448 179.743 43.448ZM195.754 36.984C196.575 36.984 197.295 37.1547 197.914 37.496C198.533 37.8267 199.007 38.296 199.338 38.904C199.679 39.512 199.85 40.216 199.85 41.016C199.85 41.8373 199.647 42.568 199.242 43.208C198.847 43.8373 198.293 44.328 197.578 44.68C196.863 45.0213 196.053 45.192 195.146 45.192C193.642 45.192 192.458 44.712 191.594 43.752C190.741 42.7813 190.314 41.3627 190.314 39.496C190.314 37.768 190.687 36.392 191.434 35.368C192.191 34.3333 193.349 33.656 194.906 33.336L199.002 32.52L199.338 34.664L195.722 35.384C194.741 35.576 194.01 35.896 193.53 36.344C193.061 36.792 192.783 37.4267 192.698 38.248C193.071 37.8427 193.519 37.5333 194.042 37.32C194.565 37.096 195.135 36.984 195.754 36.984ZM195.162 43.256C195.802 43.256 196.314 43.048 196.698 42.632C197.093 42.216 197.29 41.688 197.29 41.048C197.29 40.3973 197.093 39.88 196.698 39.496C196.314 39.112 195.802 38.92 195.162 38.92C194.511 38.92 193.989 39.112 193.594 39.496C193.199 39.88 193.002 40.3973 193.002 41.048C193.002 41.6987 193.205 42.232 193.61 42.648C194.015 43.0533 194.533 43.256 195.162 43.256ZM205.576 45.128C204.669 45.128 203.853 44.9413 203.128 44.568C202.413 44.184 201.853 43.656 201.448 42.984C201.042 42.312 200.84 41.5493 200.84 40.696C200.84 39.8427 201.042 39.08 201.448 38.408C201.853 37.736 202.413 37.2133 203.128 36.84C203.853 36.456 204.669 36.264 205.576 36.264C206.482 36.264 207.293 36.456 208.008 36.84C208.722 37.2133 209.282 37.736 209.688 38.408C210.093 39.08 210.296 39.8427 210.296 40.696C210.296 41.5493 210.093 42.312 209.688 42.984C209.282 43.656 208.722 44.184 208.008 44.568C207.293 44.9413 206.482 45.128 205.576 45.128ZM205.576 43.08C206.216 43.08 206.738 42.8667 207.144 42.44C207.56 42.0027 207.768 41.4213 207.768 40.696C207.768 39.9707 207.56 39.3947 207.144 38.968C206.738 38.5307 206.216 38.312 205.576 38.312C204.936 38.312 204.408 38.5307 203.992 38.968C203.576 39.3947 203.368 39.9707 203.368 40.696C203.368 41.4213 203.576 42.0027 203.992 42.44C204.408 42.8667 204.936 43.08 205.576 43.08ZM217.085 36.264C217.885 36.264 218.61 36.4507 219.26 36.824C219.922 37.1867 220.439 37.704 220.812 38.376C221.186 39.0373 221.373 39.8107 221.373 40.696C221.373 41.5813 221.186 42.36 220.812 43.032C220.439 43.6933 219.922 44.2107 219.26 44.584C218.61 44.9467 217.885 45.128 217.085 45.128C215.986 45.128 215.122 44.7813 214.493 44.088V48.104H211.997V36.392H214.381V37.384C214.999 36.6373 215.901 36.264 217.085 36.264ZM216.653 43.08C217.293 43.08 217.815 42.8667 218.221 42.44C218.637 42.0027 218.845 41.4213 218.845 40.696C218.845 39.9707 218.637 39.3947 218.221 38.968C217.815 38.5307 217.293 38.312 216.653 38.312C216.013 38.312 215.485 38.5307 215.069 38.968C214.663 39.3947 214.461 39.9707 214.461 40.696C214.461 41.4213 214.663 42.0027 215.069 42.44C215.485 42.8667 216.013 43.08 216.653 43.08ZM230.041 38.44H227.129V45H224.649V38.44H221.737V36.392H230.041V38.44Z" fill="white"></path> <defs> <filter id="filter0_d" x="0" y="0" width="320" height="88" filterUnits="userSpaceOnUse" color-interpolation-filters="sRGB"> <feFlood flood-opacity="0" result="BackgroundImageFix"></feFlood> <feColorMatrix in="SourceAlpha" type="matrix" values="0 0 0 0 0 0 0 0 0 0 0 0 0 0 0 0 0 0 127 0"></feColorMatrix> <feOffset dy="5"></feOffset> <feGaussianBlur stdDeviation="10"></feGaussianBlur> <feColorMatrix type="matrix" values="0 0 0 0 0.164706 0 0 0 0 0.305882 0 0 0 0 0.694118 0 0 0 0.2 0"></feColorMatrix> <feBlend mode="normal" in2="BackgroundImageFix" result="effect1_dropShadow"></feBlend> <feBlend mode="normal" in="SourceGraphic" in2="effect1_dropShadow" result="shape"></feBlend> </filter> <linearGradient id="paint0_linear" x1="20" y1="39" x2="300" y2="39" gradientUnits="userSpaceOnUse"> <stop stop-color="#6A85DC"></stop> <stop offset="1" stop-color="#7BD5F6"></stop> </linearGradient> </defs> </svg> 