<?xml version="1.0" encoding="UTF-8"?> <svg xmlns="http://www.w3.org/2000/svg" width="76" height="76" viewBox="0 0 76 76" fill="none"> <rect width="76" height="76" rx="10" fill="url(#paint0_linear)"></rect> <path d="M26.3127 45.6253C36.4265 45.6253 44.6253 37.4265 44.6253 27.3127C44.6253 17.1989 36.4265 9 26.3127 9C16.1989 9 8 17.1989 8 27.3127C8 37.4265 16.1989 45.6253 26.3127 45.6253Z" fill="white"></path> <path d="M67.9999 29.0992C67.9999 31.1551 66.333 32.8213 64.2778 32.8213C62.2225 32.8213 60.5557 31.1551 60.5557 29.0992C60.5557 27.0434 62.2225 25.3771 64.2778 25.3771C66.333 25.3771 67.9999 27.0434 67.9999 29.0992Z" fill="white"></path> <path d="M61.3004 38.181C61.3004 42.2921 57.9678 45.625 53.8563 45.625C49.7445 45.625 46.4121 42.2921 46.4121 38.181C46.4121 34.0697 49.7446 30.7368 53.8563 30.7368C57.968 30.7368 61.3004 34.0699 61.3004 38.181Z" fill="white"></path> <path d="M62.7889 57.387C62.7889 62.3205 58.79 66.3196 53.8559 66.3196C48.9219 66.3196 44.9229 62.3205 44.9229 57.387C44.9229 52.4536 48.9218 48.4541 53.8559 48.4541C58.79 48.4541 62.7889 52.4536 62.7889 57.387Z" fill="white"></path> <defs> <linearGradient id="paint0_linear" x1="47.9524" y1="16.2857" x2="-6.40395e-06" y2="76" gradientUnits="userSpaceOnUse"> <stop stop-color="#91FA51"></stop> <stop offset="1" stop-color="#13F513"></stop> </linearGradient> </defs> </svg> 