<?xml version="1.0" encoding="UTF-8"?> <!-- Generator: Adobe Illustrator 23.0.3, SVG Export Plug-In . SVG Version: 6.00 Build 0) --> <svg xmlns="http://www.w3.org/2000/svg" xmlns:xlink="http://www.w3.org/1999/xlink" id="Layer_1" x="0px" y="0px" viewBox="0 0 80 80" style="enable-background:new 0 0 80 80;" xml:space="preserve"> <style type="text/css"> .st0{fill:url(#SVGID_1_);} .st1{fill:#FFFFFF;} .st2{fill:none;} </style> <linearGradient id="SVGID_1_" gradientUnits="userSpaceOnUse" x1="-897.0553" y1="565.0756" x2="-894.3333" y2="568.3596" gradientTransform="matrix(40 0 0 -40 35841 22741)"> <stop offset="0" style="stop-color:#FF5858"></stop> <stop offset="1" style="stop-color:#FF58A5"></stop> </linearGradient> <path class="st0" d="M8,0h64c4.4,0,8,3.6,8,8v64c0,4.4-3.6,8-8,8H8c-4.4,0-8-3.6-8-8V8C0,3.6,3.6,0,8,0z"></path> <g transform="translate(3.333 3.333)"> <g transform="translate(0 0)"> <path class="st1" d="M58.9,14.4H14.4c-3.1,0-5.5,2.5-5.5,5.6l0,33.3c0,3.1,2.5,5.5,5.6,5.6h44.4c3.1,0,5.5-2.5,5.6-5.6V20 C64.4,16.9,62,14.5,58.9,14.4z M58.9,25.6L36.7,39.4L14.4,25.6V20l22.2,13.9L58.9,20V25.6z"></path> <path class="st2" d="M3.3,3.3H70V70H3.3V3.3z"></path> </g> </g> </svg> 