<?xml version="1.0" encoding="UTF-8"?> <!-- Generator: Adobe Illustrator 23.0.3, SVG Export Plug-In . SVG Version: 6.00 Build 0) --> <svg xmlns="http://www.w3.org/2000/svg" xmlns:xlink="http://www.w3.org/1999/xlink" id="icon3" x="0px" y="0px" viewBox="0 0 200 200" style="enable-background:new 0 0 200 200;" xml:space="preserve"> <style type="text/css"> .st0{fill:#FFFFFF;} .st1{fill:#DD821F;} .st2{fill:#FFD85A;} .st3{fill:#F9BF30;} .st4{fill:#F2B42A;} </style> <rect id="Rectangle_375" class="st0" width="200" height="200"></rect> <path id="Path_1199" class="st1" d="M163.1,68l-0.4-10.3l-2.4-6.1l-1.5,5L163.1,68z"></path> <path id="Path_1200" class="st2" d="M54.6,70l-0.4-10.1c0,0,8.6,8.6,8.6,8.8S54.6,70,54.6,70z"></path> <path id="Path_1201" class="st2" d="M109.6,100.1c30-0.7,53.7-15.9,53.1-42.4s-25.4-47.3-55.4-46.6S53.6,33.8,54.2,60.3 S79.6,100.8,109.6,100.1z"></path> <ellipse id="Ellipse_184" transform="matrix(0.9997 -2.399309e-02 2.399309e-02 0.9997 -1.6315 2.632)" class="st2" cx="108.9" cy="69.3" rx="54.3" ry="47.9"></ellipse> <path id="Path_1202" class="st1" d="M146.7,34.8c9.8,8.4,16.1,20.1,16.4,33.2c0.6,26.4-23.1,48.5-53.1,49.2 c-13.9,0.5-27.5-4.1-38.4-12.8L146.7,34.8z"></path> <ellipse id="Ellipse_185" transform="matrix(0.9997 -2.394363e-02 2.394363e-02 0.9997 -1.6279 2.6261)" class="st3" cx="108.9" cy="69.3" rx="51.8" ry="45.8"></ellipse> <ellipse id="Ellipse_186" transform="matrix(0.9997 -2.399309e-02 2.399309e-02 0.9997 -1.6314 2.6319)" class="st4" cx="108.9" cy="69.3" rx="41.6" ry="36.7"></ellipse> <path id="Path_1203" class="st2" d="M67.3,70.3c0-0.8,0-1.7,0-2.5c1.9,19.1,20.3,33.8,42.3,33.2s39.7-16.1,40.7-35.2 c0.1,0.8,0.1,1.7,0.2,2.5c0.5,20.3-17.7,37.2-40.7,37.7S67.7,90.6,67.3,70.3z"></path> <path id="Path_1204" class="st2" d="M100.9,72.4l8.5-7.9c8.2,1.9,23.5,5.4,35.8,8.2c-3,9.2-10.5,16.7-20.1,20.7L100.9,72.4z"></path> <path id="Path_1205" class="st2" d="M114.3,96.2c-1.4,0.2-2.7,0.3-4.1,0.3c-9.4,0.3-18.7-2.7-26.1-8.6L98,75L114.3,96.2z"></path> <path id="Path_1206" class="st2" d="M118.6,56l16.1-14.9c5.4,4.7,10.2,9.9,11.5,16.9L118.6,56z"></path> <path id="Path_1207" class="st1" d="M110.1,37c-23,0.6-41.2,17.4-40.7,37.7c0.1,4,0.9,8,2.5,11.7C69,81.5,67.4,76,67.3,70.3 C66.8,50,85,33.1,108,32.6c18.3-0.4,34.1,9.6,40,24C140.9,44.6,126.5,36.6,110.1,37z"></path> <path id="Path_1208" class="st1" d="M162.7,57.7c0.1,3.9,0.5,6.8-0.5,10.5c-1.2-3.9-3.8-15.5-3.8-15.5l-4.1-9.2l-3.4-2.8l-5.8-4.2 L144.6,23C155.4,31.5,162.3,43.8,162.7,57.7z"></path> <path id="Path_1209" class="st1" d="M57.7,56.3l-0.2-2.7c0-0.4-0.3-0.7-0.7-0.7c0,0,0,0,0,0h-0.2c-0.4,0-0.7,0.3-0.6,0.7l0.2,2.7 c0,0.4,0.3,0.7,0.7,0.7c0,0,0,0,0,0h0.2C57.4,57,57.7,56.7,57.7,56.3z"></path> <path id="Path_1210" class="st1" d="M62.5,45.9L62.2,41c0-0.4-0.3-0.8-0.8-0.8c0,0,0,0,0,0l-0.5,0c-0.4,0-0.8,0.4-0.7,0.8l0.3,4.9 c0,0.4,0.3,0.8,0.8,0.8l0.5,0C62.2,46.7,62.5,46.3,62.5,45.9z"></path> <path id="Path_1211" class="st1" d="M69.1,36.8L68.8,32c0-0.5-0.4-0.9-0.9-0.9l-0.8,0c-0.5,0-0.9,0.4-0.8,0.9l0.3,4.7 c0,0.5,0.4,0.9,0.9,0.9l0.8,0C68.7,37.7,69.1,37.2,69.1,36.8z"></path> <path id="Path_1212" class="st1" d="M79,29.4l-0.3-5.8c0-0.5-0.4-0.9-0.9-0.9l-0.8,0c-0.5,0-0.9,0.4-0.8,0.9l0.3,5.8 c0,0.5,0.4,0.9,0.9,0.9l0.8,0C78.6,30.3,79,29.9,79,29.4C79,29.4,79,29.4,79,29.4z"></path> <path id="Path_1213" class="st1" d="M88.9,24.6l-0.3-6.6c0-0.5-0.4-0.9-0.9-0.9l-0.8,0c-0.5,0-0.9,0.4-0.8,0.9l0.3,6.6 c0,0.5,0.4,0.9,0.9,0.9c0,0,0,0,0,0l0.8,0C88.6,25.5,88.9,25.1,88.9,24.6z"></path> <path id="Path_1214" class="st1" d="M98.9,21.6l-0.3-6.4c0-0.5-0.4-0.9-0.9-0.9c0,0,0,0,0,0l-0.8,0c-0.5,0-0.9,0.4-0.8,0.9 c0,0,0,0,0,0l0.3,6.4c0,0.5,0.4,0.9,0.9,0.9l0.8,0C98.6,22.5,98.9,22.1,98.9,21.6z"></path> <path id="Path_1215" class="st1" d="M109,20.6l-0.3-6.5c0-0.5-0.4-0.9-0.9-0.9l-0.8,0c-0.5,0-0.9,0.4-0.8,0.9c0,0,0,0,0,0l0.3,6.5 c0,0.5,0.4,0.9,0.9,0.9l0.8,0C108.6,21.5,109,21.1,109,20.6z"></path> <path id="Path_1216" class="st1" d="M119,20.8l-0.3-6.1c0-0.5-0.4-0.9-0.9-0.9l-0.8,0c-0.5,0-0.9,0.4-0.8,0.9l0.3,6.1 c0,0.5,0.4,0.9,0.9,0.9c0,0,0,0,0,0l0.8,0C118.7,21.7,119.1,21.3,119,20.8z"></path> <path id="Path_1217" class="st1" d="M129.1,23l-0.3-5.9c0-0.5-0.4-0.9-0.9-0.9c0,0,0,0,0,0l-0.8,0c-0.5,0-0.9,0.4-0.8,0.9l0.3,5.9 c0,0.5,0.4,0.9,0.9,0.9l0.8,0C128.8,23.9,129.2,23.5,129.1,23C129.1,23,129.1,23,129.1,23z"></path> <path id="Path_1218" class="st1" d="M139.3,28l-0.3-6.4c0-0.5-0.4-0.9-0.9-0.9l-0.8,0c-0.5,0-0.9,0.4-0.8,0.9l0.3,6.4 c0,0.5,0.4,0.9,0.9,0.9l0.8,0C139,28.9,139.4,28.5,139.3,28z"></path> <path id="Path_1199-2" class="st1" d="M125.6,108.2l-0.4-10.3l-2.4-6.1l-1.5,5L125.6,108.2z"></path> <path id="Path_1200-2" class="st2" d="M17.1,110.2l-0.4-10.1c0,0,8.6,8.6,8.6,8.8S17.1,110.2,17.1,110.2z"></path> <path id="Path_1201-2" class="st2" d="M72.1,140.3c30-0.7,53.7-15.9,53.1-42.4S99.8,50.6,69.8,51.3s-53.7,22.7-53.1,49.2 S42.2,141,72.1,140.3z"></path> <ellipse id="Ellipse_184-2" transform="matrix(0.9997 -2.399309e-02 2.399309e-02 0.9997 -2.608 1.7447)" class="st2" cx="71.4" cy="109.6" rx="54.3" ry="47.9"></ellipse> <path id="Path_1202-2" class="st1" d="M109.2,75c9.8,8.4,16.1,20.1,16.4,33.2c0.6,26.4-23.1,48.5-53.1,49.2 c-13.9,0.5-27.5-4.1-38.4-12.8L109.2,75z"></path> <ellipse id="Ellipse_185-2" transform="matrix(0.9997 -2.394363e-02 2.394363e-02 0.9997 -2.6024 1.7406)" class="st3" cx="71.4" cy="109.5" rx="51.8" ry="45.8"></ellipse> <ellipse id="Ellipse_186-2" transform="matrix(0.9997 -2.399309e-02 2.399309e-02 0.9997 -2.608 1.7446)" class="st4" cx="71.4" cy="109.6" rx="41.6" ry="36.7"></ellipse> <path id="Path_1203-2" class="st2" d="M29.8,110.5c0-0.8,0-1.7,0-2.5c1.9,19.1,20.3,33.8,42.3,33.2s39.7-16.1,40.7-35.2 c0.1,0.8,0.1,1.7,0.2,2.5c0.5,20.3-17.7,37.2-40.7,37.7C49.3,146.8,30.3,130.8,29.8,110.5z"></path> <path id="Path_1204-2" class="st2" d="M63.4,112.6l8.5-7.9c8.2,1.9,23.5,5.4,35.8,8.2c-3,9.2-10.5,16.7-20.1,20.7L63.4,112.6z"></path> <path id="Path_1205-2" class="st2" d="M76.8,136.5c-1.4,0.2-2.7,0.3-4.1,0.3c-9.4,0.3-18.7-2.7-26.1-8.6l13.9-12.9L76.8,136.5z"></path> <path id="Path_1206-2" class="st2" d="M81.1,96.3l16.1-14.9c5.4,4.7,10.2,9.9,11.5,16.9L81.1,96.3z"></path> <path id="Path_1207-2" class="st1" d="M72.7,77.2c-23,0.6-41.2,17.4-40.7,37.7c0.1,4,0.9,8,2.5,11.7c-2.9-4.9-4.5-10.4-4.6-16.1 c-0.5-20.3,17.7-37.2,40.7-37.7c18.3-0.4,34.1,9.6,40,24C103.4,84.9,89.1,76.8,72.7,77.2z"></path> <path id="Path_1208-2" class="st1" d="M125.2,97.9c0.1,3.9,0.5,6.8-0.5,10.5c-1.2-3.9-3.8-15.5-3.8-15.5l-4.1-9.2l-3.4-2.8l-5.8-4.2 l-0.5-13.3C117.9,71.8,124.9,84.1,125.2,97.9z"></path> <path id="Path_1209-2" class="st1" d="M20.2,96.6L20,93.8c0-0.4-0.3-0.7-0.7-0.7c0,0,0,0,0,0h-0.2c-0.4,0-0.7,0.3-0.6,0.7l0.2,2.7 c0,0.4,0.3,0.7,0.7,0.7c0,0,0,0,0,0h0.2C20,97.3,20.3,96.9,20.2,96.6z"></path> <path id="Path_1210-2" class="st1" d="M25,86.1l-0.3-4.9c0-0.4-0.3-0.8-0.8-0.8c0,0,0,0,0,0l-0.5,0c-0.4,0-0.8,0.4-0.7,0.8l0.3,4.9 c0,0.4,0.3,0.8,0.8,0.8l0.5,0C24.7,86.9,25,86.5,25,86.1z"></path> <path id="Path_1211-2" class="st1" d="M31.6,77l-0.3-4.7c0-0.5-0.4-0.9-0.9-0.9l-0.8,0c-0.5,0-0.9,0.4-0.8,0.9l0.3,4.7 c0,0.5,0.4,0.9,0.9,0.9l0.8,0C31.3,77.9,31.6,77.5,31.6,77z"></path> <path id="Path_1212-2" class="st1" d="M41.5,69.6l-0.3-5.8c0-0.5-0.4-0.9-0.9-0.9l-0.8,0c-0.5,0-0.9,0.4-0.8,0.9l0.3,5.8 c0,0.5,0.4,0.9,0.9,0.9l0.8,0C41.2,70.6,41.5,70.1,41.5,69.6C41.5,69.6,41.5,69.6,41.5,69.6z"></path> <path id="Path_1213-2" class="st1" d="M51.5,64.8l-0.3-6.6c0-0.5-0.4-0.9-0.9-0.9l-0.8,0c-0.5,0-0.9,0.4-0.8,0.9l0.3,6.6 c0,0.5,0.4,0.9,0.9,0.9c0,0,0,0,0,0l0.8,0C51.1,65.7,51.5,65.3,51.5,64.8z"></path> <path id="Path_1214-2" class="st1" d="M61.4,61.9l-0.3-6.4c0-0.5-0.4-0.9-0.9-0.9c0,0,0,0,0,0l-0.8,0c-0.5,0-0.9,0.4-0.8,0.9 c0,0,0,0,0,0l0.3,6.4c0,0.5,0.4,0.9,0.9,0.9l0.8,0C61.1,62.8,61.5,62.4,61.4,61.9z"></path> <path id="Path_1215-2" class="st1" d="M71.5,60.9l-0.3-6.5c0-0.5-0.4-0.9-0.9-0.9l-0.8,0c-0.5,0-0.9,0.4-0.8,0.9c0,0,0,0,0,0 l0.3,6.5c0,0.5,0.4,0.9,0.9,0.9l0.8,0C71.1,61.8,71.5,61.4,71.5,60.9z"></path> <path id="Path_1216-2" class="st1" d="M81.6,61.1L81.3,55c0-0.5-0.4-0.9-0.9-0.9l-0.8,0c-0.5,0-0.9,0.4-0.8,0.9l0.3,6.1 c0,0.5,0.4,0.9,0.9,0.9c0,0,0,0,0,0l0.8,0C81.2,62,81.6,61.6,81.6,61.1z"></path> <path id="Path_1217-2" class="st1" d="M91.7,63.3l-0.3-5.9c0-0.5-0.4-0.9-0.9-0.9c0,0,0,0,0,0l-0.8,0c-0.5,0-0.9,0.4-0.8,0.9 l0.3,5.9c0,0.5,0.4,0.9,0.9,0.9l0.8,0C91.3,64.2,91.7,63.8,91.7,63.3C91.7,63.3,91.7,63.3,91.7,63.3z"></path> <path id="Path_1218-2" class="st1" d="M101.9,68.2l-0.3-6.4c0-0.5-0.4-0.9-0.9-0.9l-0.8,0c-0.5,0-0.9,0.4-0.8,0.9l0.3,6.4 c0,0.5,0.4,0.9,0.9,0.9l0.8,0C101.5,69.1,101.9,68.7,101.9,68.2z"></path> <path id="Path_1199-3" class="st1" d="M182.9,138.5l-0.4-10.3l-2.4-6.1l-1.5,5L182.9,138.5z"></path> <path id="Path_1200-3" class="st2" d="M74.4,140.4L74,130.3c0,0,8.6,8.6,8.6,8.8S74.4,140.4,74.4,140.4z"></path> <path id="Path_1201-3" class="st2" d="M129.4,170.5c30-0.7,53.7-15.9,53.1-42.4S157,80.8,127.1,81.5S73.3,104.3,74,130.7 S99.4,171.2,129.4,170.5z"></path> <ellipse id="Ellipse_184-3" transform="matrix(0.9997 -2.399309e-02 2.399309e-02 0.9997 -3.3165 3.1265)" class="st2" cx="128.6" cy="139.8" rx="54.3" ry="47.9"></ellipse> <path id="Path_1202-3" class="st1" d="M166.5,105.3c9.8,8.4,16.1,20.1,16.4,33.2c0.6,26.4-23.1,48.5-53.1,49.2 c-13.9,0.5-27.5-4.1-38.4-12.8L166.5,105.3z"></path> <ellipse id="Ellipse_185-3" transform="matrix(0.9997 -2.394363e-02 2.394363e-02 0.9997 -3.3095 3.1196)" class="st3" cx="128.6" cy="139.8" rx="51.8" ry="45.8"></ellipse> <ellipse id="Ellipse_186-3" transform="matrix(0.9997 -2.399309e-02 2.399309e-02 0.9997 -3.3164 3.1264)" class="st4" cx="128.6" cy="139.8" rx="41.6" ry="36.7"></ellipse> <path id="Path_1203-3" class="st2" d="M87,140.8c0-0.8,0-1.7,0-2.5c1.9,19.1,20.3,33.8,42.3,33.2s39.7-16.1,40.7-35.2 c0.1,0.8,0.1,1.7,0.2,2.5c0.5,20.3-17.7,37.2-40.7,37.7S87.5,161,87,140.8z"></path> <path id="Path_1204-3" class="st2" d="M120.6,142.9l8.5-7.9c8.2,1.9,23.5,5.4,35.8,8.2c-3,9.2-10.5,16.7-20.1,20.7L120.6,142.9z"></path> <path id="Path_1205-3" class="st2" d="M134.1,166.7c-1.4,0.2-2.7,0.3-4.1,0.3c-9.4,0.3-18.7-2.7-26.1-8.6l13.9-12.9L134.1,166.7z"></path> <path id="Path_1206-3" class="st2" d="M138.3,126.5l16.1-14.9c5.4,4.7,10.2,9.9,11.5,16.9L138.3,126.5z"></path> <path id="Path_1207-3" class="st1" d="M129.9,107.4c-23,0.6-41.2,17.4-40.7,37.7c0.1,4,0.9,8,2.5,11.7c-2.9-4.9-4.5-10.4-4.6-16.1 c-0.5-20.3,17.7-37.2,40.7-37.7c18.3-0.4,34.1,9.6,40,24C160.7,115.1,146.3,107,129.9,107.4z"></path> <path id="Path_1208-3" class="st1" d="M182.4,128.1c0.1,3.9,0.5,6.8-0.5,10.5c-1.2-3.9-3.8-15.5-3.8-15.5l-4.1-9.2l-3.4-2.8 l-5.8-4.2l-0.5-13.3C175.2,102,182.1,114.3,182.4,128.1z"></path> <path id="Path_1209-3" class="st1" d="M77.5,126.8l-0.2-2.7c0-0.4-0.3-0.7-0.7-0.7c0,0,0,0,0,0h-0.2c-0.4,0-0.7,0.3-0.6,0.7l0.2,2.7 c0,0.4,0.3,0.7,0.7,0.7c0,0,0,0,0,0h0.2C77.2,127.5,77.5,127.1,77.5,126.8z"></path> <path id="Path_1210-3" class="st1" d="M82.2,116.3l-0.3-4.9c0-0.4-0.3-0.8-0.8-0.8c0,0,0,0,0,0l-0.5,0c-0.4,0-0.8,0.4-0.7,0.8 l0.3,4.9c0,0.4,0.3,0.8,0.8,0.8l0.5,0C81.9,117.1,82.3,116.8,82.2,116.3z"></path> <path id="Path_1211-3" class="st1" d="M88.8,107.2l-0.3-4.7c0-0.5-0.4-0.9-0.9-0.9l-0.8,0c-0.5,0-0.9,0.4-0.8,0.9l0.3,4.7 c0,0.5,0.4,0.9,0.9,0.9l0.8,0C88.5,108.1,88.9,107.7,88.8,107.2z"></path> <path id="Path_1212-3" class="st1" d="M98.7,99.9l-0.3-5.8c0-0.5-0.4-0.9-0.9-0.9l-0.8,0c-0.5,0-0.9,0.4-0.8,0.9l0.3,5.8 c0,0.5,0.4,0.9,0.9,0.9l0.8,0C98.4,100.8,98.8,100.4,98.7,99.9C98.7,99.9,98.7,99.9,98.7,99.9z"></path> <path id="Path_1213-3" class="st1" d="M108.7,95l-0.3-6.6c0-0.5-0.4-0.9-0.9-0.9l-0.8,0c-0.5,0-0.9,0.4-0.8,0.9l0.3,6.6 c0,0.5,0.4,0.9,0.9,0.9c0,0,0,0,0,0l0.8,0C108.3,95.9,108.7,95.5,108.7,95z"></path> <path id="Path_1214-3" class="st1" d="M118.7,92.1l-0.3-6.4c0-0.5-0.4-0.9-0.9-0.9c0,0,0,0,0,0l-0.8,0c-0.5,0-0.9,0.4-0.8,0.9 c0,0,0,0,0,0l0.3,6.4c0,0.5,0.4,0.9,0.9,0.9l0.8,0C118.3,93,118.7,92.6,118.7,92.1z"></path> <path id="Path_1215-3" class="st1" d="M128.7,91.1l-0.3-6.5c0-0.5-0.4-0.9-0.9-0.9l-0.8,0c-0.5,0-0.9,0.4-0.8,0.9c0,0,0,0,0,0 l0.3,6.5c0,0.5,0.4,0.9,0.9,0.9l0.8,0C128.4,92,128.7,91.6,128.7,91.1z"></path> <path id="Path_1216-3" class="st1" d="M138.8,91.3l-0.3-6.1c0-0.5-0.4-0.9-0.9-0.9l-0.8,0c-0.5,0-0.9,0.4-0.8,0.9l0.3,6.1 c0,0.5,0.4,0.9,0.9,0.9c0,0,0,0,0,0l0.8,0C138.4,92.2,138.8,91.8,138.8,91.3z"></path> <path id="Path_1217-3" class="st1" d="M148.9,93.5l-0.3-5.9c0-0.5-0.4-0.9-0.9-0.9c0,0,0,0,0,0l-0.8,0c-0.5,0-0.9,0.4-0.8,0.9 l0.3,5.9c0,0.5,0.4,0.9,0.9,0.9l0.8,0C148.6,94.4,148.9,94,148.9,93.5C148.9,93.5,148.9,93.5,148.9,93.5z"></path> <path id="Path_1218-3" class="st1" d="M159.1,98.4l-0.3-6.4c0-0.5-0.4-0.9-0.9-0.9l-0.8,0c-0.5,0-0.9,0.4-0.8,0.9l0.3,6.4 c0,0.5,0.4,0.9,0.9,0.9l0.8,0C158.7,99.4,159.1,98.9,159.1,98.4z"></path> </svg> 