<?xml version="1.0" encoding="UTF-8"?> <!-- Generator: Adobe Illustrator 23.0.3, SVG Export Plug-In . SVG Version: 6.00 Build 0) --> <svg xmlns="http://www.w3.org/2000/svg" xmlns:xlink="http://www.w3.org/1999/xlink" id="Layer_1" x="0px" y="0px" viewBox="0 0 80 80" style="enable-background:new 0 0 80 80;" xml:space="preserve"> <style type="text/css"> .st0{fill:url(#SVGID_1_);} .st1{fill:#FFFFFF;} </style> <linearGradient id="SVGID_1_" gradientUnits="userSpaceOnUse" x1="-896.025" y1="566.525" x2="-894.025" y2="568.525" gradientTransform="matrix(40 0 0 -40 35841 22741)"> <stop offset="0" style="stop-color:#006CFF"></stop> <stop offset="1" style="stop-color:#00C3FC"></stop> </linearGradient> <path class="st0" d="M8,0h64c4.4,0,8,3.6,8,8v64c0,4.4-3.6,8-8,8H8c-4.4,0-8-3.6-8-8V8C0,3.6,3.6,0,8,0z"></path> <g transform="translate(6.667 6.667)"> <path class="st1" d="M33.3,5.7C8.6,5.7-2.6,35,16.7,49.5V59l9-5c16.9,4.7,34-7.1,34-23.7C59.7,16.7,47.9,5.7,33.3,5.7z M36.1,38.8 l-6.8-7.1L16.1,39l14.4-15.3l6.8,7.1l13.1-7.3L36.1,38.8z"></path> </g> </svg> 