<?xml version="1.0" encoding="UTF-8"?> <!-- Generator: Adobe Illustrator 23.0.3, SVG Export Plug-In . SVG Version: 6.00 Build 0) --> <svg xmlns="http://www.w3.org/2000/svg" xmlns:xlink="http://www.w3.org/1999/xlink" id="icon2" x="0px" y="0px" viewBox="0 0 200 200" style="enable-background:new 0 0 200 200;" xml:space="preserve"> <style type="text/css"> .st0{fill:#FFFFFF;} .st1{fill:url(#Ellipse_225_1_);} .st2{clip-path:url(#SVGID_2_);fill:#CCCCCC;} .st3{clip-path:url(#SVGID_2_);fill:#BA5EFA;} .st4{clip-path:url(#SVGID_2_);fill:#DD821F;} .st5{clip-path:url(#SVGID_2_);fill:#FFD85A;} .st6{clip-path:url(#SVGID_2_);fill:#F9BF30;} .st7{clip-path:url(#SVGID_2_);fill:#FC528B;} </style> <rect id="Rectangle_375" class="st0" width="200" height="200"></rect> <linearGradient id="Ellipse_225_1_" gradientUnits="userSpaceOnUse" x1="-48.2337" y1="250.7337" x2="-48.2337" y2="249.7337" gradientTransform="matrix(184 0 0 -184 8975 46143)"> <stop offset="0" style="stop-color:#FC528B"></stop> <stop offset="1" style="stop-color:#FFCA63"></stop> </linearGradient> <circle id="Ellipse_225" class="st1" cx="100" cy="100" r="92"></circle> <g> <defs> <circle id="SVGID_1_" cx="100" cy="100" r="92"></circle> </defs> <clipPath id="SVGID_2_"> <use xlink:href="#SVGID_1_" style="overflow:visible;"></use> </clipPath> <path id="Union_5" class="st2" d="M71.4,112V78.8H56l26.7-46.4l26.7,46.4H93.9V112H71.4z"></path> <path id="Union_4" class="st3" d="M101.5,208V76.7H77.7L118.8,16L160,76.7h-23.8V208H101.5z"></path> <ellipse id="Ellipse_214" class="st4" cx="67.9" cy="148.9" rx="60.5" ry="60.5"></ellipse> <ellipse id="Ellipse_213" class="st5" cx="67.1" cy="148.1" rx="60.5" ry="60.5"></ellipse> <ellipse id="Ellipse_215" class="st6" cx="67.9" cy="148.9" rx="59.7" ry="59.7"></ellipse> <ellipse id="Ellipse_217" class="st4" cx="66.3" cy="147.3" rx="47.8" ry="47.7"></ellipse> <ellipse id="Ellipse_219" class="st5" cx="69.5" cy="150.5" rx="47.8" ry="47.7"></ellipse> <ellipse id="Ellipse_218" class="st6" cx="67.9" cy="148.9" rx="47.8" ry="47.7"></ellipse> <path id="Subtraction_2" class="st5" d="M73.5,192.7l-15.1-37.3l6.8-4.6l33.3,30C91.6,187.4,82.9,191.5,73.5,192.7L73.5,192.7z M59.3,192.3L59.3,192.3c-0.9-0.2-1.8-0.4-2.7-0.6c-3.5-0.9-6.9-2.2-10-3.9c-6.3-3.4-11.6-8.2-15.7-14l20.9-14L59.3,192.3 L59.3,192.3z M110.9,159.8l-34.1-16.7l28.3-19C111.9,134.7,114.1,147.6,110.9,159.8L110.9,159.8z"></path> <path id="Union_2" class="st7" d="M140.3,192v-54.3h-21.1L155.6,84l36.4,53.7h-21.1V192H140.3z"></path> </g> </svg> 