<?xml version="1.0" encoding="UTF-8"?> <!-- Generator: Adobe Illustrator 23.0.3, SVG Export Plug-In . SVG Version: 6.00 Build 0) --> <svg xmlns="http://www.w3.org/2000/svg" xmlns:xlink="http://www.w3.org/1999/xlink" id="Layer_1" x="0px" y="0px" viewBox="0 0 80 80" style="enable-background:new 0 0 80 80;" xml:space="preserve"> <style type="text/css"> .st0{fill:url(#SVGID_1_);} .st1{fill:#FFFFFF;} </style> <linearGradient id="SVGID_1_" gradientUnits="userSpaceOnUse" x1="-894.0529" y1="568.5515" x2="-895.947" y2="566.5515" gradientTransform="matrix(40 0 0 -40 35841 22741)"> <stop offset="0" style="stop-color:#8BE5FC"></stop> <stop offset="1" style="stop-color:#087CC9"></stop> </linearGradient> <path class="st0" d="M8,0h64c4.4,0,8,3.6,8,8v64c0,4.4-3.6,8-8,8H8c-4.4,0-8-3.6-8-8V8C0,3.6,3.6,0,8,0z"></path> <g transform="translate(6.667 6.667)"> <path class="st1" d="M59.8,15l-8,38c-0.6,2.7-2.2,3.3-4.4,2.1l-12.3-9l-5.9,5.7c-0.6,0.8-1.5,1.2-2.5,1.2l0.9-12.5l22.7-20.5 c1-0.9-0.2-1.4-1.5-0.5L20.7,37.1L8.6,33.3c-2.6-0.8-2.7-2.6,0.5-3.9l47.3-18.2C58.6,10.4,60.6,11.7,59.8,15z"></path> </g> </svg> 