<?xml version="1.0" encoding="UTF-8"?> <!-- Generator: Adobe Illustrator 23.0.3, SVG Export Plug-In . SVG Version: 6.00 Build 0) --> <svg xmlns="http://www.w3.org/2000/svg" xmlns:xlink="http://www.w3.org/1999/xlink" id="Layer_1" x="0px" y="0px" viewBox="0 0 80 80" style="enable-background:new 0 0 80 80;" xml:space="preserve"> <style type="text/css"> .st0{fill:url(#SVGID_1_);} .st1{fill:#FFFFFF;} </style> <linearGradient id="SVGID_1_" gradientUnits="userSpaceOnUse" x1="-894.0529" y1="568.5515" x2="-895.947" y2="566.5515" gradientTransform="matrix(40 0 0 -40 35841 22741)"> <stop offset="0" style="stop-color:#92C5FF"></stop> <stop offset="1" style="stop-color:#4A76A8"></stop> </linearGradient> <path class="st0" d="M8,0h64c4.4,0,8,3.6,8,8v64c0,4.4-3.6,8-8,8H8c-4.4,0-8-3.6-8-8V8C0,3.6,3.6,0,8,0z"></path> <g transform="translate(6.667 6.667)"> <path class="st1" d="M58.8,19.6c0.4-1.2,0-2.1-1.8-2.1h-5.8c-1.1-0.1-2.2,0.6-2.5,1.7c-1.8,4.3-4.2,8.3-7.2,11.9 c-1.4,1.4-2,1.8-2.7,1.8c-0.4,0-0.9-0.4-0.9-1.7V19.6c0-1.5-0.4-2.1-1.6-2.1H27c-0.8,0-1.4,0.5-1.5,1.3c0,0,0,0,0,0 c0,1.4,2.1,1.7,2.3,5.7v8.6c0,1.9-0.3,2.2-1.1,2.2c-2,0-6.8-7.3-9.6-15.6c-0.6-1.6-1.1-2.3-2.6-2.3H8.7c-1.7,0-2,0.8-2,1.7 c0,1.5,2,9.2,9.2,19.4c4.8,6.9,11.6,10.7,17.8,10.7c3.7,0,4.2-0.8,4.2-2.3c0-6.6-0.3-7.2,1.5-7.2c0.9,0,2.3,0.4,5.8,3.8 c4,4,4.6,5.7,6.8,5.7h5.8c1.7,0,2.5-0.8,2-2.5c-1.1-3.5-8.6-10.6-8.9-11c-0.9-1.1-0.6-1.6,0-2.6C50.9,33.1,58.1,23,58.8,19.6z"></path> </g> </svg> 